<svg xmlns="http://www.w3.org/2000/svg" viewBox="0 0 191.48 316.29"><defs><style>.cls-1,.cls-11{fill:#ffc200;}.cls-1,.cls-11,.cls-15,.cls-24{stroke:#231815;}.cls-1{stroke-miterlimit:10;stroke-width:1.98px;}.cls-15,.cls-2,.cls-3{fill:#fff;}.cls-10,.cls-12,.cls-17,.cls-3,.cls-8{stroke:#000;}.cls-15,.cls-17,.cls-24,.cls-3,.cls-8{stroke-linecap:round;stroke-linejoin:round;}.cls-3{stroke-width:1.56px;}.cls-4{fill:#914500;}.cls-5,.cls-6{fill:#ff2948;stroke:#040000;}.cls-5{stroke-miterlimit:10;stroke-width:0.43px;}.cls-6{stroke-miterlimit:10;stroke-width:0.43px;}.cls-7{fill:#ffb000;}.cls-12,.cls-17,.cls-24,.cls-8{fill:none;}.cls-8{stroke-width:0.43px;}.cls-17,.cls-9{opacity:0.25;}.cls-10,.cls-11,.cls-12{stroke-miterlimit:10;}.cls-10,.cls-11,.cls-15{stroke-width:1.7px;}.cls-12{stroke-width:1.98px;}.cls-13{fill:#f6f6f6;}.cls-14,.cls-17,.cls-18,.cls-23{isolation:isolate;}.cls-16{fill:#f9e000;}.cls-17{stroke-width:0.85px;}.cls-18{font-size:8px;}.cls-18,.cls-23{font-family:NanumGothicBold, NanumGothic;}.cls-19{fill:#ffc107;}.cls-20{fill:#ff3d00;}.cls-21{fill:#4caf50;}.cls-22{fill:#1976d2;}.cls-23{font-size:6px;}</style></defs><g id="레이어_2" data-name="레이어 2"><g id="레이어_1-2" data-name="레이어 1"><g id="레이어_2-2" data-name="레이어 2"><g id="화면_1" data-name="화면 1"><g id="로고2"><circle class="cls-1" cx="98.45" cy="99.46" r="41.4"/><g id="맥주_스티커_본체" data-name="맥주 스티커 본체"><g id="맥주들고_있는거" data-name="맥주들고 있는거"><path class="cls-2" d="M115.7,108.68a3.14,3.14,0,0,0,4,.67,2.3,2.3,0,0,0,.81-.8,2.86,2.86,0,0,0,.29-1.11A22.44,22.44,0,0,0,119,96.35a64.57,64.57,0,0,0-5.54-10H85.85A65.05,65.05,0,0,0,76,92.09a22.53,22.53,0,0,0-7.27,8.58,3,3,0,0,0-.31,1.1,2.1,2.1,0,0,0,.28,1.1,3.17,3.17,0,0,0,3.78,1.49l.39-.17,1.5-.92a1.53,1.53,0,0,0,.58-.49,1.35,1.35,0,0,0,.16-.71,4.09,4.09,0,0,0-1.53-3.19l1.67,2a18,18,0,0,0,9.39-1.79l2.07-4.22a32.66,32.66,0,0,0-2.06,5.65,29.76,29.76,0,0,0-.58,5.65,20,20,0,0,0,.31,5.29,12.81,12.81,0,0,0,6.44,8h0a1.63,1.63,0,0,0-.82.32,3.74,3.74,0,0,0-1,.9,1.43,1.43,0,0,0-.24,1.28,2,2,0,0,0,1.44,1,4.23,4.23,0,0,0,1.37.13,5.25,5.25,0,0,0,1.41-.32,10.84,10.84,0,0,0,2.09-1h.07a14.35,14.35,0,0,1-.42-3.45,7.94,7.94,0,0,1,.23-2.06,11,11,0,0,1,1.53-3l.73-1.12h3.53a4,4,0,0,0,.76,1.38,11,11,0,0,1,1.6,5.2,3.47,3.47,0,0,1-.42,2.5v.12a4.16,4.16,0,0,0,3.54,1.87,7.53,7.53,0,0,0,3.38-.59.7.7,0,0,0,.54-.79,2.48,2.48,0,0,0-.17-1.29,1.43,1.43,0,0,0-1.25-.73h-.3a12.76,12.76,0,0,0,6.45-8,20,20,0,0,0,.31-5.29,29.74,29.74,0,0,0-.58-5.64,32.46,32.46,0,0,0-2.06-5.66"/><path d="M115,109.44a4.24,4.24,0,0,0,5,1c2.25-1.14,2.12-4,2-6.14-.3-5.33-2.61-10.25-5.3-14.76-.66-1.11-1.34-2.22-2-3.31-.35-.53-.57-.84-1.23-.91a8.83,8.83,0,0,0-1.26,0H89.35a25.55,25.55,0,0,0-3.5,0,9.94,9.94,0,0,0-2.79,1.28c-1.28.67-2.56,1.35-3.81,2.09A37,37,0,0,0,73.17,93c-2.67,2.39-8.93,9-3.83,12,2,1.17,4,.3,5.7-.94,2.08-1.5.87-4.55-.74-6a1.06,1.06,0,0,0-1.5,1.5c.61.73,1.32,2,2.28,2.28a11.7,11.7,0,0,0,3.87-.07,19.53,19.53,0,0,0,3.92-.89c.83-.29,2.15-.6,2.67-1.35a9.4,9.4,0,0,0,.56-1.15l1.5-3L85.76,94.3a29.87,29.87,0,0,0-2.46,7.54A33.46,33.46,0,0,0,83,109.9a13.77,13.77,0,0,0,7.23,10.46,1.07,1.07,0,0,0,1.29-1.67c-.8-.91-2.26.08-2.93.67a2.62,2.62,0,0,0-.73,3.33,4.12,4.12,0,0,0,3.59,1.42,6.37,6.37,0,0,0,1.87-.44c.33-.12.65-.25,1-.4.11,0,1.07-.55.73-.51a1.08,1.08,0,0,0,1-1.13.76.76,0,0,0,0-.21,10.89,10.89,0,0,1-.24-4.75A13.17,13.17,0,0,1,98,112.6l-.92.53h3.53l-1-.78c.42,1.33,1.43,2.33,1.83,3.7a8.58,8.58,0,0,1,.52,4c-.13.52-.5.88-.39,1.45a2.21,2.21,0,0,0,.48.89,5,5,0,0,0,2.77,1.69c1.63.4,5.39.44,6.17-1.46a2.77,2.77,0,0,0-1.44-3.64,2.72,2.72,0,0,0-1.19-.23l.54,2a13.72,13.72,0,0,0,7.22-10.46,33,33,0,0,0-.23-7.82,28.69,28.69,0,0,0-2.5-7.77c-.54-1.26-2.37-.17-1.83,1.07a26.28,26.28,0,0,1,2.21,6.8,36.42,36.42,0,0,1,.3,6.84,11.58,11.58,0,0,1-6.24,9.51,1.07,1.07,0,0,0,.53,2c.41,0,1,.51.66,1,.07-.09-1,.18-1,.17a6.26,6.26,0,0,1-1.22.15c-.79,0-3-.15-3.19-1.22l-.11.82c.91-1.45.61-3.16.34-4.76a11.33,11.33,0,0,0-.71-2.48c-.38-.92-1.16-1.72-1.45-2.65a1.13,1.13,0,0,0-1-.78h-2.2a3.79,3.79,0,0,0-1.86.13c-.46.26-.72.88-1,1.31a21.38,21.38,0,0,0-1.11,1.84c-1.22,2.41-1,5.12-.45,7.68l1-1.34c-1.09.14-2,1-3.14,1.26-.48.11-1.65.26-2-.19s.51-1.2,1.09-1.29l-1-.28h0l1.29-1.67a11.55,11.55,0,0,1-6.24-9.5,36.48,36.48,0,0,1,.29-6.85A26.81,26.81,0,0,1,87.6,95.4c.53-1.23-1.23-2.33-1.84-1.08a35.84,35.84,0,0,1-1.9,3.89c-.35.53.17,0-.73.38a17.4,17.4,0,0,1-7.91,1.21l.75.31-1.67-2-1.5,1.5a3.07,3.07,0,0,1,1.19,2c0,.83-.83,1.24-1.53,1.59-1.13.57-3.09,0-3-1.54.07-1.23,1.49-3,2.21-3.94a22.74,22.74,0,0,1,3.46-3.61,46.64,46.64,0,0,1,9.2-5.81c1.27-.65,1.26-.89,2.51-.89h26.58l-.91-.52c2.43,3.83,4.9,7.73,6.28,12.09a21.07,21.07,0,0,1,1.06,6.64c0,1,.14,2.49-1,3a2.12,2.12,0,0,1-2.4-.66c-.89-1-2.39.47-1.5,1.51Z"/><path class="cls-3" d="M105.59,87.91c2.19,0,14-1.13,21.86-9.18,10.39-10.68,6.21-25.9,5.54-28.32-.19-.72-4.91-16.8-21.18-22.65a34.86,34.86,0,0,0-21.19-.59c-2.85.8-14.57,4.45-21.18,16.21-1.12,2-9.73,17.92-.4,31.84,8,12,22.77,12.65,24.35,12.69"/><path class="cls-4" d="M78.7,32.37a7.56,7.56,0,0,1-1-2.42,25.39,25.39,0,0,1-.87-8.72h-.08a11.81,11.81,0,0,1-5-.21A10.91,10.91,0,0,1,70,20.47,9.33,9.33,0,0,1,67.56,19v-.16A4.82,4.82,0,0,1,68.67,14a.31.31,0,0,1,.27-.13h0a13.73,13.73,0,0,0,4.34,1.27,31.29,31.29,0,0,0,4.54.19h0a52.73,52.73,0,0,1,1.73-7.56A17.68,17.68,0,0,1,83.38,1.1V1A1.67,1.67,0,0,1,84.71.72a3.1,3.1,0,0,1,1.21.44,6,6,0,0,1,1.79,1.61,1.19,1.19,0,0,1,.3.72l-.07.22a31.64,31.64,0,0,0-3.37,7.42,35.43,35.43,0,0,0-1.81,9,20.64,20.64,0,0,0,1.4,9"/><path d="M79.31,32c-1.91-3-2-7.37-1.81-10.78a.72.72,0,0,0-.74-.7l-.16,0a7.72,7.72,0,0,1-3.76,0A9.55,9.55,0,0,1,69,19.22a6.3,6.3,0,0,0-.72-.4c-.07-.09.09.19-.09-.19a3.42,3.42,0,0,1-.13-1.9,3.8,3.8,0,0,1,1.39-2.37l-.86.11A20.08,20.08,0,0,0,77.87,16l-.68-.52h0a.71.71,0,0,0,.91.46.7.7,0,0,0,.46-.46c.68-3.8,1.37-7.72,3.32-11.12a16.12,16.12,0,0,1,1.78-2.49c.57-.65,1.08-.59,1.9-.14A5.29,5.29,0,0,1,87,3c.44.53.23.61-.11,1.17A27.66,27.66,0,0,0,85.5,6.74c-3.12,6.89-4.92,15.29-2,22.54.34.84,1.71.47,1.37-.38-1.87-4.66-1.68-9.69-.48-14.5a41.05,41.05,0,0,1,2.26-6.74,32.64,32.64,0,0,1,1.68-3.21,1.53,1.53,0,0,0,.26-1.61A5.11,5.11,0,0,0,84.39,0C82.93.06,82,1.57,81.3,2.65c-2.5,3.7-3.34,8.18-4.11,12.5h1.37a.72.72,0,0,0-.69-.52c-2.91,0-5.85-.08-8.52-1.36a.74.74,0,0,0-.86.11c.33-.29-.25.11-.32.17a4,4,0,0,0-.58.71,5.65,5.65,0,0,0-.89,2.2c-.2,1.19-.16,2.65.83,3.42a10,10,0,0,0,4.49,2c1.5.3,3.48.67,5,.1l-.9-.69c-.24,3.65,0,8.33,2,11.5.49.76,1.72.05,1.22-.72Z"/><path class="cls-4" d="M122.25,32.94a7.6,7.6,0,0,0,1-2.41,25.66,25.66,0,0,0,.87-8.72h.07a11.88,11.88,0,0,0,5-.21,10.91,10.91,0,0,0,1.85-.55,9.6,9.6,0,0,0,2.35-1.53v-.16a4.85,4.85,0,0,0-1.13-4.79c-.07-.07-.16-.15-.26-.12v0a13.28,13.28,0,0,1-4.35,1.27,29.81,29.81,0,0,1-4.53.19h0a51.31,51.31,0,0,0-1.74-7.55,17.7,17.7,0,0,0-3.82-6.68l0-.07a1.66,1.66,0,0,0-1.22-.31,3.1,3.1,0,0,0-1.21.44,6,6,0,0,0-1.8,1.61A1.26,1.26,0,0,0,113,4l.07.22a30.6,30.6,0,0,1,3.37,7.41,35.45,35.45,0,0,1,1.82,9,20.5,20.5,0,0,1-1.41,9"/><path d="M122.86,33.3c2-3.17,2.24-7.84,2-11.49l-.9.68c1.47.58,3.46.2,5-.09a10,10,0,0,0,4.49-2c1-.77,1-2.22.82-3.41a5.53,5.53,0,0,0-.88-2.21,4.45,4.45,0,0,0-.59-.71c-.06-.06-.65-.46-.31-.17a.76.76,0,0,0-.86-.11c-2.67,1.28-5.61,1.4-8.52,1.36a.72.72,0,0,0-.69.52h1.36c-.77-4.31-1.6-8.8-4.1-12.49C119,2.1,118.05.58,116.59.53a5.09,5.09,0,0,0-4.18,2.84A1.56,1.56,0,0,0,112.63,5a35,35,0,0,1,1.69,3.21A41.6,41.6,0,0,1,116.58,15c1.2,4.8,1.38,9.84-.48,14.5-.34.85,1,1.21,1.37.38,2.9-7.26,1.09-15.66-2-22.55a24.82,24.82,0,0,0-1.36-2.61c-.34-.57-.58-.59-.1-1.17a5.08,5.08,0,0,1,1.23-1.08c.91-.55,1.44-.68,2.06,0A15,15,0,0,1,119,4.81c2,3.43,2.73,7.42,3.42,11.29a.71.71,0,0,0,.88.48.72.72,0,0,0,.48-.48h0l-.68.52a20.32,20.32,0,0,0,9.24-1.55l-.86-.11a3.7,3.7,0,0,1,1.33,2,3.85,3.85,0,0,1-.1,2.18v.26c.17-.24-.61.21-.78.32a9.34,9.34,0,0,1-3.58,1.29,8.09,8.09,0,0,1-4,.05.71.71,0,0,0-.89.68c.22,3.41.09,7.81-1.81,10.78-.5.77.73,1.48,1.22.71Z"/><ellipse class="cls-5" cx="81.84" cy="61.16" rx="4.91" ry="2.05" transform="translate(-4.63 6.75) rotate(-4.59)"/><ellipse class="cls-6" cx="114.11" cy="60.29" rx="2.05" ry="4.91" transform="translate(44.88 169.21) rotate(-85.41)"/><path class="cls-2" d="M74.1,36.34a14.44,14.44,0,0,0-7.25-5.18c-3.78-1.08-7.38,0-11,1.25a1.17,1.17,0,0,0-.27.15.94.94,0,0,0-.83.83,19.16,19.16,0,0,0,2.74,12c1.86,3.08,4.75,6,8.27,7a.93.93,0,0,0,1.12-.63c.49-1.4,1-2.8,1.48-4.2.11-.34.24-.68.37-1l.06-.19v-.09c.23-.46.49-1,.74-1.44.6-1.16,1.25-2.31,1.83-3.52h0a24.2,24.2,0,0,0,2.82-3.92A.92.92,0,0,0,74.1,36.34Z"/><path d="M74.1,36.34a14.44,14.44,0,0,0-7.25-5.18c-3.78-1.08-7.38,0-11,1.25a1.17,1.17,0,0,0-.27.15.94.94,0,0,0-.83.83,19.16,19.16,0,0,0,2.74,12c1.86,3.08,4.75,6,8.27,7a.93.93,0,0,0,1.12-.63c.49-1.4,1-2.8,1.48-4.2.11-.34.24-.68.37-1l.06-.19v-.09c.23-.46.49-1,.74-1.44.6-1.16,1.25-2.31,1.83-3.52h0a24.2,24.2,0,0,0,2.82-3.92A.92.92,0,0,0,74.1,36.34Zm-6.85,9.2a50.16,50.16,0,0,0-1.76,4.9,14.38,14.38,0,0,1-6.57-6.17A17.9,17.9,0,0,1,56.5,34.21c1,.09,2.12,0,3.14.13a20.55,20.55,0,0,1,4,1,19.32,19.32,0,0,1,3.79,1.93A5.48,5.48,0,0,1,70,40.07C69.09,41.87,68.08,43.69,67.25,45.54Zm4.11-7a6,6,0,0,0-.74-1,14.5,14.5,0,0,0-3.84-2.75,20.79,20.79,0,0,0-5.19-1.93,5.4,5.4,0,0,0-.58-.11,11.39,11.39,0,0,1,5.35.13,12.38,12.38,0,0,1,6,4.16c-.36.52-.64,1-1,1.52Z"/><path class="cls-2" d="M125.56,38.37a24.2,24.2,0,0,0,2.82,3.92h0c.57,1.21,1.23,2.36,1.83,3.52.25.47.5,1,.74,1.45v.08l.06.19c.13.34.26.68.36,1,.51,1.4,1,2.8,1.49,4.2a.93.93,0,0,0,1.12.64c3.52-1.06,6.41-4,8.27-7a19.29,19.29,0,0,0,2.74-12,1,1,0,0,0-.83-.83,1.82,1.82,0,0,0-.27-.15c-3.59-1.29-7.19-2.33-11-1.25a14.44,14.44,0,0,0-7.25,5.18A.89.89,0,0,0,125.56,38.37Z"/><path d="M125.56,38.37a24.2,24.2,0,0,0,2.82,3.92h0c.57,1.21,1.23,2.36,1.83,3.52.25.47.5,1,.74,1.45v.08l.06.19c.13.34.26.68.36,1,.51,1.4,1,2.8,1.49,4.2a.93.93,0,0,0,1.12.64c3.52-1.06,6.41-4,8.27-7a19.29,19.29,0,0,0,2.74-12,1,1,0,0,0-.83-.83,1.82,1.82,0,0,0-.27-.15c-3.59-1.29-7.19-2.33-11-1.25a14.44,14.44,0,0,0-7.25,5.18A.89.89,0,0,0,125.56,38.37ZM129.8,41a5.49,5.49,0,0,1,2.55-2.76,18.79,18.79,0,0,1,3.79-1.93,22.09,22.09,0,0,1,4-1c1-.14,2.1,0,3.14-.12a17.87,17.87,0,0,1-2.42,10.05,14.33,14.33,0,0,1-6.57,6.17,50.16,50.16,0,0,0-1.76-4.9C131.73,44.63,130.71,42.8,129.8,41Zm-2.35-3a12.38,12.38,0,0,1,6-4.16,11.48,11.48,0,0,1,5.34-.13l-.57.11a21,21,0,0,0-5.2,1.93,14.11,14.11,0,0,0-3.83,2.76,6.07,6.07,0,0,0-.75,1C128.08,39,127.77,38.5,127.45,38Z"/><path d="M74,104.27v3.07a1,1,0,0,0,0,.25c0,.16.07-.21,0,0l.27-.47c.35-.15.43-.21.26-.15h-.15l-.35.09-.6.16-1.3.34-2.6.69a1.06,1.06,0,1,0,.56,2h0L74.8,109c.55-.15,1.08-.38,1.23-1a5.83,5.83,0,0,0,0-1.32v-2.46a1.07,1.07,0,0,0-2.13,0Z"/><path d="M74,98.87a25.12,25.12,0,0,0-.83-7.57,1.08,1.08,0,0,0-1.34-.73.85.85,0,0,0-.22.09c-2,1.09-4.09,2.09-6.21,3A1.06,1.06,0,0,0,65,95.12a1.1,1.1,0,0,0,1.45.38q3.18-1.35,6.21-3l-1.56-.64a23.26,23.26,0,0,1,.76,7,1.06,1.06,0,1,0,2.12,0Z"/><path class="cls-7" d="M49.37,124a35.53,35.53,0,0,0,19.9-7.13v-.3c-1.57-8.68-5-17.21-4.23-26l-.33-.06c-8-.91-15.81,2.9-23.86,3.57v.17a43.73,43.73,0,0,0,1,15.46A33,33,0,0,0,49,123.37"/><path d="M49.37,125.08a36.67,36.67,0,0,0,17.3-5.17,22.67,22.67,0,0,0,2.46-1.62c.79-.62,1.16-.73,1.21-1.56a11,11,0,0,0-.49-2.72c-.22-1.06-.47-2.12-.73-3.18-.55-2.27-1.14-4.53-1.66-6.81a44,44,0,0,1-1.35-13.43,1.07,1.07,0,0,0-.78-1c-3.85-.69-7.95,0-11.71.89-4.24.94-8.42,2.2-12.76,2.59a1.08,1.08,0,0,0-1.06,1c-.9,10.79,1.17,21.73,8.52,30,.9,1,2.4-.48,1.5-1.5-7-7.9-8.74-18.34-7.89-28.54l-1.07,1.06a86,86,0,0,0,12-2.36c3.78-.89,8-1.88,11.9-1.19l-.78-1a44.84,44.84,0,0,0,1.27,13.31c.49,2.21,1.06,4.39,1.6,6.59q.39,1.59.75,3.18a13.49,13.49,0,0,1,.61,3.21l.53-.92a35.05,35.05,0,0,1-19.37,7c-1.36.06-1.37,2.19,0,2.13Z"/><path d="M44.79,100.81a21.43,21.43,0,0,0,5.7,16.85c.94,1,2.44-.51,1.5-1.5a19.39,19.39,0,0,1-5.08-15.35C47.06,99.45,44.91,99.46,44.79,100.81Z"/><path d="M52.23,99.45c-.41,5.45,0,11.66,4.5,15.46,1,.88,2.54-.61,1.5-1.5-4-3.45-4.24-9-3.87-14,.1-1.36-2-1.35-2.13,0Z"/><path d="M59.17,98.39a39.42,39.42,0,0,0,1.77,14.71c.42,1.3,2.47.75,2.05-.56A37.69,37.69,0,0,1,61.3,98.39C61.39,97,59.3,97,59.17,98.39Z"/><path class="cls-2" d="M49.24,77a24.28,24.28,0,0,1-4,0,5.58,5.58,0,0,0-3.8,1,5.66,5.66,0,0,0-1.27,1.76,7.42,7.42,0,0,0-.92,4.68l.11.08c-.3-.12-.61.15-.82.4a12.91,12.91,0,0,0-2.27,4,6.06,6.06,0,0,0-.38,2.42A2.84,2.84,0,0,0,37,93.43a4.45,4.45,0,0,0,3,.35c.29-.22,9.51-1.26,16.79-3.39,4.38-1.28,8.23.43,8.26.2.07-.6,1.47-4.27,1.33-4.85a13,13,0,0,0-.74-2.26,3.63,3.63,0,0,0-.76-1.23,3.57,3.57,0,0,0-2.67-.77,12.35,12.35,0,0,1-2.85,0l.1-.21a3.19,3.19,0,0,0,.59-3.08,6.07,6.07,0,0,0-1-2.37A5,5,0,0,0,55.83,74a12.74,12.74,0,0,0-3.75.11,4,4,0,0,0-1.93.62,1.47,1.47,0,0,0-.55,1.79"/><path d="M49.24,75.89c-3,.36-6.45-.86-8.82,1.57a9.2,9.2,0,0,0-2.09,4.05c-.24.95-.65,3,.27,3.72l.75-1.81c-1.09,0-1.67.77-2.26,1.59a13.76,13.76,0,0,0-1.85,3.62c-.7,2.08-.63,4.77,1.59,5.9a5.23,5.23,0,0,0,3.17.31,2.6,2.6,0,0,0,.53-.14c-.35.07-.22.08-.13.06l.57-.11c1.52-.27,3.05-.49,4.58-.74,2.4-.4,4.79-.85,7.17-1.38,2.6-.59,5.2-1.62,7.9-1.55a14.13,14.13,0,0,1,2.89.38,5.63,5.63,0,0,0,1.52.31c1.28-.09,1.52-2.4,1.83-3.36a8.86,8.86,0,0,0,.59-2.37,7.7,7.7,0,0,0-1-3.17,3.76,3.76,0,0,0-2.55-2.19c-1.51-.38-3,.08-4.57-.12l.92,1.6a7.64,7.64,0,0,0,.89-1.87A6.29,6.29,0,0,0,61,77.53a5.65,5.65,0,0,0-3.37-4c-2.3-1-10.59-1-9,3.41.46,1.27,2.52.72,2-.57S53.3,75.14,54,75.11a5.76,5.76,0,0,1,3.45.71A4.21,4.21,0,0,1,59.06,79a2.42,2.42,0,0,1-.15,1.38c-.13.26-.37.43-.5.7a1.09,1.09,0,0,0,.45,1.47,1.14,1.14,0,0,0,.47.13c1.36.18,3.17-.47,4.41.18A4.44,4.44,0,0,1,65.32,86a9.88,9.88,0,0,1-.68,2.31c-.13.41-.27.81-.39,1.21a2,2,0,0,0-.14.47c0,.31-.3.39.17-.1l.75-.31h-.18a3.41,3.41,0,0,0-.55-.14q-1-.22-1.95-.36a14.59,14.59,0,0,0-5.39.24c-3.53.86-7,1.75-10.6,2.38-2.13.38-4.34.57-6.46,1.08-.13,0-.31.13-.42.15.51-.07-.65,0-.64,0a1.71,1.71,0,0,1-1.91-1.49,2.41,2.41,0,0,1,0-.38,7.07,7.07,0,0,1,.9-3c.18-.37,1.12-2.36,1.52-2.34.85,0,1.5-1.24.75-1.82,0,0,.17-1.13.19-1.23a8,8,0,0,1,.59-1.85,4.14,4.14,0,0,1,1.89-2.28c2-.9,4.39-.1,6.47-.35,1.34-.16,1.36-2.29,0-2.13Z"/><circle cx="84.57" cy="52.61" r="2.59"/><path d="M108,47.3l2.49-1.88a.78.78,0,0,0,.32-.42.71.71,0,0,0-.53-.85.69.69,0,0,0-.47.05l-2.49,1.88a.78.78,0,0,0-.32.42.71.71,0,0,0,.07.55.7.7,0,0,0,.42.33.63.63,0,0,0,.55-.08Z"/><circle cx="110.63" cy="52.38" r="2.59"/><path d="M93.85,58.26a5.42,5.42,0,0,1,1.91-.83,13.32,13.32,0,0,1,2.94-.51,24.06,24.06,0,0,1,4.41.08c-1.29,3.2-3.21,6.16-4,9.51h0A8,8,0,0,1,96.43,64a17.71,17.71,0,0,1-1.68-2.68,7,7,0,0,1-1-2.93"/><path d="M94.35,58.76a2.66,2.66,0,0,1,1-.45c.32-.1.63-.23,1-.32a12.49,12.49,0,0,1,1.91-.32,26.41,26.41,0,0,1,4.87,0l-.68-.9c-1.3,3.2-3.19,6.15-4,9.52l1.4.18c0-.47-.33-.6-.69-.83a5.54,5.54,0,0,1-1-.81A14.68,14.68,0,0,1,96.6,63a16.21,16.21,0,0,1-1.11-1.83,7.08,7.08,0,0,1-1-2.81c0-.9-1.47-.91-1.42,0a10.7,10.7,0,0,0,2.12,5.09,10.69,10.69,0,0,0,3.51,3.66l-.36-.61h0c.07.75,1.18,1,1.39.19.85-3.36,2.74-6.32,4-9.51.18-.46-.28-.86-.69-.9a27,27,0,0,0-5.24,0,10,10,0,0,0-2.17.4,6.34,6.34,0,0,0-2.35,1.06c-.69.59.31,1.59,1,1Z"/><line class="cls-8" x1="79.14" y1="61.84" x2="80.02" y2="60.5"/><line class="cls-8" x1="81.18" y1="61.77" x2="82.06" y2="60.43"/><line class="cls-8" x1="83.18" y1="61.77" x2="84.07" y2="60.43"/><line class="cls-8" x1="116.81" y1="60.96" x2="115.93" y2="59.62"/><line class="cls-8" x1="114.77" y1="60.89" x2="113.89" y2="59.55"/><line class="cls-8" x1="112.77" y1="60.89" x2="111.88" y2="59.55"/><path d="M83.72,45.53l2.68,1.76a.71.71,0,0,0,.72-1.22L84.44,44.3a.72.72,0,0,0-1,.24v0a.72.72,0,0,0,.23,1h0Z"/></g></g><g class="cls-9"><path class="cls-10" d="M161,135.37h15.57s-4.8,9.74-5.14,12,5.14,10.73,5.14,10.73H150.28a1.16,1.16,0,0,1-.67-.21,1.89,1.89,0,0,1-.56-.6,3.25,3.25,0,0,1-.38-.9,3.76,3.76,0,0,1-.13-1V146"/><path class="cls-10" d="M38.17,135.37H22.6s5.11,9.4,5.14,12S22.6,158.1,22.6,158.1H48.85a1.56,1.56,0,0,0,1.23-.81,3.32,3.32,0,0,0,.38-.89,4.73,4.73,0,0,0,.13-1.06V146"/><path class="cls-10" d="M161.09,115.71a3.76,3.76,0,0,0-.45-1.86,1.66,1.66,0,0,0-1.13-.88,432.54,432.54,0,0,0-62.19-3.88,413.74,413.74,0,0,0-57.57,4.06,1.68,1.68,0,0,0-1.13.88,3.86,3.86,0,0,0-.45,1.85v28.69a4.13,4.13,0,0,0,.15,1.11,3.25,3.25,0,0,0,.42.93,1.78,1.78,0,0,0,.62.57,1.11,1.11,0,0,0,.71.13,420.13,420.13,0,0,1,57.25-4,428.09,428.09,0,0,1,61.87,3.84,1.2,1.2,0,0,0,.72-.14,1.81,1.81,0,0,0,.62-.58,3.25,3.25,0,0,0,.42-.93,3.87,3.87,0,0,0,.14-1.12Z"/></g><path class="cls-11" d="M161,133.37h15.57s-4.8,9.74-5.14,12,5.14,10.73,5.14,10.73H150.28a1.16,1.16,0,0,1-.67-.21,1.89,1.89,0,0,1-.56-.6,3.25,3.25,0,0,1-.38-.9,3.76,3.76,0,0,1-.13-1V144"/><path class="cls-11" d="M38.17,133.37H22.6s5.11,9.4,5.14,12S22.6,156.1,22.6,156.1H48.85a1.56,1.56,0,0,0,1.23-.81,3.32,3.32,0,0,0,.38-.89,4.73,4.73,0,0,0,.13-1.06V144"/><path class="cls-11" d="M161.09,113.71a3.76,3.76,0,0,0-.45-1.86,1.66,1.66,0,0,0-1.13-.88,432.54,432.54,0,0,0-62.19-3.88,413.74,413.74,0,0,0-57.57,4.06,1.68,1.68,0,0,0-1.13.88,3.86,3.86,0,0,0-.45,1.85v28.69a4.13,4.13,0,0,0,.15,1.11,3.25,3.25,0,0,0,.42.93,1.78,1.78,0,0,0,.62.57,1.11,1.11,0,0,0,.71.13,420.13,420.13,0,0,1,57.25-4,428.09,428.09,0,0,1,61.87,3.84,1.2,1.2,0,0,0,.72-.14,1.81,1.81,0,0,0,.62-.58,3.25,3.25,0,0,0,.42-.93,3.87,3.87,0,0,0,.14-1.12Z"/><g class="cls-9"><path d="M179.41,96.68A6.34,6.34,0,0,1,173.9,103a5.78,5.78,0,0,1-.83,0H140.83c-.27,0-.55,0-.82,0a7.71,7.71,0,0,1,0-15.34,9.5,9.5,0,0,1,18.46-3.09,9.51,9.51,0,0,1,12.13,5.81c.05.14.1.29.14.43a6.35,6.35,0,0,1,8.67,5.82Z"/><path class="cls-12" d="M179.41,96.68A6.34,6.34,0,0,1,173.9,103a5.78,5.78,0,0,1-.83,0H140.83c-.27,0-.55,0-.82,0a7.71,7.71,0,0,1,0-15.34,9.5,9.5,0,0,1,18.46-3.09,9.51,9.51,0,0,1,12.13,5.81c.05.14.1.29.14.43a6.35,6.35,0,0,1,8.67,5.82Z"/></g><path class="cls-13" d="M179.41,94.68A6.34,6.34,0,0,1,173.9,101a5.78,5.78,0,0,1-.83,0H140.83c-.27,0-.55,0-.82,0a7.71,7.71,0,0,1,0-15.34,9.5,9.5,0,0,1,18.46-3.09,9.51,9.51,0,0,1,12.13,5.81c.05.14.1.29.14.43a6.35,6.35,0,0,1,8.67,5.82Z"/><path class="cls-12" d="M179.41,94.68A6.34,6.34,0,0,1,173.9,101a5.78,5.78,0,0,1-.83,0H140.83c-.27,0-.55,0-.82,0a7.71,7.71,0,0,1,0-15.34,9.5,9.5,0,0,1,18.46-3.09,9.51,9.51,0,0,1,12.13,5.81c.05.14.1.29.14.43a6.35,6.35,0,0,1,8.67,5.82Z"/><g class="cls-9"><path d="M57.74,59.72a5.58,5.58,0,0,1-4.86,5.53,4.45,4.45,0,0,1-.73,0H23.76a4.45,4.45,0,0,1-.73,0,6.79,6.79,0,0,1,0-13.51A8.37,8.37,0,0,1,39.29,49,8.4,8.4,0,0,1,50,54.16c0,.11.08.23.11.34a5.59,5.59,0,0,1,7.25,3.15,5.48,5.48,0,0,1,.39,2Z"/><path class="cls-12" d="M57.74,59.72a5.58,5.58,0,0,1-4.86,5.53,4.45,4.45,0,0,1-.73,0H23.76a4.45,4.45,0,0,1-.73,0,6.79,6.79,0,0,1,0-13.51A8.37,8.37,0,0,1,39.29,49,8.4,8.4,0,0,1,50,54.16c0,.11.08.23.11.34a5.59,5.59,0,0,1,7.25,3.15,5.48,5.48,0,0,1,.39,2Z"/></g><path class="cls-13" d="M57.74,57.72a5.58,5.58,0,0,1-4.86,5.53,4.45,4.45,0,0,1-.73,0H23.76a4.45,4.45,0,0,1-.73,0,6.79,6.79,0,0,1,0-13.51A8.37,8.37,0,0,1,39.29,47,8.4,8.4,0,0,1,50,52.16c0,.11.08.23.11.34a5.59,5.59,0,0,1,7.25,3.15,5.48,5.48,0,0,1,.39,2Z"/><path class="cls-12" d="M57.74,57.72a5.58,5.58,0,0,1-4.86,5.53,4.45,4.45,0,0,1-.73,0H23.76a4.45,4.45,0,0,1-.73,0,6.79,6.79,0,0,1,0-13.51A8.37,8.37,0,0,1,39.29,47,8.4,8.4,0,0,1,50,52.16c0,.11.08.23.11.34a5.59,5.59,0,0,1,7.25,3.15,5.48,5.48,0,0,1,.39,2Z"/><g class="cls-14"><path d="M63.22,129a.34.34,0,0,1,0-.48c.06-3.79,0-7.36-.18-10.09a8,8,0,0,1,3,.28.89.89,0,0,1,.44.38h2.73l.86-.8c.78.21,1.62,1.22,1.42,1.55H66.31l0,8.49c2.07-.18,4.69-.56,6.54-.86v-9.91a9.24,9.24,0,0,1,2.7.36c.28.09.52.3.51.48s-.18.37-.26.67l-.07,5.52.06,5.69c0,1-.71,1.24-2,1.36-.63.06-.93,0-.93-.37V128a54.93,54.93,0,0,1-7.29,2.34,2.08,2.08,0,0,1-.52.28.59.59,0,0,1-.57-.18A10.24,10.24,0,0,1,63.22,129Z"/><path d="M82.73,122.22c0-2.91,1.65-4.22,4.12-4.22S91,119.31,91,122.22v1.39h.58l1.31,0v-6a9.24,9.24,0,0,1,2.7.36c.28.09.52.3.51.48s-.18.37-.26.67l-.07,5.52.06,5.69c0,1-.71,1.24-2,1.36-.63.06-.93,0-.93-.37v-6.81l-1,0-.88.08v2.33c0,2.9-1.65,4.21-4.13,4.21s-4.12-1.31-4.12-4.21Zm3,4.83c0,2.09.24,3,1.15,3s1.16-.89,1.16-3v-5c0-2.12-.24-3-1.16-3s-1.15.87-1.15,3Z"/><path d="M108.06,118a7.51,7.51,0,0,1,2.85.46.47.47,0,0,1,.27.48,3.28,3.28,0,0,1-.21.56l0,5.08,0,5.13c0,.78-.56,1.14-1.7,1.31-.81.12-1.2-.08-1.2-.4V130h-2.23c0,.5-.56.82-1.46,1a2.5,2.5,0,0,1-1.29,0c-.21-.09-.28-.22-.28-.73l0-5.9-.09-6.12c.64-.1,2.65,0,3.09.51V123h2.23v-3.42Zm-2.2,11.26h2.23V123.7h-2.23Zm6.87-11.74a9.24,9.24,0,0,1,2.7.36c.28.09.52.3.51.48s-.18.37-.26.67l-.07,5.52.06,5.69c0,1-.71,1.24-2,1.36-.63.06-.93,0-.93-.37Z"/><path d="M122.63,122.22c0-2.91,1.65-4.22,4.12-4.22s4.13,1.31,4.13,4.22v1.39h.58l1.31,0v-6a9.24,9.24,0,0,1,2.7.36c.28.09.52.3.51.48s-.18.37-.26.67l-.07,5.52.06,5.69c0,1-.71,1.24-2,1.36-.63.06-.93,0-.93-.37v-6.81l-1,0-.88.08v2.33c0,2.9-1.65,4.21-4.13,4.21s-4.12-1.31-4.12-4.21Zm3,4.83c0,2.09.24,3,1.15,3s1.16-.89,1.16-3v-5c0-2.12-.24-3-1.16-3s-1.15.87-1.15,3Z"/></g></g><path class="cls-15" d="M160.17,144.85l-11.33,10-.16-1.66a20.26,20.26,0,0,1-.14-2.91V144l10.94,1.14"/><path class="cls-15" d="M39,144.9l11.33,9.95.15-1.66a17.69,17.69,0,0,0,.15-2.91V144l-11,1.1"/><g class="cls-9"><rect y="232.84" width="190.32" height="30.92" rx="5"/></g><rect class="cls-16" y="230.84" width="190.32" height="30.92" rx="5"/><path d="M15.49,238c5,0,9,3.14,9,7s-4,7-9,7A9.27,9.27,0,0,1,14,252l-3.78,2.48c-.43.22-.58.2-.4-.36l.76-3.15a6.8,6.8,0,0,1-4.1-5.89C6.49,241.17,10.52,238,15.49,238Zm5.07,6.91,1.26-1.22a.41.41,0,0,0,.11-.28.43.43,0,0,0-.11-.28.4.4,0,0,0-.56,0l-1.66,1.6v-1.32a.42.42,0,0,0-.4-.41.41.41,0,0,0-.41.41h0v2.19a.61.61,0,0,0,0,.19V247a.42.42,0,0,0,.12.28.4.4,0,0,0,.29.12.41.41,0,0,0,.4-.4v-1.17l.37-.36,1.22,1.75a.29.29,0,0,0,.12.1.39.39,0,0,0,.15.06h.15a.26.26,0,0,0,.15-.07.57.57,0,0,0,.11-.11.27.27,0,0,0,.05-.15.43.43,0,0,0,0-.16.35.35,0,0,0-.06-.14l-1.3-1.85ZM18,246.59H16.77v-3.16a.4.4,0,0,0-.12-.27.5.5,0,0,0-.28-.12.36.36,0,0,0-.28.12.41.41,0,0,0-.13.27V247a.4.4,0,0,0,.4.4H18a.42.42,0,0,0,.41-.4.41.41,0,0,0-.41-.41Zm-5-.93.6-1.47.54,1.47Zm1.16-2.27a.56.56,0,0,0-.21-.29.55.55,0,0,0-.33-.12.67.67,0,0,0-.34.1.6.6,0,0,0-.22.28l-1.42,3.5a.38.38,0,0,0,0,.15.43.43,0,0,0,0,.16.38.38,0,0,0,.09.13.26.26,0,0,0,.13.08.19.19,0,0,0,.15,0h.16a.38.38,0,0,0,.13-.09.3.3,0,0,0,.09-.13l.28-.69h1.77l.26.68a.64.64,0,0,0,.08.14l.13.1h.32a.57.57,0,0,0,.13-.08.42.42,0,0,0,.09-.14.38.38,0,0,0,0-.15.43.43,0,0,0,0-.16Zm-1.85.05a.44.44,0,0,0-.11-.29.4.4,0,0,0-.29-.12H9.13a.4.4,0,0,0-.29.12.45.45,0,0,0-.12.29.42.42,0,0,0,.12.28.4.4,0,0,0,.29.12h1V247a.41.41,0,0,0,.41.41h0a.36.36,0,0,0,.28-.12.4.4,0,0,0,.12-.29v-3.2h1a.4.4,0,0,0,.29-.12.43.43,0,0,0,.11-.28Z"/><line class="cls-17" x1="29.28" y1="236.42" x2="29.28" y2="256.2"/><text class="cls-18" transform="translate(62.84 249.95)">카카오 계정 로그인</text><g class="cls-9"><rect x="1.16" y="192.61" width="190.32" height="30.92" rx="5"/></g><rect class="cls-2" x="1.16" y="190.61" width="190.32" height="30.92" rx="5"/><line class="cls-17" x1="29.28" y1="196.18" x2="29.28" y2="215.96"/><text class="cls-18" transform="translate(61.68 209.71)">Google 계정 로그인</text><path class="cls-19" d="M23.69,205.05H15.5v3.35h4.72a5,5,0,1,1-3-6.39,5.23,5.23,0,0,1,1.64,1l2.37-2.36a8.35,8.35,0,1,0,2.66,6.11A8.62,8.62,0,0,0,23.69,205.05Z"/><path class="cls-20" d="M8.11,202.8l2.74,2A5,5,0,0,1,17.34,202a4.92,4.92,0,0,1,1.51.94l2.37-2.36A8.32,8.32,0,0,0,8.11,202.8Z"/><path class="cls-21" d="M15.5,215a8.29,8.29,0,0,0,5.6-2.17l-2.59-2.19a5,5,0,0,1-7.71-2.32l-2.73,2.1A8.36,8.36,0,0,0,15.5,215Z"/><path class="cls-22" d="M23.69,205.05H15.5v3.35h4.72a5,5,0,0,1-1.71,2.32h0l2.59,2.19a8.08,8.08,0,0,0,2.75-6.18A8.62,8.62,0,0,0,23.69,205.05Z"/><g class="cls-9"><rect x="0.58" y="285.37" width="190.32" height="30.92" rx="5"/></g><rect class="cls-2" x="0.58" y="283.37" width="190.32" height="30.92" rx="5"/><line class="cls-17" x1="29.28" y1="287.38" x2="29.28" y2="307.16"/><text class="cls-18" transform="translate(80.7 302.47)">회원가입</text><path d="M22,304.27a8.5,8.5,0,0,0-3.66-13.44,8.25,8.25,0,0,0-4-.43A8.5,8.5,0,0,0,9,304.27H9l.14.14.17.18a6.5,6.5,0,0,0,.52.53l.17.15c.2.17.4.33.61.48l.07.06h0a8.47,8.47,0,0,0,9.73,0h0l.08-.06a7,7,0,0,0,.6-.48l.17-.15a4.42,4.42,0,0,0,.53-.53l.17-.18.14-.14ZM15.5,294a2.73,2.73,0,0,1,2.73,2.73,2.47,2.47,0,0,1-.05.54A2.74,2.74,0,0,1,16,299.39a2.74,2.74,0,0,1-1.35-5.31A2.7,2.7,0,0,1,15.5,294Zm-4.86,10.3a3,3,0,0,1,3-3h3.65a3.05,3.05,0,0,1,2.14.87,3.1,3.1,0,0,1,.9,2.13,7.28,7.28,0,0,1-9.72,0Z"/><text class="cls-23" transform="translate(92.87 274.35)">or</text><line class="cls-24" x1="33.26" y1="273.07" x2="90.63" y2="273.07"/><line class="cls-24" x1="101.31" y1="273.07" x2="158.68" y2="273.07"/></g><g id="eff."><path class="cls-2" d="M103.45,56.79a2.1,2.1,0,0,1,1.45,1.11,1.46,1.46,0,0,1,.2.5.59.59,0,0,1-.66.74,2,2,0,0,1-.59-.15c-.14-.06-.3-.14-.29-.29h-.1a1.44,1.44,0,0,1-.85-.28,4,4,0,0,1-.68-.61.26.26,0,0,1-.09-.14h0a3.62,3.62,0,0,1-1.87.26,6.94,6.94,0,0,1-1.84-.48H98a3.5,3.5,0,0,1-1.62.78,10.85,10.85,0,0,1-1.4-.1h0a3.92,3.92,0,0,0-.55.6,1.37,1.37,0,0,1-.66.45,4.71,4.71,0,0,1-.92,0h0a.83.83,0,0,1-.46.14.81.81,0,0,1-.48-.31v-.08a.24.24,0,0,1,0-.12,2.47,2.47,0,0,1,.64-1.12h0a1,1,0,0,1-.24-1.06,1.66,1.66,0,0,1,1-1.14,3.34,3.34,0,0,1,2,.14v-.05A3.23,3.23,0,0,1,97,54.48a4,4,0,0,1,2.36.51h1.52A6.09,6.09,0,0,1,102,55a2,2,0,0,1,1.06.51,1.26,1.26,0,0,1,.37,1.09"/><path d="M103.35,57.13a1.8,1.8,0,0,1,1.19.86c.21.34.06.88-.4.72-.2-.06-.2-.16-.33-.26s-.53-.13-.82-.26a2,2,0,0,1-.65-.51c-.06-.06-.21-.3-.32-.35-.3-.14-.58.07-.87.14a4,4,0,0,1-1.82,0,7.6,7.6,0,0,0-1.23-.38c-.3,0-.53.26-.76.4a2.55,2.55,0,0,1-1.68.39c-.33,0-.67-.15-1,0s-.44.56-.72.76a1.5,1.5,0,0,1-1,.19h-.41c-1-.14.09-.68.16-1.08s-.24-.47-.27-.8a1.27,1.27,0,0,1,.73-1.15,2.7,2.7,0,0,1,1.88.1.36.36,0,0,0,.4-.16,2.78,2.78,0,0,1,1.49-1c.88-.18,1.5.4,2.3.53,1,.16,3.91-.6,3.75,1.28a.36.36,0,0,0,.71,0,1.83,1.83,0,0,0-1.31-1.84c-1-.34-2,0-3-.14-.4-.07-.8-.34-1.21-.45a3.06,3.06,0,0,0-1.38-.06,3.48,3.48,0,0,0-1.92,1.31l.4-.16c-1.07-.3-2.28-.47-3.07.5a1.83,1.83,0,0,0-.42,1.42,1.6,1.6,0,0,0,.22.56s.09-.16,0-.06a1.39,1.39,0,0,0-.31.45c-.19.35-.36.75-.1,1.1a1,1,0,0,0,1.16.37c.08,0,.15-.11.23-.11s.29.09.41.09a1.53,1.53,0,0,0,.7-.13,4.06,4.06,0,0,0,1.17-1.13l-.3.17a4.53,4.53,0,0,0,2.25-.15c.27-.12.74-.54,1-.53s.8.23,1.19.37a4.51,4.51,0,0,0,1.16.09c.4,0,.77-.17,1.15-.2,0,0-.14-.16.08,0a4.47,4.47,0,0,0,.45.42,2,2,0,0,0,.93.46c.3,0,0-.1.21.1a1.69,1.69,0,0,0,.79.37,1,1,0,0,0,1.24-.5c.47-1.07-.89-2.33-1.84-2.51-.45-.08-.64.6-.19.69Z"/></g></g></g></g></svg>