<svg xmlns="http://www.w3.org/2000/svg" viewBox="0 0 191.49 316.3">
    <defs>
        <style>
            .cls-1,
            .cls-10 {
                fill: #ffc200;
            }

            .cls-1,
            .cls-10,
            .cls-14,
            .cls-23 {
                stroke: #231815;
            }

            .cls-1,
            .cls-10,
            .cls-11,
            .cls-5,
            .cls-9 {
                stroke-miterlimit: 10;
            }

            .cls-1,
            .cls-11 {
                stroke-width: 1.98px;
            }

            .cls-14,
            .cls-2,
            .cls-3 {
                fill: #fff;
            }

            .cls-11,
            .cls-16,
            .cls-3,
            .cls-7,
            .cls-9 {
                stroke: #000;
            }

            .cls-14,
            .cls-16,
            .cls-23,
            .cls-3,
            .cls-7 {
                stroke-linecap: round;
                stroke-linejoin: round;
            }

            .cls-3 {
                stroke-width: 1.56px;
            }

            .cls-4 {
                fill: #914500;
            }

            .cls-5 {
                fill: #ff2948;
                stroke: #040000;
            }

            .cls-5,
            .cls-7 {
                stroke-width: 0.43px;
            }

            .cls-6 {
                fill: #ffb000;
            }

            .cls-11,
            .cls-16,
            .cls-23,
            .cls-7 {
                fill: none;
            }

            .cls-16,
            .cls-8 {
                opacity: 0.25;
            }

            .cls-10,
            .cls-14,
            .cls-9 {
                stroke-width: 1.7px;
            }

            .cls-12 {
                fill: #f6f6f6;
            }

            .cls-13 {
                font-size: 15px;
                font-family: SDGdMyeongjo-KSCpc-EUC-H, Sandoll GyeokdongMyeongjo;
            }

            .cls-15 {
                fill: #f9e000;
            }

            .cls-16 {
                stroke-width: 0.85px;
            }

            .cls-17 {
                font-size: 8px;
            }

            .cls-17,
            .cls-22 {
                font-family: NanumGothicBold, NanumGothic;
            }

            .cls-18 {
                fill: #ffc107;
            }

            .cls-19 {
                fill: #ff3d00;
            }

            .cls-20 {
                fill: #4caf50;
            }

            .cls-21 {
                fill: #1976d2;
            }

            .cls-22 {
                font-size: 6px;
            }
        </style>
    </defs>
    <g id="레이어_2" data-name="레이어 2">
        <g id="화면_1" data-name="화면 1">
            <g id="로고2">
                <circle class="cls-1" cx="98.45" cy="99.45" r="41.4" transform="translate(-41.49 98.75) rotate(-45)" />
                <g id="맥주_스티커_본체" data-name="맥주 스티커 본체">
                    <g id="맥주들고_있는거" data-name="맥주들고 있는거">
                        <path class="cls-2"
                            d="M115.7,108.68a3.14,3.14,0,0,0,4,.67,2.22,2.22,0,0,0,.81-.8,2.86,2.86,0,0,0,.29-1.11A22.46,22.46,0,0,0,119,96.35a65,65,0,0,0-5.54-10H85.85A65.51,65.51,0,0,0,76,92.09a22.55,22.55,0,0,0-7.27,8.58,3,3,0,0,0-.31,1.1,2.15,2.15,0,0,0,.28,1.1,3.17,3.17,0,0,0,3.78,1.49l.39-.17,1.5-.92a1.54,1.54,0,0,0,.58-.49,1.35,1.35,0,0,0,.16-.71,4.09,4.09,0,0,0-1.53-3.19l1.67,2a18.11,18.11,0,0,0,9.39-1.79l2.07-4.22a33,33,0,0,0-2.06,5.65,29.76,29.76,0,0,0-.58,5.65,19.94,19.94,0,0,0,.31,5.29,12.81,12.81,0,0,0,6.44,8l0,0a1.58,1.58,0,0,0-.82.32,3.67,3.67,0,0,0-1,.9,1.45,1.45,0,0,0-.24,1.28,2,2,0,0,0,1.44,1,4.2,4.2,0,0,0,1.37.13,5.34,5.34,0,0,0,1.41-.32,10.88,10.88,0,0,0,2.09-1h.07a14.41,14.41,0,0,1-.42-3.45,7.94,7.94,0,0,1,.23-2.06,11.11,11.11,0,0,1,1.53-3l.73-1.12,3.53,0a3.92,3.92,0,0,0,.76,1.38,10.94,10.94,0,0,1,1.6,5.2,3.47,3.47,0,0,1-.42,2.5l0,.12a4.17,4.17,0,0,0,3.54,1.87,7.53,7.53,0,0,0,3.38-.59.7.7,0,0,0,.54-.79,2.55,2.55,0,0,0-.17-1.29,1.42,1.42,0,0,0-1.25-.73h-.3a12.77,12.77,0,0,0,6.45-8,19.94,19.94,0,0,0,.31-5.29,29.65,29.65,0,0,0-.58-5.64,33.06,33.06,0,0,0-2.06-5.66" />
                        <path
                            d="M115,109.44a4.24,4.24,0,0,0,5,1c2.25-1.14,2.12-4,2-6.14-.3-5.33-2.61-10.25-5.3-14.76-.66-1.11-1.34-2.22-2.05-3.31-.35-.53-.57-.84-1.23-.91a10.59,10.59,0,0,0-1.26,0H89.35a27.25,27.25,0,0,0-3.5,0,9.77,9.77,0,0,0-2.79,1.28c-1.28.67-2.56,1.35-3.81,2.09A37.19,37.19,0,0,0,73.17,93c-2.67,2.39-8.93,9-3.83,12,2,1.17,4,.3,5.7-.94,2.08-1.5.87-4.55-.74-6a1.06,1.06,0,0,0-1.5,1.5c.61.73,1.32,2,2.28,2.28a11.7,11.7,0,0,0,3.87-.07,19.37,19.37,0,0,0,3.92-.89c.83-.29,2.15-.6,2.67-1.35a9.4,9.4,0,0,0,.56-1.15l1.5-3-1.84-1.08a29.6,29.6,0,0,0-2.46,7.54,33.48,33.48,0,0,0-.27,8.06,13.77,13.77,0,0,0,7.23,10.46,1.07,1.07,0,0,0,1.29-1.67c-.8-.91-2.26.08-2.93.67a2.63,2.63,0,0,0-.73,3.33,4.1,4.1,0,0,0,3.59,1.42,6.37,6.37,0,0,0,1.87-.44c.33-.12.65-.25,1-.4.11-.05,1.07-.55.73-.51a1.08,1.08,0,0,0,1-1.34,10.89,10.89,0,0,1-.24-4.75,13.19,13.19,0,0,1,2.2-4.07l-.92.53,3.53,0-1-.78c.42,1.33,1.43,2.33,1.83,3.7A8.62,8.62,0,0,1,102,120c-.13.52-.5.88-.39,1.45a2.21,2.21,0,0,0,.48.89,5,5,0,0,0,2.77,1.69c1.63.4,5.39.44,6.17-1.46a2.77,2.77,0,0,0-2.63-3.87l.54,2a13.72,13.72,0,0,0,7.22-10.46,33,33,0,0,0-.23-7.82,28.8,28.8,0,0,0-2.5-7.77c-.54-1.26-2.37-.17-1.83,1.07a26.28,26.28,0,0,1,2.21,6.8,36.38,36.38,0,0,1,.3,6.84,11.58,11.58,0,0,1-6.24,9.51,1.07,1.07,0,0,0,.53,2c.41,0,1,.51.66,1,.07-.09-1,.18-1,.17a6.26,6.26,0,0,1-1.22.15c-.79,0-3-.15-3.19-1.22l-.11.82c.91-1.45.61-3.16.34-4.76a11.33,11.33,0,0,0-.71-2.48c-.38-.92-1.16-1.72-1.45-2.65a1.11,1.11,0,0,0-1-.78l-2.2,0a3.76,3.76,0,0,0-1.86.13c-.46.26-.72.88-1,1.31a21.38,21.38,0,0,0-1.11,1.84c-1.22,2.41-1,5.12-.45,7.68l1-1.34c-1.09.14-2,1-3.14,1.26-.48.11-1.65.26-2-.19s.51-1.2,1.09-1.29l-1-.28,0,0,1.29-1.67a11.55,11.55,0,0,1-6.24-9.5,36.48,36.48,0,0,1,.29-6.85A26.75,26.75,0,0,1,87.6,95.4c.53-1.23-1.23-2.33-1.84-1.08a35.88,35.88,0,0,1-1.9,3.89c-.35.53.17,0-.73.38a17.35,17.35,0,0,1-7.91,1.21l.75.31-1.67-2-1.5,1.5a3.06,3.06,0,0,1,1.19,2c0,.83-.83,1.24-1.53,1.59-1.13.57-3.09,0-3-1.54.07-1.23,1.49-3,2.21-3.94a22.72,22.72,0,0,1,3.46-3.61,46.81,46.81,0,0,1,9.2-5.81c1.27-.65,1.26-.89,2.51-.89h26.58l-.91-.52c2.43,3.83,4.9,7.73,6.28,12.09a21.11,21.11,0,0,1,1.06,6.64c0,1,.14,2.49-1,3a2.12,2.12,0,0,1-2.4-.66c-.89-1-2.39.47-1.5,1.51Z" />
                        <path class="cls-3"
                            d="M105.59,87.91c2.19,0,14-1.13,21.86-9.18,10.39-10.68,6.21-25.9,5.54-28.32-.19-.72-4.91-16.8-21.18-22.65a34.89,34.89,0,0,0-21.19-.59c-2.85.8-14.57,4.45-21.18,16.21-1.12,2-9.73,17.92-.4,31.84,8,12,22.77,12.65,24.35,12.69" />
                        <path class="cls-4"
                            d="M78.7,32.37a7.78,7.78,0,0,1-1-2.42,25.41,25.41,0,0,1-.87-8.72l-.08,0a11.83,11.83,0,0,1-4.95-.21,10.65,10.65,0,0,1-1.85-.55A9.28,9.28,0,0,1,67.56,19v-.16A4.82,4.82,0,0,1,68.67,14a.32.32,0,0,1,.27-.13l0,0a13.65,13.65,0,0,0,4.34,1.27,31.35,31.35,0,0,0,4.54.19v0a52.42,52.42,0,0,1,1.73-7.56,17.72,17.72,0,0,1,3.83-6.67l0-.07A1.65,1.65,0,0,1,84.71.72a3.22,3.22,0,0,1,1.21.44,6,6,0,0,1,1.79,1.61,1.18,1.18,0,0,1,.3.72l-.07.22a31.68,31.68,0,0,0-3.37,7.42,35.29,35.29,0,0,0-1.81,9,20.7,20.7,0,0,0,1.4,9" />
                        <path
                            d="M79.31,32c-1.91-3-2-7.37-1.81-10.78a.72.72,0,0,0-.9-.68,7.72,7.72,0,0,1-3.76,0A9.48,9.48,0,0,1,69,19.22a5.47,5.47,0,0,0-.72-.4c-.07-.09.09.19-.09-.19a3.41,3.41,0,0,1-.13-1.9,3.77,3.77,0,0,1,1.39-2.37l-.86.11A20.12,20.12,0,0,0,77.87,16l-.68-.52v0a.72.72,0,0,0,1.37,0c.68-3.8,1.37-7.72,3.32-11.12a16.12,16.12,0,0,1,1.78-2.49c.57-.65,1.08-.59,1.9-.14A5.3,5.3,0,0,1,87,3c.44.53.23.61-.11,1.17A28.16,28.16,0,0,0,85.5,6.74c-3.12,6.89-4.92,15.29-2,22.54.34.84,1.71.47,1.37-.38-1.87-4.66-1.68-9.69-.48-14.5a41.05,41.05,0,0,1,2.26-6.74,35,35,0,0,1,1.68-3.21,1.53,1.53,0,0,0,.26-1.61A5.1,5.1,0,0,0,84.39,0C82.93.06,82,1.57,81.3,2.65c-2.5,3.7-3.34,8.18-4.11,12.5h1.37v0a.72.72,0,0,0-.69-.52c-2.91,0-5.85-.08-8.52-1.36a.74.74,0,0,0-.86.11c.33-.29-.25.11-.32.17a4,4,0,0,0-.58.71,5.65,5.65,0,0,0-.89,2.2c-.2,1.19-.16,2.65.83,3.42a10,10,0,0,0,4.49,2c1.5.3,3.48.67,5,.1l-.9-.69c-.24,3.65,0,8.33,2,11.5.49.76,1.72.05,1.22-.72Z" />
                        <path class="cls-4"
                            d="M122.25,32.94a7.63,7.63,0,0,0,1-2.41,25.66,25.66,0,0,0,.87-8.72l.07,0a11.88,11.88,0,0,0,5-.21,10.91,10.91,0,0,0,1.85-.55,9.5,9.5,0,0,0,2.35-1.53v-.16a4.85,4.85,0,0,0-1.13-4.79c-.07-.07-.16-.15-.26-.12l0-.05a13.38,13.38,0,0,1-4.35,1.27,29.81,29.81,0,0,1-4.53.19v0a51.31,51.31,0,0,0-1.74-7.55,17.68,17.68,0,0,0-3.82-6.68l-.05-.07a1.65,1.65,0,0,0-1.22-.31,3,3,0,0,0-1.21.44,6,6,0,0,0-1.8,1.61,1.29,1.29,0,0,0-.3.72l.07.22a30.81,30.81,0,0,1,3.37,7.41,35.39,35.39,0,0,1,1.82,9,20.6,20.6,0,0,1-1.41,9" />
                        <path
                            d="M122.86,33.3c2-3.17,2.24-7.84,2-11.49l-.9.68c1.47.58,3.46.2,5-.09a10,10,0,0,0,4.49-2c1-.77,1-2.22.82-3.41a5.53,5.53,0,0,0-.88-2.21,4.45,4.45,0,0,0-.59-.71c-.06-.06-.65-.46-.31-.17a.76.76,0,0,0-.86-.11c-2.67,1.28-5.61,1.4-8.52,1.36a.73.73,0,0,0-.69.52v0h1.36c-.77-4.31-1.6-8.8-4.1-12.49-.73-1.08-1.63-2.6-3.09-2.65a5.09,5.09,0,0,0-4.18,2.84A1.55,1.55,0,0,0,112.63,5a33.78,33.78,0,0,1,1.69,3.21A41.69,41.69,0,0,1,116.58,15c1.2,4.8,1.38,9.84-.48,14.5-.34.85,1,1.21,1.37.38,2.9-7.26,1.09-15.66-2-22.55a25.85,25.85,0,0,0-1.36-2.61c-.34-.57-.58-.59-.1-1.17a5.08,5.08,0,0,1,1.23-1.08c.91-.55,1.44-.68,2.06,0A15.36,15.36,0,0,1,119,4.81c2,3.43,2.73,7.42,3.42,11.29a.71.71,0,0,0,1.36,0v0l-.68.52a20.41,20.41,0,0,0,9.24-1.55l-.86-.11A3.74,3.74,0,0,1,132.81,17a3.85,3.85,0,0,1-.1,2.18c0,.06,0,.21,0,.26.17-.24-.61.21-.78.32a9.34,9.34,0,0,1-3.58,1.29,8.17,8.17,0,0,1-4,.05.7.7,0,0,0-.89.68c.22,3.41.09,7.81-1.81,10.78-.5.77.73,1.48,1.22.71Z" />
                        <ellipse class="cls-5" cx="81.84" cy="61.17" rx="4.91" ry="2.05"
                            transform="translate(-4.63 6.74) rotate(-4.59)" />
                        <ellipse class="cls-5" cx="114.11" cy="60.29" rx="2.05" ry="4.91"
                            transform="translate(44.88 169.21) rotate(-85.41)" />
                        <path class="cls-2"
                            d="M74.1,36.34a14.4,14.4,0,0,0-7.25-5.18c-3.78-1.08-7.38,0-11,1.25a1.17,1.17,0,0,0-.27.15.94.94,0,0,0-.83.83,19.16,19.16,0,0,0,2.74,12c1.86,3.08,4.75,6,8.27,7a.93.93,0,0,0,1.12-.63c.49-1.4,1-2.8,1.48-4.2.11-.34.24-.68.37-1l.06-.19s0-.06,0-.09c.23-.46.49-1,.74-1.44.6-1.16,1.25-2.31,1.83-3.52l0,0a23.93,23.93,0,0,0,2.82-3.92A.91.91,0,0,0,74.1,36.34Z" />
                        <path
                            d="M74.1,36.34a14.4,14.4,0,0,0-7.25-5.18c-3.78-1.08-7.38,0-11,1.25a1.17,1.17,0,0,0-.27.15.94.94,0,0,0-.83.83,19.16,19.16,0,0,0,2.74,12c1.86,3.08,4.75,6,8.27,7a.93.93,0,0,0,1.12-.63c.49-1.4,1-2.8,1.48-4.2.11-.34.24-.68.37-1l.06-.19s0-.06,0-.09c.23-.46.49-1,.74-1.44.6-1.16,1.25-2.31,1.83-3.52l0,0a23.93,23.93,0,0,0,2.82-3.92A.91.91,0,0,0,74.1,36.34Zm-6.85,9.2a49.23,49.23,0,0,0-1.76,4.9,14.38,14.38,0,0,1-6.57-6.17A17.88,17.88,0,0,1,56.5,34.21c1,.09,2.12,0,3.14.13a20.78,20.78,0,0,1,4,1,18.79,18.79,0,0,1,3.79,1.93A5.47,5.47,0,0,1,70,40.07C69.09,41.87,68.08,43.69,67.25,45.54Zm4.11-7a5.89,5.89,0,0,0-.74-1,14.19,14.19,0,0,0-3.84-2.75,20.54,20.54,0,0,0-5.19-1.93,5.4,5.4,0,0,0-.58-.11,11.41,11.41,0,0,1,5.35.13,12.37,12.37,0,0,1,6,4.16C72,37.56,71.72,38.07,71.36,38.56Z" />
                        <path class="cls-2"
                            d="M125.56,38.37a23.93,23.93,0,0,0,2.82,3.92l0,0c.57,1.21,1.23,2.36,1.83,3.52.25.47.5,1,.74,1.45,0,0,0,0,0,.08l.06.19c.13.34.26.68.36,1,.51,1.4,1,2.8,1.49,4.2a.93.93,0,0,0,1.12.64c3.52-1.06,6.41-4,8.27-7a19.26,19.26,0,0,0,2.74-12,1,1,0,0,0-.83-.83,1.73,1.73,0,0,0-.27-.15c-3.59-1.29-7.19-2.33-11-1.25a14.4,14.4,0,0,0-7.25,5.18A.89.89,0,0,0,125.56,38.37Z" />
                        <path
                            d="M125.56,38.37a23.93,23.93,0,0,0,2.82,3.92l0,0c.57,1.21,1.23,2.36,1.83,3.52.25.47.5,1,.74,1.45,0,0,0,0,0,.08l.06.19c.13.34.26.68.36,1,.51,1.4,1,2.8,1.49,4.2a.93.93,0,0,0,1.12.64c3.52-1.06,6.41-4,8.27-7a19.26,19.26,0,0,0,2.74-12,1,1,0,0,0-.83-.83,1.73,1.73,0,0,0-.27-.15c-3.59-1.29-7.19-2.33-11-1.25a14.4,14.4,0,0,0-7.25,5.18A.89.89,0,0,0,125.56,38.37ZM129.8,41a5.47,5.47,0,0,1,2.55-2.76,18.53,18.53,0,0,1,3.79-1.93,22.11,22.11,0,0,1,4-1c1-.14,2.1,0,3.14-.12a17.87,17.87,0,0,1-2.42,10.05,14.33,14.33,0,0,1-6.57,6.17,50.16,50.16,0,0,0-1.76-4.9C131.73,44.63,130.71,42.8,129.8,41Zm-2.35-3a12.37,12.37,0,0,1,6-4.16,11.5,11.5,0,0,1,5.34-.13l-.57.11a20.76,20.76,0,0,0-5.2,1.93,14.11,14.11,0,0,0-3.83,2.76,6,6,0,0,0-.75,1C128.08,39,127.77,38.5,127.45,38Z" />
                        <path
                            d="M74,104.27v3.07a1,1,0,0,0,0,.25c0,.16.07-.21,0,0l.27-.47c.35-.15.43-.21.26-.15l-.15,0-.35.09-.6.16-1.3.34-2.6.69a1.06,1.06,0,0,0,.56,2.05L74.8,109c.55-.15,1.08-.38,1.23-1a5.31,5.31,0,0,0,0-1.32v-2.46a1.07,1.07,0,0,0-2.13,0Z" />
                        <path
                            d="M74,98.87a25.4,25.4,0,0,0-.83-7.57,1.08,1.08,0,0,0-1.56-.64c-2,1.09-4.09,2.09-6.21,3a1.07,1.07,0,0,0-.38,1.46,1.1,1.1,0,0,0,1.45.38q3.18-1.35,6.21-3l-1.56-.64a23.33,23.33,0,0,1,.76,7,1.06,1.06,0,0,0,2.12,0Z" />
                        <path class="cls-6"
                            d="M49.37,124a35.51,35.51,0,0,0,19.9-7.13v-.3c-1.57-8.68-5-17.21-4.23-26l-.33-.06c-8-.91-15.81,2.9-23.86,3.57v.17a43.7,43.7,0,0,0,1,15.46,33,33,0,0,0,7.18,13.66" />
                        <path
                            d="M49.37,125.08a37,37,0,0,0,11.76-2.46,36.42,36.42,0,0,0,5.54-2.71c.84-.5,1.67-1,2.46-1.62s1.16-.73,1.21-1.56a11,11,0,0,0-.49-2.72c-.22-1.06-.47-2.12-.73-3.18-.55-2.27-1.14-4.53-1.66-6.81a44.1,44.1,0,0,1-1.35-13.43,1.07,1.07,0,0,0-.78-1c-3.85-.69-7.95,0-11.71.89-4.24.94-8.42,2.2-12.76,2.59A1.09,1.09,0,0,0,39.8,94.1c-.9,10.79,1.17,21.73,8.52,30,.9,1,2.4-.48,1.5-1.5-7-7.9-8.74-18.34-7.89-28.54l-1.07,1.06a86,86,0,0,0,12-2.36c3.78-.89,8-1.88,11.9-1.19l-.78-1a44.91,44.91,0,0,0,1.27,13.31c.49,2.21,1.06,4.39,1.6,6.59q.39,1.59.75,3.18a13.68,13.68,0,0,1,.61,3.21l.53-.92a35,35,0,0,1-19.37,7c-1.36.06-1.37,2.19,0,2.13Z" />
                        <path
                            d="M44.79,100.81a21.42,21.42,0,0,0,5.7,16.85c.94,1,2.44-.51,1.5-1.5a19.39,19.39,0,0,1-5.08-15.35c.15-1.36-2-1.35-2.12,0Z" />
                        <path
                            d="M52.23,99.45c-.41,5.45,0,11.66,4.5,15.46,1,.88,2.54-.61,1.5-1.5-4-3.45-4.24-9-3.87-14,.1-1.36-2-1.35-2.13,0Z" />
                        <path
                            d="M59.17,98.39a39.42,39.42,0,0,0,1.77,14.71c.42,1.3,2.47.75,2.05-.56A37.69,37.69,0,0,1,61.3,98.39c.09-1.37-2-1.36-2.13,0Z" />
                        <path class="cls-2"
                            d="M49.24,77a23.36,23.36,0,0,1-4,0,5.61,5.61,0,0,0-3.8,1,5.59,5.59,0,0,0-1.27,1.76,7.42,7.42,0,0,0-.92,4.68l.11.08c-.3-.12-.61.15-.82.4a12.79,12.79,0,0,0-2.27,4,5.91,5.91,0,0,0-.38,2.42A2.84,2.84,0,0,0,37,93.43a4.46,4.46,0,0,0,3,.35c.29-.22,9.51-1.26,16.79-3.39,4.38-1.28,8.23.43,8.26.2.07-.6,1.47-4.27,1.33-4.85a12.71,12.71,0,0,0-.74-2.26,3.63,3.63,0,0,0-.76-1.23,3.58,3.58,0,0,0-2.67-.77,12.36,12.36,0,0,1-2.85,0l.1-.21a3.19,3.19,0,0,0,.59-3.08,5.94,5.94,0,0,0-1-2.37,5,5,0,0,0-3.22-1.78,12.75,12.75,0,0,0-3.75.11,4,4,0,0,0-1.93.62,1.47,1.47,0,0,0-.55,1.79" />
                        <path
                            d="M49.24,75.89c-3,.36-6.45-.86-8.82,1.57a9.19,9.19,0,0,0-2.09,4.05c-.24.95-.65,3,.27,3.72l.75-1.81c-1.09,0-1.67.77-2.26,1.59a13.61,13.61,0,0,0-1.85,3.62c-.7,2.08-.63,4.77,1.59,5.9a5.21,5.21,0,0,0,3.17.31c.18,0,.35-.1.53-.14-.35.07-.22.08-.13.06l.57-.11c1.52-.27,3.05-.49,4.58-.74,2.4-.4,4.79-.85,7.17-1.38,2.6-.59,5.2-1.62,7.9-1.55a14.23,14.23,0,0,1,2.89.38,5.71,5.71,0,0,0,1.52.31c1.28-.09,1.52-2.4,1.83-3.36a8.86,8.86,0,0,0,.59-2.37,7.85,7.85,0,0,0-1-3.17,3.78,3.78,0,0,0-2.55-2.19c-1.51-.38-3,.08-4.57-.12l.92,1.6a7.31,7.31,0,0,0,.89-1.87A6.3,6.3,0,0,0,61,77.53a5.67,5.67,0,0,0-3.37-4c-2.3-1-10.59-1-9,3.41.46,1.27,2.52.72,2-.57s2.67-1.23,3.34-1.26a5.73,5.73,0,0,1,3.45.71,4.17,4.17,0,0,1,1.64,3.13,2.42,2.42,0,0,1-.15,1.38c-.13.26-.37.43-.5.7a1.09,1.09,0,0,0,.92,1.6c1.36.18,3.17-.47,4.41.18A4.47,4.47,0,0,1,65.32,86a10,10,0,0,1-.68,2.31c-.13.41-.27.81-.39,1.21a2,2,0,0,0-.14.47c0,.31-.3.39.17-.1l.75-.31c.07,0,0,0-.18,0a3.41,3.41,0,0,0-.55-.14q-1-.23-1.95-.36a14.59,14.59,0,0,0-5.39.24c-3.53.86-7,1.75-10.6,2.38-2.13.38-4.34.57-6.46,1.08-.13,0-.31.13-.42.15.51-.07-.65,0-.64,0a1.71,1.71,0,0,1-1.91-1.87,7.1,7.1,0,0,1,.9-3c.18-.37,1.12-2.36,1.52-2.34.85,0,1.5-1.24.75-1.82,0,0,.17-1.13.19-1.23a8.13,8.13,0,0,1,.59-1.85,4.18,4.18,0,0,1,1.89-2.28c2-.9,4.39-.1,6.47-.35,1.34-.16,1.36-2.29,0-2.13Z" />
                        <circle cx="84.57" cy="52.61" r="2.59" />
                        <path
                            d="M108,47.3l2.49-1.88a.75.75,0,0,0,.32-.42.71.71,0,0,0-1-.8l-2.49,1.88a.78.78,0,0,0-.32.42.71.71,0,0,0,.07.55.73.73,0,0,0,.42.33.66.66,0,0,0,.55-.08Z" />
                        <circle cx="110.63" cy="52.38" r="2.59" />
                        <path
                            d="M93.85,58.26a5.39,5.39,0,0,1,1.91-.83,13.71,13.71,0,0,1,2.94-.51,24.07,24.07,0,0,1,4.41.08c-1.29,3.2-3.21,6.16-4,9.51v0A7.94,7.94,0,0,1,96.43,64a17,17,0,0,1-1.68-2.68,7,7,0,0,1-1-2.93" />
                        <path
                            d="M94.35,58.76a2.68,2.68,0,0,1,1-.45c.32-.1.63-.23,1-.32a12.28,12.28,0,0,1,1.91-.32,26.41,26.41,0,0,1,4.87,0l-.68-.9c-1.3,3.2-3.19,6.15-4.05,9.52l1.4.18c0-.47-.33-.6-.69-.83a5.41,5.41,0,0,1-1-.81A14.55,14.55,0,0,1,96.6,63a16.21,16.21,0,0,1-1.11-1.83,7.12,7.12,0,0,1-1-2.81c0-.9-1.47-.91-1.42,0a10.62,10.62,0,0,0,2.12,5.09,10.7,10.7,0,0,0,3.51,3.66l-.36-.61v0c.07.75,1.18,1,1.39.19.85-3.36,2.74-6.32,4-9.51.18-.46-.28-.86-.69-.9a26.22,26.22,0,0,0-5.24,0,10,10,0,0,0-2.17.4,6.42,6.42,0,0,0-2.35,1.06c-.69.59.31,1.59,1,1Z" />
                        <line class="cls-7" x1="79.14" y1="61.84" x2="80.02" y2="60.5" />
                        <line class="cls-7" x1="81.18" y1="61.77" x2="82.06" y2="60.43" />
                        <line class="cls-7" x1="83.18" y1="61.77" x2="84.07" y2="60.43" />
                        <line class="cls-7" x1="116.81" y1="60.96" x2="115.93" y2="59.62" />
                        <line class="cls-7" x1="114.77" y1="60.89" x2="113.89" y2="59.55" />
                        <line class="cls-7" x1="112.77" y1="60.89" x2="111.88" y2="59.55" />
                        <path
                            d="M83.72,45.53l2.68,1.76a.71.71,0,0,0,.72-1.22L84.44,44.3a.72.72,0,0,0-1,.26.72.72,0,0,0,.25,1Z" />
                    </g>
                </g>
                <g class="cls-8">
                    <path class="cls-9"
                        d="M161,135.37h15.57s-4.8,9.74-5.14,12,5.14,10.73,5.14,10.73H150.28a1.2,1.2,0,0,1-.67-.21,2,2,0,0,1-.56-.6,3.05,3.05,0,0,1-.38-.9,4,4,0,0,1-.13-1V146" />
                    <path class="cls-9"
                        d="M38.17,135.37H22.6s5.11,9.4,5.14,12-5.14,10.73-5.14,10.73H48.85a1.56,1.56,0,0,0,1.23-.81,3.41,3.41,0,0,0,.38-.89,4.59,4.59,0,0,0,.13-1.06V146" />
                    <path class="cls-9"
                        d="M161.09,115.71a3.82,3.82,0,0,0-.45-1.86,1.65,1.65,0,0,0-1.13-.88,432.83,432.83,0,0,0-62.19-3.88,414.36,414.36,0,0,0-57.57,4.06,1.67,1.67,0,0,0-1.13.88,3.81,3.81,0,0,0-.45,1.85v28.69a4,4,0,0,0,.15,1.11,3.17,3.17,0,0,0,.42.93,1.85,1.85,0,0,0,.62.57,1.12,1.12,0,0,0,.71.13,419.65,419.65,0,0,1,57.25-4,428,428,0,0,1,61.87,3.84,1.14,1.14,0,0,0,.72-.14,1.78,1.78,0,0,0,.62-.58,3.17,3.17,0,0,0,.42-.93,4.09,4.09,0,0,0,.14-1.12Z" />
                </g>
                <path class="cls-10"
                    d="M161,133.37h15.57s-4.8,9.74-5.14,12,5.14,10.73,5.14,10.73H150.28a1.2,1.2,0,0,1-.67-.21,2,2,0,0,1-.56-.6,3.05,3.05,0,0,1-.38-.9,4,4,0,0,1-.13-1V144" />
                <path class="cls-10"
                    d="M38.17,133.37H22.6s5.11,9.4,5.14,12-5.14,10.73-5.14,10.73H48.85a1.56,1.56,0,0,0,1.23-.81,3.41,3.41,0,0,0,.38-.89,4.59,4.59,0,0,0,.13-1.06V144" />
                <path class="cls-10"
                    d="M161.09,113.71a3.82,3.82,0,0,0-.45-1.86,1.65,1.65,0,0,0-1.13-.88,432.83,432.83,0,0,0-62.19-3.88,414.36,414.36,0,0,0-57.57,4.06,1.67,1.67,0,0,0-1.13.88,3.81,3.81,0,0,0-.45,1.85v28.69a4,4,0,0,0,.15,1.11,3.17,3.17,0,0,0,.42.93,1.85,1.85,0,0,0,.62.57,1.12,1.12,0,0,0,.71.13,419.65,419.65,0,0,1,57.25-4,428,428,0,0,1,61.87,3.84,1.14,1.14,0,0,0,.72-.14,1.78,1.78,0,0,0,.62-.58,3.17,3.17,0,0,0,.42-.93,4.09,4.09,0,0,0,.14-1.12Z" />
                <g class="cls-8">
                    <path
                        d="M179.41,96.68A6.34,6.34,0,0,1,173.9,103a5.69,5.69,0,0,1-.83.05H140.83a7.5,7.5,0,0,1-.82,0,7.71,7.71,0,0,1,0-15.34,9.5,9.5,0,0,1,18.46-3.09,9.51,9.51,0,0,1,12.27,6.24,6.44,6.44,0,0,1,2.33-.44A6.34,6.34,0,0,1,179.41,96.68Z" />
                    <path class="cls-11"
                        d="M179.41,96.68A6.34,6.34,0,0,1,173.9,103a5.69,5.69,0,0,1-.83.05H140.83a7.5,7.5,0,0,1-.82,0,7.71,7.71,0,0,1,0-15.34,9.5,9.5,0,0,1,18.46-3.09,9.51,9.51,0,0,1,12.27,6.24,6.44,6.44,0,0,1,2.33-.44A6.34,6.34,0,0,1,179.41,96.68Z" />
                </g>
                <path class="cls-12"
                    d="M179.41,94.68A6.34,6.34,0,0,1,173.9,101a5.69,5.69,0,0,1-.83.05H140.83a7.5,7.5,0,0,1-.82,0,7.71,7.71,0,0,1,0-15.34,9.5,9.5,0,0,1,18.46-3.09,9.51,9.51,0,0,1,12.27,6.24,6.44,6.44,0,0,1,2.33-.44A6.34,6.34,0,0,1,179.41,94.68Z" />
                <path class="cls-11"
                    d="M179.41,94.68A6.34,6.34,0,0,1,173.9,101a5.69,5.69,0,0,1-.83.05H140.83a7.5,7.5,0,0,1-.82,0,7.71,7.71,0,0,1,0-15.34,9.5,9.5,0,0,1,18.46-3.09,9.51,9.51,0,0,1,12.27,6.24,6.44,6.44,0,0,1,2.33-.44A6.34,6.34,0,0,1,179.41,94.68Z" />
                <g class="cls-8">
                    <path
                        d="M57.74,59.72a5.57,5.57,0,0,1-4.86,5.53,4.4,4.4,0,0,1-.73,0H23.76a5.85,5.85,0,0,1-.73,0,6.79,6.79,0,0,1,0-13.51A8.37,8.37,0,0,1,39.29,49a8.4,8.4,0,0,1,10.81,5.5,5.59,5.59,0,0,1,7.64,5.19Z" />
                    <path class="cls-11"
                        d="M57.74,59.72a5.57,5.57,0,0,1-4.86,5.53,4.4,4.4,0,0,1-.73,0H23.76a5.85,5.85,0,0,1-.73,0,6.79,6.79,0,0,1,0-13.51A8.37,8.37,0,0,1,39.29,49a8.4,8.4,0,0,1,10.81,5.5,5.59,5.59,0,0,1,7.64,5.19Z" />
                </g>
                <path class="cls-12"
                    d="M57.74,57.72a5.57,5.57,0,0,1-4.86,5.53,4.4,4.4,0,0,1-.73,0H23.76a5.85,5.85,0,0,1-.73,0,6.79,6.79,0,0,1,0-13.51A8.37,8.37,0,0,1,39.29,47a8.4,8.4,0,0,1,10.81,5.5,5.59,5.59,0,0,1,7.64,5.19Z" />
                <path class="cls-11"
                    d="M57.74,57.72a5.57,5.57,0,0,1-4.86,5.53,4.4,4.4,0,0,1-.73,0H23.76a5.85,5.85,0,0,1-.73,0,6.79,6.79,0,0,1,0-13.51A8.37,8.37,0,0,1,39.29,47a8.4,8.4,0,0,1,10.81,5.5,5.59,5.59,0,0,1,7.64,5.19Z" />
                <text class="cls-13" transform="translate(61.97 129.13)">디 어 비 어 </text>
            </g>
            <path class="cls-14" d="M160.17,144.85l-11.33,10-.16-1.66a20.12,20.12,0,0,1-.14-2.91v-6.32l10.94,1.14" />
            <path class="cls-14" d="M39,144.9l11.33,9.95.15-1.66a18.79,18.79,0,0,0,.15-2.91V144L39.65,145.1" />
            <g class="cls-8">
                <rect y="232.84" width="190.32" height="30.92" rx="5" />
            </g>
            <rect class="cls-15" y="230.84" width="190.32" height="30.92" rx="5" />
            <path
                d="M15.49,238c5,0,9,3.14,9,7s-4,7-9,7A10.52,10.52,0,0,1,14,252l-3.78,2.48c-.43.22-.58.2-.4-.36l.76-3.15a6.8,6.8,0,0,1-4.1-5.89C6.49,241.17,10.52,238,15.49,238Zm5.07,6.91,1.26-1.22a.39.39,0,0,0,.11-.28.41.41,0,0,0-.11-.28.41.41,0,0,0-.56,0l-1.66,1.6v-1.32a.41.41,0,0,0-.4-.41.41.41,0,0,0-.41.41v2.19a.61.61,0,0,0,0,.19V247a.42.42,0,0,0,.12.28.4.4,0,0,0,.29.12.36.36,0,0,0,.28-.12.38.38,0,0,0,.12-.28v-1.17l.37-.36,1.22,1.75a.29.29,0,0,0,.12.1.34.34,0,0,0,.15.06.38.38,0,0,0,.15,0,.3.3,0,0,0,.15-.07.38.38,0,0,0,.11-.11.25.25,0,0,0,.05-.15.43.43,0,0,0,0-.16.35.35,0,0,0-.06-.14l-1.3-1.85ZM18,246.59H16.77v-3.16a.4.4,0,0,0-.12-.27.44.44,0,0,0-.28-.12.4.4,0,0,0-.28.12.41.41,0,0,0-.13.27V247a.4.4,0,0,0,.41.4H18a.41.41,0,0,0,.41-.4.41.41,0,0,0-.41-.41Zm-5-.93.6-1.47.54,1.47Zm1.16-2.27a.56.56,0,0,0-.21-.29.55.55,0,0,0-.33-.12.67.67,0,0,0-.34.1.6.6,0,0,0-.22.28l-1.42,3.5a.4.4,0,0,0,0,.15.41.41,0,0,0,0,.16.38.38,0,0,0,.09.13.29.29,0,0,0,.13.08.21.21,0,0,0,.15,0,.41.41,0,0,0,.16,0,.38.38,0,0,0,.13-.09.3.3,0,0,0,.09-.13l.28-.69h1.77l.26.68a.64.64,0,0,0,.08.14l.13.1.16,0,.16,0a.57.57,0,0,0,.13-.08.42.42,0,0,0,.09-.14.28.28,0,0,0,0-.15.41.41,0,0,0,0-.16Zm-1.85.05a.44.44,0,0,0-.11-.29.4.4,0,0,0-.29-.12H9.13a.4.4,0,0,0-.29.12.45.45,0,0,0-.12.29.42.42,0,0,0,.12.28.4.4,0,0,0,.29.12h1V247a.41.41,0,0,0,.41.41.38.38,0,0,0,.28-.12.4.4,0,0,0,.12-.29v-3.2h1a.4.4,0,0,0,.29-.12.41.41,0,0,0,.11-.28Z" />
            <line class="cls-16" x1="29.28" y1="236.42" x2="29.28" y2="256.2" /><text class="cls-17"
                transform="translate(62.84 249.95)">카카오 계정 로그인</text>
            <g class="cls-8">
                <rect x="1.16" y="192.61" width="190.32" height="30.92" rx="5" />
            </g>
            <rect class="cls-2" x="1.16" y="190.61" width="190.32" height="30.92" rx="5" />
            <line class="cls-16" x1="29.28" y1="196.18" x2="29.28" y2="215.96" /><text class="cls-17"
                transform="translate(61.68 209.71)">Google 계정 로그인</text>
            <path class="cls-18"
                d="M23.69,205.05H23v0H15.5v3.35h4.72a5,5,0,1,1-1.4-5.42l2.37-2.36a8.35,8.35,0,1,0,2.66,6.11A8.85,8.85,0,0,0,23.69,205.05Z" />
            <path class="cls-19" d="M8.11,202.8l2.74,2a5,5,0,0,1,8-1.87l2.37-2.36A8.33,8.33,0,0,0,8.11,202.8Z" />
            <path class="cls-20"
                d="M15.5,215a8.32,8.32,0,0,0,5.6-2.17l-2.59-2.19a5,5,0,0,1-3,1,5,5,0,0,1-4.71-3.32l-2.73,2.1A8.37,8.37,0,0,0,15.5,215Z" />
            <path class="cls-21"
                d="M23.69,205.05H23v0H15.5v3.35h4.72a5,5,0,0,1-1.71,2.32h0l2.59,2.19a8.06,8.06,0,0,0,2.75-6.18A8.85,8.85,0,0,0,23.69,205.05Z" />
            <g class="cls-8">
                <rect x="0.58" y="285.37" width="190.32" height="30.92" rx="5" />
            </g>
            <rect class="cls-2" x="0.58" y="283.37" width="190.32" height="30.92" rx="5" />
            <line class="cls-16" x1="29.28" y1="287.38" x2="29.28" y2="307.16" /><text class="cls-17"
                transform="translate(80.7 302.47)">회원가입</text>
            <path
                d="M22,304.27a8.5,8.5,0,0,0-3.66-13.44,8.32,8.32,0,0,0-4-.43A8.5,8.5,0,0,0,9,304.27H9l.14.14a1.45,1.45,0,0,0,.17.18,6.53,6.53,0,0,0,.52.53l.17.15c.2.17.4.33.61.48l.07.06h0a8.45,8.45,0,0,0,9.73,0h0l.08-.06a7,7,0,0,0,.6-.48l.17-.15a5.3,5.3,0,0,0,.53-.53,1.45,1.45,0,0,0,.17-.18l.14-.14ZM15.5,294a2.73,2.73,0,0,1,2.68,3.27A2.74,2.74,0,0,1,16,299.39,2.74,2.74,0,1,1,15.5,294Zm-4.86,10.3a3,3,0,0,1,3-3h3.65a3.05,3.05,0,0,1,2.14.87,3.1,3.1,0,0,1,.9,2.13,7.28,7.28,0,0,1-9.72,0Z" />
            <text class="cls-22" transform="translate(92.87 274.35)">or</text>
            <line class="cls-23" x1="33.26" y1="273.07" x2="90.63" y2="273.07" />
            <line class="cls-23" x1="101.31" y1="273.07" x2="158.68" y2="273.07" />
        </g>
        <g id="eff.">
            <path class="cls-2"
                d="M103.45,56.79a2.1,2.1,0,0,1,1.45,1.11,1.46,1.46,0,0,1,.2.5.7.7,0,0,1-.11.53.66.66,0,0,1-.55.21,2,2,0,0,1-.59-.15c-.14-.06-.3-.14-.29-.29l-.1,0a1.47,1.47,0,0,1-.85-.28,4.36,4.36,0,0,1-.68-.61.26.26,0,0,1-.09-.14h0a3.62,3.62,0,0,1-1.87.26,6.84,6.84,0,0,1-1.84-.48l-.11,0a3.54,3.54,0,0,1-1.62.78A11.27,11.27,0,0,1,95,58.13l0,0a4.5,4.5,0,0,0-.55.6,1.35,1.35,0,0,1-.66.45,4.75,4.75,0,0,1-.92,0h0a.78.78,0,0,1-.46.14.82.82,0,0,1-.48-.31.22.22,0,0,1,0-.08.17.17,0,0,1,0-.12,2.49,2.49,0,0,1,.64-1.12v0a1,1,0,0,1-.24-1.06,1.67,1.67,0,0,1,1-1.14,3.29,3.29,0,0,1,2,.14l0-.05a3.25,3.25,0,0,1,1.66-1.1,3.91,3.91,0,0,1,2.36.51h.14l1.38,0A5.8,5.8,0,0,1,102,55a2,2,0,0,1,1.06.51,1.24,1.24,0,0,1,.37,1.09" />
            <path
                d="M103.35,57.13a1.8,1.8,0,0,1,1.19.86c.21.34.06.88-.4.72-.2-.06-.2-.16-.33-.26s-.53-.13-.82-.26a2,2,0,0,1-.65-.51c-.06-.06-.21-.3-.32-.35-.3-.14-.58.07-.87.14a4,4,0,0,1-1.82,0,7.24,7.24,0,0,0-1.23-.38c-.3,0-.53.26-.76.4a2.55,2.55,0,0,1-1.68.39c-.33,0-.67-.15-1,0s-.44.56-.72.76-.56.2-1,.19c-.06,0-.34,0-.41,0-1-.14.09-.68.16-1.08s-.24-.47-.27-.8a1.27,1.27,0,0,1,.73-1.15,2.71,2.71,0,0,1,1.88.1.35.35,0,0,0,.4-.16,2.75,2.75,0,0,1,1.49-1c.88-.18,1.5.4,2.3.53,1,.16,3.91-.6,3.75,1.28,0,.46.67.45.71,0a1.82,1.82,0,0,0-1.31-1.84c-1-.34-2,0-3-.14-.4-.07-.8-.34-1.21-.45a3.07,3.07,0,0,0-1.38-.06,3.48,3.48,0,0,0-1.92,1.31l.4-.16c-1.07-.3-2.28-.47-3.07.5a1.83,1.83,0,0,0-.42,1.42,1.6,1.6,0,0,0,.22.56s.09-.16-.05-.06a1.39,1.39,0,0,0-.31.45c-.19.35-.36.75-.1,1.1a1,1,0,0,0,1.16.37c.08,0,.15-.11.23-.11s.29.09.41.09a1.51,1.51,0,0,0,.7-.13,3.94,3.94,0,0,0,1.17-1.13l-.3.17a4.52,4.52,0,0,0,2.25-.15c.27-.12.74-.54,1-.53a12.38,12.38,0,0,1,1.19.37,5,5,0,0,0,1.16.09c.4,0,.77-.17,1.15-.2,0,0-.14-.16.08,0a5.89,5.89,0,0,0,.45.42,2,2,0,0,0,.93.46c.3,0,0-.1.21.1a1.65,1.65,0,0,0,.79.37,1,1,0,0,0,1.24-.5c.47-1.07-.89-2.33-1.84-2.51-.45-.08-.64.6-.19.69Z" />
        </g>
    </g>
</svg>