<svg xmlns="http://www.w3.org/2000/svg" viewBox="0 0 300 68.08"><defs><style>.cls-1{fill:#fff;}.cls-2{opacity:0.25;}.cls-3{fill:#231815;}.cls-4,.cls-5{fill:none;stroke-miterlimit:10;stroke-width:1.98px;}.cls-4{stroke:#000;}.cls-5{stroke:#231815;}</style></defs><g id="레이어_2" data-name="레이어 2"><g id="화면_1" data-name="화면 1"><rect class="cls-1" width="300" height="29.27" transform="translate(300 29.27) rotate(180)"/><g class="cls-2"><path d="M0,30.66c18.75,0,18.75,16,37.5,16s18.75-16,37.49-16,18.75,16,37.5,16,18.75-16,37.5-16,18.75,16,37.5,16,18.75-16,37.5-16,18.75,16,37.51,16,18.75-16,37.5-16"/><path d="M37.5,48.08c-9.9,0-14.87-4.24-19.67-8.34-4.62-3.94-9-7.66-17.83-7.66V29.24c9.9,0,14.87,4.24,19.67,8.34,4.62,3.94,9,7.66,17.83,7.66s13.21-3.72,17.83-7.66c4.8-4.1,9.77-8.34,19.66-8.34s14.87,4.24,19.67,8.34c4.62,3.94,9,7.66,17.83,7.66s13.21-3.72,17.83-7.66c4.81-4.1,9.77-8.34,19.67-8.34s14.87,4.24,19.67,8.34c4.62,3.94,9,7.66,17.83,7.66s13.22-3.72,17.83-7.66c4.81-4.1,9.77-8.34,19.67-8.34s14.87,4.24,19.67,8.34c4.62,3.94,9,7.66,17.84,7.66s13.21-3.72,17.83-7.66c4.8-4.1,9.77-8.34,19.67-8.34v2.84c-8.85,0-13.21,3.72-17.83,7.66-4.81,4.1-9.77,8.34-19.67,8.34s-14.87-4.24-19.68-8.34c-4.61-3.94-9-7.66-17.83-7.66s-13.21,3.72-17.83,7.66c-4.8,4.1-9.77,8.34-19.67,8.34s-14.86-4.24-19.67-8.34c-4.62-3.94-9-7.66-17.83-7.66s-13.21,3.72-17.83,7.66c-4.8,4.1-9.77,8.34-19.67,8.34s-14.86-4.24-19.67-8.34c-4.61-3.94-9-7.66-17.83-7.66S61.78,35.8,57.17,39.74C52.36,43.84,47.39,48.08,37.5,48.08Z"/></g><path class="cls-1" d="M0,28.66c18.75,0,18.75,16,37.5,16s18.75-16,37.49-16,18.75,16,37.5,16,18.75-16,37.5-16,18.75,16,37.5,16,18.75-16,37.5-16,18.75,16,37.51,16,18.75-16,37.5-16"/><path class="cls-3" d="M37.5,46.08c-9.9,0-14.87-4.24-19.67-8.34-4.62-3.94-9-7.66-17.83-7.66V27.24c9.9,0,14.87,4.24,19.67,8.34,4.62,3.94,9,7.66,17.83,7.66s13.21-3.72,17.83-7.66c4.8-4.1,9.77-8.34,19.66-8.34s14.87,4.24,19.67,8.34c4.62,3.94,9,7.66,17.83,7.66s13.21-3.72,17.83-7.66c4.81-4.1,9.77-8.34,19.67-8.34s14.87,4.24,19.67,8.34c4.62,3.94,9,7.66,17.83,7.66s13.22-3.72,17.83-7.66c4.81-4.1,9.77-8.34,19.67-8.34s14.87,4.24,19.67,8.34c4.62,3.94,9,7.66,17.84,7.66s13.21-3.72,17.83-7.66c4.8-4.1,9.77-8.34,19.67-8.34v2.84c-8.85,0-13.21,3.72-17.83,7.66-4.81,4.1-9.77,8.34-19.67,8.34s-14.87-4.24-19.68-8.34c-4.61-3.94-9-7.66-17.83-7.66s-13.21,3.72-17.83,7.66c-4.8,4.1-9.77,8.34-19.67,8.34s-14.86-4.24-19.67-8.34c-4.62-3.94-9-7.66-17.83-7.66s-13.21,3.72-17.83,7.66c-4.8,4.1-9.77,8.34-19.67,8.34s-14.86-4.24-19.67-8.34c-4.61-3.94-9-7.66-17.83-7.66S61.78,33.8,57.17,37.74C52.36,41.84,47.39,46.08,37.5,46.08Z"/><g class="cls-2"><circle cx="264.32" cy="62.15" r="4.94"/><circle class="cls-4" cx="264.32" cy="62.15" r="4.94"/></g><circle class="cls-1" cx="264.32" cy="61.15" r="4.94"/><circle class="cls-5" cx="264.32" cy="61.15" r="4.94"/></g></g></svg>