<svg xmlns="http://www.w3.org/2000/svg" viewBox="0 0 300 48.08"><defs><style>.cls-1{fill:#fff;}.cls-2{opacity:0.25;}.cls-3{fill:#231815;}</style></defs><g id="레이어_2" data-name="레이어 2"><g id="화면_1" data-name="화면 1"><rect class="cls-1" y="18.81" width="300" height="29.27"/><g class="cls-2"><path d="M300,17.42c-18.75,0-18.75-16-37.5-16s-18.74,16-37.49,16-18.75-16-37.5-16-18.75,16-37.5,16-18.75-16-37.5-16-18.75,16-37.5,16-18.75-16-37.5-16-18.76,16-37.51,16"/><path d="M75,18.83c-9.9,0-14.87-4.23-19.67-8.33-4.62-3.94-9-7.67-17.84-7.67S24.29,6.56,19.67,10.5C14.87,14.6,9.9,18.83,0,18.83V16c8.85,0,13.22-3.72,17.83-7.66C22.64,4.24,27.61,0,37.5,0S52.37,4.24,57.18,8.34C61.79,12.28,66.16,16,75,16s13.21-3.72,17.83-7.66C97.64,4.24,102.61,0,112.51,0s14.87,4.24,19.67,8.34c4.62,3.94,9,7.66,17.83,7.66s13.21-3.72,17.83-7.66C172.65,4.24,177.61,0,187.51,0s14.87,4.24,19.67,8.34c4.62,3.94,9,7.66,17.83,7.66s13.21-3.72,17.83-7.66C247.64,4.24,252.61,0,262.5,0s14.87,4.24,19.67,8.34c4.62,3.94,9,7.66,17.83,7.66v2.83c-9.9,0-14.86-4.24-19.67-8.33-4.61-3.94-9-7.67-17.83-7.67s-13.21,3.73-17.82,7.67c-4.81,4.09-9.77,8.33-19.67,8.33s-14.87-4.24-19.67-8.33c-4.62-3.94-9-7.67-17.83-7.67S174.3,6.56,169.68,10.5c-4.8,4.09-9.77,8.33-19.67,8.33s-14.86-4.24-19.67-8.33c-4.62-3.94-9-7.67-17.83-7.67S99.3,6.56,94.68,10.5C89.88,14.6,84.91,18.83,75,18.83Z"/></g><path class="cls-1" d="M300,19.42c-18.75,0-18.75-16-37.5-16s-18.74,16-37.49,16-18.75-16-37.5-16-18.75,16-37.5,16-18.75-16-37.5-16-18.75,16-37.5,16-18.75-16-37.5-16-18.76,16-37.51,16"/><path class="cls-3" d="M75,20.83c-9.9,0-14.87-4.23-19.67-8.33-4.62-3.94-9-7.67-17.84-7.67S24.29,8.56,19.67,12.5C14.87,16.6,9.9,20.83,0,20.83V18c8.85,0,13.22-3.72,17.83-7.66C22.64,6.24,27.61,2,37.5,2s14.87,4.24,19.68,8.34C61.79,14.28,66.16,18,75,18s13.21-3.72,17.83-7.66C97.64,6.24,102.61,2,112.51,2s14.87,4.24,19.67,8.34c4.62,3.94,9,7.66,17.83,7.66s13.21-3.72,17.83-7.66C172.65,6.24,177.61,2,187.51,2s14.87,4.24,19.67,8.34c4.62,3.94,9,7.66,17.83,7.66s13.21-3.72,17.83-7.66C247.64,6.24,252.61,2,262.5,2s14.87,4.24,19.67,8.34c4.62,3.94,9,7.66,17.83,7.66v2.83c-9.9,0-14.86-4.24-19.67-8.33-4.61-3.94-9-7.67-17.83-7.67s-13.21,3.73-17.82,7.67c-4.81,4.09-9.77,8.33-19.67,8.33s-14.87-4.24-19.67-8.33c-4.62-3.94-9-7.67-17.83-7.67S174.3,8.56,169.68,12.5c-4.8,4.09-9.77,8.33-19.67,8.33s-14.86-4.24-19.67-8.33c-4.62-3.94-9-7.67-17.83-7.67S99.3,8.56,94.68,12.5C89.88,16.6,84.91,20.83,75,20.83Z"/></g></g></svg>