<?xml version="1.0" encoding="utf-8"?>
<!-- Generator: Adobe Illustrator 26.0.3, SVG Export Plug-In . SVG Version: 6.00 Build 0)  -->
<svg version="1.1" id="레이어_1" xmlns="http://www.w3.org/2000/svg" xmlns:xlink="http://www.w3.org/1999/xlink" x="0px"
	 y="0px" viewBox="0 0 191.5 316.3" style="enable-background:new 0 0 191.5 316.3;" xml:space="preserve">
<style type="text/css">
	.st0{fill:#FFC200;stroke:#231815;stroke-width:1.98;stroke-miterlimit:10;}
	.st1{fill:#FFFFFF;}
	.st2{fill:#FFFFFF;stroke:#000000;stroke-width:1.56;stroke-linecap:round;stroke-linejoin:round;}
	.st3{fill:#914500;}
	.st4{fill:#FF2948;stroke:#040000;stroke-width:0.43;stroke-miterlimit:10;}
	.st5{fill:#FFB000;}
	.st6{fill:none;stroke:#000000;stroke-width:0.43;stroke-linecap:round;stroke-linejoin:round;}
	.st7{opacity:0.25;}
	.st8{stroke:#000000;stroke-width:1.7;stroke-miterlimit:10;}
	.st9{fill:#FFC200;stroke:#231815;stroke-width:1.7;stroke-miterlimit:10;}
	.st10{fill:none;stroke:#000000;stroke-width:1.98;stroke-miterlimit:10;}
	.st11{fill:#F6F6F6;}
	.st12{enable-background:new    ;}
	.st13{fill:#FFFFFF;stroke:#231815;stroke-width:1.7;stroke-linecap:round;stroke-linejoin:round;}
	.st14{fill:#F9E000;}
	
		.st15{opacity:0.25;fill:none;stroke:#000000;stroke-width:0.85;stroke-linecap:round;stroke-linejoin:round;enable-background:new    ;}
	.st16{fill:#FFC107;}
	.st17{fill:#FF3D00;}
	.st18{fill:#4CAF50;}
	.st19{fill:#1976D2;}
	.st20{font-family:'NanumGothicBold';}
	.st21{font-size:6px;}
	.st22{fill:none;stroke:#231815;stroke-linecap:round;stroke-linejoin:round;}
</style>
<g id="레이어_2_00000049196958266126234260000014502906805547765393_">
	<g id="화면_1">
		<g id="로고2">
			<circle class="st0" cx="98.4" cy="99.5" r="41.4"/>
			<g id="맥주_스티커_본체">
				<g id="맥주들고_있는거">
					<path class="st1" d="M115.7,108.7c1,1.2,2.7,1.5,4,0.7c0.3-0.2,0.6-0.5,0.8-0.8c0.2-0.3,0.3-0.7,0.3-1.1
						c0.3-3.8-0.3-7.6-1.8-11.1c-1.5-3.5-3.4-6.8-5.5-10H85.8c-3.4,1.6-6.7,3.5-9.8,5.7c-3.1,2.2-5.6,5.2-7.3,8.6
						c-0.2,0.3-0.3,0.7-0.3,1.1c0,0.4,0.1,0.8,0.3,1.1c0.7,1.3,2.3,2,3.8,1.5l0.4-0.2l1.5-0.9c0.2-0.1,0.4-0.3,0.6-0.5
						c0.1-0.2,0.2-0.5,0.2-0.7c0-1.2-0.6-2.4-1.5-3.2l1.7,2c3.2,0.3,6.5-0.4,9.4-1.8l2.1-4.2c-0.9,1.8-1.5,3.7-2.1,5.7
						c-0.4,1.9-0.6,3.8-0.6,5.7c-0.1,1.8,0,3.5,0.3,5.3c0.9,3.4,3.3,6.3,6.4,8l0,0c-0.3,0-0.6,0.1-0.8,0.3c-0.4,0.2-0.7,0.5-1,0.9
						c-0.3,0.4-0.4,0.8-0.2,1.3c0.3,0.5,0.8,0.9,1.4,1c0.4,0.1,0.9,0.2,1.4,0.1c0.5,0,1-0.1,1.4-0.3c0.7-0.3,1.4-0.6,2.1-1h0.1
						c-0.3-1.1-0.4-2.3-0.4-3.4c0-0.7,0.1-1.4,0.2-2.1c0.4-1.1,0.9-2.1,1.5-3l0.7-1.1h3.5c0.2,0.5,0.4,1,0.8,1.4
						c1,1.6,1.5,3.4,1.6,5.2c0.2,0.9,0,1.7-0.4,2.5v0.1c0.8,1.2,2.1,1.9,3.5,1.9c1.2,0.1,2.3-0.1,3.4-0.6c0.4-0.1,0.6-0.4,0.5-0.8
						c0.1-0.4,0-0.9-0.2-1.3c-0.3-0.5-0.7-0.7-1.2-0.7h-0.3c3.2-1.6,5.5-4.5,6.4-8c0.3-1.7,0.4-3.5,0.3-5.3c0-1.9-0.2-3.8-0.6-5.6
						c-0.5-1.9-1.2-3.8-2.1-5.7"/>
					<path d="M115,109.4c1.3,1.4,3.3,1.8,5,1c2.2-1.1,2.1-4,2-6.1c-0.3-5.3-2.6-10.2-5.3-14.8c-0.7-1.1-1.3-2.2-2.1-3.3
						c-0.3-0.5-0.6-0.8-1.2-0.9c-0.4,0-0.8,0-1.3,0H89.3c-1.2-0.1-2.3-0.1-3.5,0c-1,0.3-1.9,0.7-2.8,1.3c-1.3,0.7-2.6,1.3-3.8,2.1
						c-2.2,1.2-4.2,2.7-6.1,4.3c-2.7,2.4-8.9,9-3.8,12c2,1.2,4,0.3,5.7-0.9c2.1-1.5,0.9-4.6-0.7-6c-0.4-0.4-1.1-0.4-1.5,0
						s-0.4,1.1,0,1.5c0.6,0.7,1.3,2,2.3,2.3c1.3,0.2,2.6,0.2,3.9-0.1c1.3-0.2,2.6-0.5,3.9-0.9c0.8-0.3,2.2-0.6,2.7-1.3
						c0.2-0.4,0.4-0.8,0.6-1.2l1.5-3l-1.8-1.1c-1.2,2.4-2,4.9-2.5,7.5c-0.4,2.7-0.5,5.4-0.3,8.1c0.6,4.5,3.3,8.4,7.2,10.5
						c0.5,0.3,1.2,0.1,1.4-0.4c0.2-0.4,0.2-0.9-0.2-1.2c-0.8-0.9-2.3,0.1-2.9,0.7c-1,0.8-1.3,2.2-0.7,3.3c0.9,1,2.2,1.6,3.6,1.4
						c0.6-0.1,1.3-0.2,1.9-0.4c0.3-0.1,0.7-0.2,1-0.4c0.1-0.1,1.1-0.6,0.7-0.5c0.6,0,1.1-0.5,1-1.1c0-0.1,0-0.1,0-0.2
						c-0.4-1.5-0.5-3.2-0.2-4.8c0.5-1.5,1.2-2.9,2.2-4.1l-0.9,0.5h3.5l-1-0.8c0.4,1.3,1.4,2.3,1.8,3.7c0.5,1.3,0.7,2.6,0.5,4
						c-0.1,0.5-0.5,0.9-0.4,1.4c0.1,0.3,0.3,0.6,0.5,0.9c0.7,0.9,1.7,1.5,2.8,1.7c1.6,0.4,5.4,0.4,6.2-1.5c0.6-1.4,0-3-1.4-3.6
						c-0.4-0.2-0.8-0.2-1.2-0.2l0.5,2c4-2.1,6.7-6,7.2-10.5c0.2-2.6,0.2-5.2-0.2-7.8c-0.5-2.7-1.3-5.3-2.5-7.8
						c-0.5-1.3-2.4-0.2-1.8,1.1c1,2.2,1.8,4.4,2.2,6.8c0.3,2.3,0.4,4.6,0.3,6.8c-0.3,4-2.6,7.7-6.2,9.5c-0.5,0.3-0.7,0.9-0.4,1.5
						c0.2,0.3,0.5,0.5,0.9,0.5c0.4,0,1,0.5,0.7,1c0.1-0.1-1,0.2-1,0.2c-0.4,0.1-0.8,0.1-1.2,0.2c-0.8,0-3-0.2-3.2-1.2l-0.1,0.8
						c0.9-1.4,0.6-3.2,0.3-4.8c-0.1-0.9-0.4-1.7-0.7-2.5c-0.4-0.9-1.2-1.7-1.4-2.7c-0.1-0.4-0.5-0.8-1-0.8h-2.2
						c-0.6-0.1-1.3-0.1-1.9,0.1c-0.5,0.3-0.7,0.9-1,1.3c-0.4,0.6-0.8,1.2-1.1,1.8c-1.2,2.4-1,5.1-0.4,7.7l1-1.3
						c-1.1,0.1-2,1-3.1,1.3c-0.5,0.1-1.7,0.3-2-0.2s0.5-1.2,1.1-1.3l-1-0.3l0,0l1.3-1.7c-3.6-1.9-6-5.5-6.2-9.5
						c-0.1-2.3,0-4.6,0.3-6.8c0.4-2.4,1.2-4.7,2.2-6.8c0.5-1.2-1.2-2.3-1.8-1.1c-0.6,1.3-1.2,2.6-1.9,3.9c-0.3,0.5,0.2,0-0.7,0.4
						c-2.5,1-5.2,1.4-7.9,1.2l0.8,0.3l-1.7-2l-1.5,1.5c0.6,0.5,1.1,1.2,1.2,2c0,0.8-0.8,1.2-1.5,1.6c-1.1,0.6-3.1,0-3-1.5
						c0.1-1.2,1.5-3,2.2-3.9c1-1.3,2.2-2.5,3.5-3.6c2.8-2.3,5.9-4.2,9.2-5.8c1.3-0.7,1.3-0.9,2.5-0.9h26.6l-0.9-0.5
						c2.4,3.8,4.9,7.7,6.3,12.1c0.7,2.1,1.1,4.4,1.1,6.6c0,1,0.1,2.5-1,3c-0.9,0.3-1.8,0.1-2.4-0.7C115.6,107,114.1,108.4,115,109.4
						L115,109.4z"/>
					<path class="st2" d="M105.6,87.9c2.2,0,14-1.1,21.9-9.2c10.4-10.7,6.2-25.9,5.5-28.3c-0.2-0.7-4.9-16.8-21.2-22.6
						c-6.8-2.4-14.2-2.6-21.2-0.6C87.8,28,76,31.6,69.4,43.4c-1.1,2-9.7,17.9-0.4,31.8c8,12,22.8,12.7,24.3,12.7"/>
					<path class="st3" d="M78.7,32.4c-0.5-0.7-0.8-1.6-1-2.4c-0.8-2.8-1.1-5.8-0.9-8.7h-0.1c-1.6,0.3-3.3,0.2-4.9-0.2
						c-0.6-0.1-1.3-0.3-1.8-0.5c-0.9-0.4-1.7-0.9-2.4-1.5v-0.2c-0.6-1.7-0.1-3.6,1.1-4.8c0.1-0.1,0.2-0.1,0.3-0.1l0,0
						c1.4,0.7,2.8,1.1,4.3,1.3c1.5,0.2,3,0.2,4.5,0.2l0,0c0.4-2.6,1-5.1,1.7-7.6c0.8-2.5,2.1-4.8,3.8-6.7V1c0.4-0.3,0.9-0.4,1.3-0.3
						c0.4,0.1,0.8,0.2,1.2,0.4c0.7,0.4,1.3,1,1.8,1.6C87.9,3,88,3.2,88,3.5l-0.1,0.2c-1.4,2.3-2.6,4.8-3.4,7.4c-1,2.9-1.6,5.9-1.8,9
						c-0.2,3.1,0.3,6.1,1.4,9"/>
					<path d="M79.3,32c-1.9-3-2-7.4-1.8-10.8c0-0.4-0.3-0.7-0.7-0.7c-0.1,0-0.1,0-0.2,0c-1.2,0.3-2.5,0.3-3.8,0
						c-1.4-0.2-2.7-0.6-3.8-1.3c-0.2-0.2-0.5-0.3-0.7-0.4c-0.1-0.1,0.1,0.2-0.1-0.2c-0.2-0.6-0.3-1.3-0.1-1.9
						c0.1-0.9,0.6-1.8,1.4-2.4l-0.9,0.1c2.9,1.2,6.1,1.8,9.3,1.5l-0.7-0.5l0,0c0.1,0.4,0.5,0.6,0.9,0.5c0.2-0.1,0.4-0.2,0.5-0.5
						c0.7-3.8,1.4-7.7,3.3-11.1c0.5-0.9,1.1-1.7,1.8-2.5c0.6-0.6,1.1-0.6,1.9-0.1c0.6,0.3,1,0.8,1.4,1.3c0.4,0.5,0.2,0.6-0.1,1.2
						c-0.5,0.8-1,1.7-1.4,2.6c-3.1,6.9-4.9,15.3-2,22.5c0.3,0.8,1.7,0.5,1.4-0.4c-1.9-4.7-1.7-9.7-0.5-14.5c0.6-2.3,1.3-4.6,2.3-6.7
						c0.5-1.1,1.1-2.2,1.7-3.2c0.4-0.4,0.5-1.1,0.3-1.6c-0.8-1.6-2.4-2.7-4.2-2.8c-1.5,0.1-2.4,1.6-3.1,2.7
						c-2.5,3.7-3.3,8.2-4.1,12.5h1.4l0,0c-0.1-0.3-0.4-0.5-0.7-0.5c-2.9,0-5.8-0.1-8.5-1.4c-0.3-0.2-0.6-0.1-0.9,0.1
						c0.3-0.3-0.2,0.1-0.3,0.2c-0.2,0.2-0.4,0.5-0.6,0.7c-0.4,0.7-0.8,1.4-0.9,2.2c-0.2,1.2-0.2,2.6,0.8,3.4c1.3,1,2.9,1.7,4.5,2
						c1.5,0.3,3.5,0.7,5,0.1l-0.9-0.7c-0.2,3.6,0,8.3,2,11.5C78.6,33.5,79.8,32.8,79.3,32L79.3,32z"/>
					<path class="st3" d="M122.2,32.9c0.5-0.7,0.8-1.6,1-2.4c0.8-2.8,1.1-5.8,0.9-8.7h0.1c1.7,0.3,3.4,0.2,5-0.2
						c0.6-0.1,1.3-0.3,1.9-0.5c0.9-0.4,1.6-0.9,2.4-1.5v-0.2c0.5-1.7,0.1-3.5-1.1-4.8c-0.1-0.1-0.2-0.1-0.3-0.1v-0.1
						c-1.4,0.7-2.8,1.1-4.3,1.3c-1.5,0.2-3,0.2-4.5,0.2l0,0c-0.4-2.6-1-5.1-1.7-7.6c-0.8-2.5-2.1-4.8-3.8-6.7l-0.1-0.1
						c-0.3-0.3-0.8-0.4-1.2-0.3c-0.4,0.1-0.8,0.2-1.2,0.4c-0.7,0.4-1.3,1-1.8,1.6C113.1,3.5,113,3.8,113,4l0.1,0.2
						c1.4,2.3,2.6,4.8,3.4,7.4c1,2.9,1.6,5.9,1.8,9c0.2,3.1-0.3,6.1-1.4,9"/>
					<path d="M122.9,33.3c2-3.2,2.2-7.8,2-11.5l-0.9,0.7c1.5,0.6,3.5,0.2,5-0.1c1.6-0.3,3.2-1,4.5-2c1-0.8,1-2.2,0.8-3.4
						c-0.1-0.8-0.4-1.5-0.9-2.2c-0.2-0.3-0.4-0.5-0.6-0.7c-0.1-0.1-0.6-0.5-0.3-0.2c-0.2-0.2-0.6-0.3-0.9-0.1
						c-2.7,1.3-5.6,1.4-8.5,1.4c-0.3,0-0.6,0.2-0.7,0.5l0,0h1.4c-0.8-4.3-1.6-8.8-4.1-12.5c-0.7-1.1-1.6-2.6-3.1-2.7
						c-1.8,0.1-3.4,1.2-4.2,2.8c-0.2,0.5-0.2,1.2,0.2,1.6c0.6,1,1.2,2.1,1.7,3.2c0.9,2.2,1.7,4.5,2.3,6.8c1.2,4.8,1.4,9.8-0.5,14.5
						c-0.3,0.9,1,1.2,1.4,0.4c2.9-7.3,1.1-15.7-2-22.5c-0.4-0.9-0.9-1.8-1.4-2.6c-0.3-0.6-0.6-0.6-0.1-1.2c0.3-0.4,0.8-0.8,1.2-1.1
						c0.9-0.6,1.4-0.7,2.1,0c0.6,0.7,1.2,1.5,1.7,2.3c2,3.4,2.7,7.4,3.4,11.3c0.1,0.4,0.5,0.6,0.9,0.5c0.2-0.1,0.4-0.2,0.5-0.5l0,0
						l-0.7,0.5c3.2,0.2,6.3-0.3,9.2-1.5l-0.9-0.1c0.7,0.5,1.1,1.2,1.3,2c0.2,0.7,0.1,1.5-0.1,2.2c0,0.1,0,0.2,0,0.3
						c0.2-0.2-0.6,0.2-0.8,0.3c-1.1,0.7-2.3,1.1-3.6,1.3c-1.3,0.3-2.7,0.4-4,0c-0.4-0.1-0.8,0.1-0.9,0.5c0,0.1,0,0.1,0,0.2
						c0.2,3.4,0.1,7.8-1.8,10.8C121.1,33.3,122.4,34,122.9,33.3L122.9,33.3z"/>
					
						<ellipse transform="matrix(0.9968 -8.002496e-02 8.002496e-02 0.9968 -4.6322 6.7456)" class="st4" cx="81.8" cy="61.2" rx="4.9" ry="2"/>
					
						<ellipse transform="matrix(8.002489e-02 -0.9968 0.9968 8.002489e-02 44.8795 169.2082)" class="st4" cx="114.1" cy="60.3" rx="2.1" ry="4.9"/>
					<path class="st1" d="M74.1,36.3c-1.8-2.4-4.3-4.3-7.2-5.2c-3.8-1.1-7.4,0-11,1.2c-0.1,0-0.2,0.1-0.3,0.2
						c-0.4,0-0.8,0.4-0.8,0.8c-0.4,4.2,0.5,8.4,2.7,12c1.9,3.1,4.8,6,8.3,7c0.5,0.1,1-0.2,1.1-0.6c0.5-1.4,1-2.8,1.5-4.2
						c0.1-0.3,0.2-0.7,0.4-1l0.1-0.2c0,0,0-0.1,0-0.1c0.2-0.5,0.5-1,0.7-1.4c0.6-1.2,1.2-2.3,1.8-3.5l0,0c1.1-1.2,2-2.5,2.8-3.9
						C74.4,37.1,74.4,36.6,74.1,36.3z"/>
					<path d="M74.1,36.3c-1.8-2.4-4.3-4.3-7.2-5.2c-3.8-1.1-7.4,0-11,1.2c-0.1,0-0.2,0.1-0.3,0.2c-0.4,0-0.8,0.4-0.8,0.8
						c-0.4,4.2,0.5,8.4,2.7,12c1.9,3.1,4.8,6,8.3,7c0.5,0.1,1-0.2,1.1-0.6c0.5-1.4,1-2.8,1.5-4.2c0.1-0.3,0.2-0.7,0.4-1l0.1-0.2
						c0,0,0-0.1,0-0.1c0.2-0.5,0.5-1,0.7-1.4c0.6-1.2,1.2-2.3,1.8-3.5l0,0c1.1-1.2,2-2.5,2.8-3.9C74.4,37.1,74.4,36.6,74.1,36.3z
						 M67.2,45.5c-0.7,1.6-1.3,3.2-1.8,4.9c-2.8-1.3-5.1-3.5-6.6-6.2c-1.8-3-2.6-6.5-2.4-10.1c1,0.1,2.1,0,3.1,0.1
						c1.4,0.2,2.7,0.5,4,1c1.3,0.5,2.6,1.1,3.8,1.9c1.2,0.6,2.1,1.6,2.6,2.8C69.1,41.9,68.1,43.7,67.2,45.5z M71.4,38.5
						c-0.2-0.4-0.5-0.7-0.7-1c-1.1-1.1-2.4-2.1-3.8-2.8c-1.6-0.9-3.4-1.5-5.2-1.9c-0.2,0-0.4-0.1-0.6-0.1c1.8-0.4,3.6-0.3,5.4,0.1
						c2.4,0.8,4.5,2.2,6,4.2C72,37.6,71.7,38.1,71.4,38.5L71.4,38.5z"/>
					<path class="st1" d="M125.6,38.4c0.8,1.4,1.8,2.7,2.8,3.9l0,0c0.6,1.2,1.2,2.4,1.8,3.5c0.2,0.5,0.5,1,0.7,1.5c0,0,0,0,0,0.1
						l0.1,0.2c0.1,0.3,0.3,0.7,0.4,1c0.5,1.4,1,2.8,1.5,4.2c0.1,0.5,0.6,0.8,1.1,0.6c3.5-1.1,6.4-4,8.3-7c2.2-3.6,3.2-7.8,2.7-12
						c-0.1-0.4-0.4-0.8-0.8-0.8c-0.1-0.1-0.2-0.1-0.3-0.2c-3.6-1.3-7.2-2.3-11-1.2c-2.9,0.9-5.4,2.7-7.2,5.2
						C125.4,37.6,125.4,38,125.6,38.4z"/>
					<path d="M125.6,38.4c0.8,1.4,1.8,2.7,2.8,3.9l0,0c0.6,1.2,1.2,2.4,1.8,3.5c0.2,0.5,0.5,1,0.7,1.5c0,0,0,0,0,0.1l0.1,0.2
						c0.1,0.3,0.3,0.7,0.4,1c0.5,1.4,1,2.8,1.5,4.2c0.1,0.5,0.6,0.8,1.1,0.6c3.5-1.1,6.4-4,8.3-7c2.2-3.6,3.2-7.8,2.7-12
						c-0.1-0.4-0.4-0.8-0.8-0.8c-0.1-0.1-0.2-0.1-0.3-0.2c-3.6-1.3-7.2-2.3-11-1.2c-2.9,0.9-5.4,2.7-7.2,5.2
						C125.4,37.6,125.4,38,125.6,38.4z M129.8,41c0.5-1.2,1.4-2.2,2.6-2.8c1.2-0.8,2.5-1.4,3.8-1.9c1.3-0.5,2.6-0.8,4-1
						c1-0.1,2.1,0,3.1-0.1c0.2,3.5-0.6,7-2.4,10c-1.5,2.7-3.8,4.9-6.6,6.2c-0.5-1.7-1.1-3.3-1.8-4.9C131.7,44.6,130.7,42.8,129.8,41
						z M127.5,38c1.5-2,3.6-3.4,6-4.2c1.7-0.5,3.6-0.5,5.3-0.1l-0.6,0.1c-1.8,0.4-3.6,1.1-5.2,1.9c-1.4,0.7-2.7,1.6-3.8,2.8
						c-0.3,0.3-0.5,0.6-0.8,1C128.1,39,127.8,38.5,127.5,38z"/>
					<path d="M74,104.3v3.1c0,0.1,0,0.2,0,0.2c0,0.2,0.1-0.2,0,0l0.3-0.5c0.3-0.2,0.4-0.2,0.3-0.2h-0.2l-0.3,0.1l-0.6,0.2l-1.3,0.3
						l-2.6,0.7c-0.6,0.2-0.9,0.7-0.7,1.3s0.7,0.9,1.3,0.7l0,0l4.7-1.3c0.6-0.2,1.1-0.4,1.2-1c0.1-0.4,0.1-0.9,0-1.3v-2.5
						c-0.1-0.6-0.6-1-1.2-1C74.4,103.3,73.9,103.7,74,104.3L74,104.3z"/>
					<path d="M74,98.9c0.1-2.6-0.2-5.1-0.8-7.6c-0.2-0.6-0.8-0.9-1.3-0.7c-0.1,0-0.1,0.1-0.2,0.1c-2,1.1-4.1,2.1-6.2,3
						c-0.5,0.3-0.7,1-0.4,1.5c0.3,0.5,0.9,0.7,1.4,0.4c2.1-0.9,4.2-1.9,6.2-3l-1.6-0.6c0.6,2.3,0.9,4.6,0.8,7c0,0.6,0.5,1.1,1.1,1.1
						C73.5,99.9,74,99.4,74,98.9L74,98.9z"/>
					<path class="st5" d="M49.4,124c7.2-0.3,14.1-2.8,19.9-7.1v-0.3c-1.6-8.7-5-17.2-4.2-26l-0.3-0.1c-8-0.9-15.8,2.9-23.9,3.6v0.2
						c-0.6,5.2-0.3,10.4,1,15.5c1.3,5.1,3.7,9.7,7.2,13.7"/>
					<path d="M49.4,125.1c4-0.2,8-1,11.8-2.5c1.9-0.7,3.8-1.7,5.5-2.7c0.8-0.5,1.7-1,2.5-1.6s1.2-0.7,1.2-1.6c0-0.9-0.2-1.8-0.5-2.7
						c-0.2-1.1-0.5-2.1-0.7-3.2c-0.6-2.3-1.1-4.5-1.7-6.8c-1.1-4.4-1.6-8.9-1.3-13.4c0-0.5-0.3-0.9-0.8-1c-3.8-0.7-8,0-11.7,0.9
						c-4.2,0.9-8.4,2.2-12.8,2.6c-0.6,0-1,0.5-1.1,1c-0.9,10.8,1.2,21.7,8.5,30c0.9,1,2.4-0.5,1.5-1.5c-7-7.9-8.7-18.3-7.9-28.5
						l-1.1,1.1c4.1-0.5,8.1-1.3,12-2.4c3.8-0.9,8-1.9,11.9-1.2l-0.8-1c-0.2,4.5,0.2,9,1.3,13.3c0.5,2.2,1.1,4.4,1.6,6.6
						c0.3,1.1,0.5,2.1,0.8,3.2c0.3,1,0.5,2.1,0.6,3.2l0.5-0.9c-5.6,4.2-12.4,6.7-19.4,7C48,123,48,125.1,49.4,125.1L49.4,125.1z"/>
					<path d="M44.8,100.8c-0.6,6.2,1.4,12.3,5.7,16.8c0.9,1,2.4-0.5,1.5-1.5c-3.8-4.1-5.7-9.7-5.1-15.3
						C47.1,99.4,44.9,99.5,44.8,100.8z"/>
					<path d="M52.2,99.4c-0.4,5.4,0,11.7,4.5,15.5c1,0.9,2.5-0.6,1.5-1.5c-4-3.4-4.2-9-3.9-14C54.5,98,52.4,98.1,52.2,99.4
						L52.2,99.4z"/>
					<path d="M59.2,98.4c-0.3,5,0.3,10,1.8,14.7c0.4,1.3,2.5,0.8,2-0.6c-1.5-4.6-2-9.4-1.7-14.2C61.4,97,59.3,97,59.2,98.4z"/>
					<path class="st1" d="M49.2,77c-1.3,0.1-2.7,0.1-4,0c-1.3-0.1-2.7,0.2-3.8,1c-0.5,0.5-1,1.1-1.3,1.8c-0.8,1.4-1.1,3.1-0.9,4.7
						l0.1,0.1c-0.3-0.1-0.6,0.2-0.8,0.4c-1,1.2-1.8,2.5-2.3,4c-0.3,0.8-0.4,1.6-0.4,2.4c0,0.8,0.5,1.6,1.1,2.1c0.9,0.5,2,0.6,3,0.3
						c0.3-0.2,9.5-1.3,16.8-3.4c4.4-1.3,8.2,0.4,8.3,0.2c0.1-0.6,1.5-4.3,1.3-4.8c-0.2-0.8-0.4-1.5-0.7-2.3
						c-0.2-0.5-0.4-0.9-0.8-1.2c-0.8-0.6-1.7-0.9-2.7-0.8c-0.9,0.1-1.9,0.1-2.8,0l0.1-0.2c0.7-0.9,0.9-2,0.6-3.1
						c-0.2-0.9-0.5-1.7-1-2.4c-0.8-1-2-1.6-3.2-1.8c-1.2-0.1-2.5-0.1-3.8,0.1c-0.7,0-1.4,0.3-1.9,0.6c-0.6,0.4-0.8,1.1-0.5,1.8"/>
					<path d="M49.2,75.9c-3,0.4-6.5-0.9-8.8,1.6c-1,1.2-1.7,2.5-2.1,4.1c-0.2,0.9-0.7,3,0.3,3.7l0.8-1.8c-1.1,0-1.7,0.8-2.3,1.6
						c-0.8,1.1-1.4,2.3-1.8,3.6c-0.7,2.1-0.6,4.8,1.6,5.9c1,0.4,2.1,0.5,3.2,0.3c0.2,0,0.3-0.1,0.5-0.1c-0.3,0.1-0.2,0.1-0.1,0.1
						l0.6-0.1c1.5-0.3,3-0.5,4.6-0.7c2.4-0.4,4.8-0.8,7.2-1.4c2.6-0.6,5.2-1.6,7.9-1.6c1,0,1.9,0.2,2.9,0.4c0.5,0.2,1,0.3,1.5,0.3
						c1.3-0.1,1.5-2.4,1.8-3.4c0.3-0.8,0.5-1.6,0.6-2.4c-0.1-1.1-0.4-2.2-1-3.2c-0.5-1.1-1.4-1.9-2.5-2.2c-1.5-0.4-3,0.1-4.6-0.1
						l0.9,1.6c0.4-0.6,0.7-1.2,0.9-1.9c0.1-0.9,0.1-1.8-0.1-2.7c-0.4-1.8-1.7-3.3-3.4-4c-2.3-1-10.6-1-9,3.4c0.5,1.3,2.5,0.7,2-0.6
						s2.7-1.2,3.3-1.3c1.2-0.1,2.4,0.1,3.5,0.7c1,0.7,1.6,1.9,1.6,3.1c0.1,0.5,0,0.9-0.2,1.4c-0.1,0.3-0.4,0.4-0.5,0.7
						c-0.3,0.5-0.1,1.2,0.5,1.5c0.1,0.1,0.3,0.1,0.5,0.1c1.4,0.2,3.2-0.5,4.4,0.2c0.9,0.8,1.5,2,1.6,3.2c-0.1,0.8-0.4,1.6-0.7,2.3
						c-0.1,0.4-0.3,0.8-0.4,1.2c-0.1,0.2-0.1,0.3-0.1,0.5c0,0.3-0.3,0.4,0.2-0.1l0.8-0.3c0.1,0,0,0-0.2,0c-0.2-0.1-0.4-0.1-0.6-0.1
						c-0.7-0.2-1.3-0.3-2-0.4c-1.8-0.3-3.6-0.2-5.4,0.2c-3.5,0.9-7,1.8-10.6,2.4c-2.1,0.4-4.3,0.6-6.5,1.1c-0.1,0-0.3,0.1-0.4,0.2
						c0.5-0.1-0.7,0-0.6,0c-0.9,0.1-1.8-0.6-1.9-1.5c0-0.1,0-0.3,0-0.4c0.1-1.1,0.4-2.1,0.9-3c0.2-0.4,1.1-2.4,1.5-2.3
						c0.8,0,1.5-1.2,0.8-1.8c0,0,0.2-1.1,0.2-1.2c0.1-0.6,0.3-1.3,0.6-1.8c0.3-1,1-1.8,1.9-2.3c2-0.9,4.4-0.1,6.5-0.3
						c1.3-0.2,1.4-2.3,0-2.1L49.2,75.9z"/>
					<circle cx="84.6" cy="52.6" r="2.6"/>
					<path d="M108,47.3l2.5-1.9c0.2-0.1,0.3-0.2,0.3-0.4c0.1-0.4-0.1-0.8-0.5-0.9c-0.2,0-0.3,0-0.5,0.1l-2.5,1.9
						c-0.2,0.1-0.3,0.2-0.3,0.4c-0.1,0.2,0,0.4,0.1,0.5c0.1,0.2,0.2,0.3,0.4,0.3C107.7,47.4,107.9,47.4,108,47.3L108,47.3z"/>
					<circle cx="110.6" cy="52.4" r="2.6"/>
					<path d="M93.8,58.3c0.6-0.4,1.2-0.7,1.9-0.8c1-0.3,1.9-0.4,2.9-0.5c1.5-0.1,2.9-0.1,4.4,0.1c-1.3,3.2-3.2,6.2-4,9.5l0,0
						c-1.1-0.6-2-1.5-2.7-2.5c-0.6-0.8-1.2-1.7-1.7-2.7c-0.5-0.9-0.9-1.9-1-2.9"/>
					<path d="M94.3,58.8c0.3-0.2,0.6-0.4,1-0.5c0.3-0.1,0.6-0.2,1-0.3c0.6-0.2,1.3-0.3,1.9-0.3c1.6-0.1,3.3-0.1,4.9,0l-0.7-0.9
						c-1.3,3.2-3.2,6.2-4.1,9.5l1.4,0.2c0-0.5-0.3-0.6-0.7-0.8c-0.4-0.2-0.7-0.5-1-0.8c-0.6-0.6-1.1-1.2-1.5-1.8
						c-0.4-0.6-0.8-1.2-1.1-1.8c-0.5-0.9-0.9-1.8-1-2.8c0-0.9-1.5-0.9-1.4,0c0.2,1.9,1,3.6,2.1,5.1c0.9,1.5,2.1,2.7,3.5,3.7
						l-0.4-0.6l0,0c0.1,0.8,1.2,1,1.4,0.2c0.8-3.4,2.7-6.3,4-9.5c0.2-0.5-0.3-0.9-0.7-0.9c-1.7-0.2-3.5-0.2-5.2,0
						c-0.7,0.1-1.5,0.2-2.2,0.4c-0.8,0.2-1.6,0.6-2.3,1.1C92.6,58.3,93.6,59.3,94.3,58.8L94.3,58.8z"/>
					<line class="st6" x1="79.1" y1="61.8" x2="80" y2="60.5"/>
					<line class="st6" x1="81.2" y1="61.8" x2="82.1" y2="60.4"/>
					<line class="st6" x1="83.2" y1="61.8" x2="84.1" y2="60.4"/>
					<line class="st6" x1="116.8" y1="61" x2="115.9" y2="59.6"/>
					<line class="st6" x1="114.8" y1="60.9" x2="113.9" y2="59.5"/>
					<line class="st6" x1="112.8" y1="60.9" x2="111.9" y2="59.5"/>
					<path d="M83.7,45.5l2.7,1.8c0.4,0.2,0.8,0,1-0.3c0.2-0.3,0.1-0.7-0.2-0.9l-2.7-1.8c-0.3-0.2-0.8-0.1-1,0.2c0,0,0,0,0,0
						C83.2,44.9,83.3,45.3,83.7,45.5C83.7,45.6,83.7,45.6,83.7,45.5L83.7,45.5z"/>
				</g>
			</g>
			<g class="st7">
				<path class="st8" d="M161,135.4h15.6c0,0-4.8,9.7-5.1,12s5.1,10.7,5.1,10.7h-26.3c-0.2,0-0.5-0.1-0.7-0.2
					c-0.2-0.2-0.4-0.4-0.6-0.6c-0.2-0.3-0.3-0.6-0.4-0.9c-0.1-0.3-0.1-0.7-0.1-1V146"/>
				<path class="st8" d="M38.2,135.4H22.6c0,0,5.1,9.4,5.1,12s-5.1,10.7-5.1,10.7h26.2c0.5,0,1-0.4,1.2-0.8c0.2-0.3,0.3-0.6,0.4-0.9
					c0.1-0.3,0.1-0.7,0.1-1.1V146"/>
				<path class="st8" d="M161.1,115.7c0-0.6-0.1-1.3-0.4-1.9c-0.2-0.5-0.6-0.8-1.1-0.9c-20.6-2.8-41.4-4.1-62.2-3.9
					c-19.3,0-38.5,1.4-57.6,4.1c-0.5,0.1-0.9,0.4-1.1,0.9c-0.3,0.6-0.5,1.2-0.5,1.8v28.7c0,0.4,0,0.7,0.2,1.1
					c0.1,0.3,0.2,0.6,0.4,0.9c0.2,0.2,0.4,0.4,0.6,0.6c0.2,0.1,0.5,0.2,0.7,0.1c19-2.6,38.1-4,57.3-4c20.7-0.2,41.4,1.1,61.9,3.8
					c0.2,0,0.5,0,0.7-0.1c0.3-0.1,0.5-0.3,0.6-0.6c0.2-0.3,0.3-0.6,0.4-0.9c0.1-0.4,0.1-0.7,0.1-1.1L161.1,115.7z"/>
			</g>
			<path class="st9" d="M161,133.4h15.6c0,0-4.8,9.7-5.1,12s5.1,10.7,5.1,10.7h-26.3c-0.2,0-0.5-0.1-0.7-0.2
				c-0.2-0.2-0.4-0.4-0.6-0.6c-0.2-0.3-0.3-0.6-0.4-0.9c-0.1-0.3-0.1-0.7-0.1-1V144"/>
			<path class="st9" d="M38.2,133.4H22.6c0,0,5.1,9.4,5.1,12s-5.1,10.7-5.1,10.7h26.2c0.5,0,1-0.4,1.2-0.8c0.2-0.3,0.3-0.6,0.4-0.9
				c0.1-0.3,0.1-0.7,0.1-1.1V144"/>
			<path class="st9" d="M161.1,113.7c0-0.6-0.1-1.3-0.4-1.9c-0.2-0.5-0.6-0.8-1.1-0.9c-20.6-2.8-41.4-4.1-62.2-3.9
				c-19.3,0-38.5,1.4-57.6,4.1c-0.5,0.1-0.9,0.4-1.1,0.9c-0.3,0.6-0.5,1.2-0.5,1.8v28.7c0,0.4,0,0.7,0.2,1.1
				c0.1,0.3,0.2,0.6,0.4,0.9c0.2,0.2,0.4,0.4,0.6,0.6c0.2,0.1,0.5,0.2,0.7,0.1c19-2.6,38.1-4,57.3-4c20.7-0.2,41.4,1.1,61.9,3.8
				c0.2,0,0.5,0,0.7-0.1c0.3-0.1,0.5-0.3,0.6-0.6c0.2-0.3,0.3-0.6,0.4-0.9c0.1-0.4,0.1-0.7,0.1-1.1L161.1,113.7z"/>
			<g class="st7">
				<path d="M179.4,96.7c0,3.2-2.3,5.9-5.5,6.3c-0.3,0-0.6,0.1-0.8,0.1h-32.2c-0.3,0-0.5,0-0.8,0c-4.2-0.4-7.3-4.2-6.9-8.5
					c0.4-3.6,3.2-6.5,6.9-6.9c0-5.2,4.3-9.5,9.6-9.4c4,0,7.6,2.6,8.9,6.3c5-1.7,10.4,0.9,12.1,5.8c0.1,0.1,0.1,0.3,0.1,0.4
					c0.7-0.3,1.5-0.4,2.3-0.4C176.5,90.4,179.4,93.2,179.4,96.7z"/>
				<path class="st10" d="M179.4,96.7c0,3.2-2.3,5.9-5.5,6.3c-0.3,0-0.6,0.1-0.8,0.1h-32.2c-0.3,0-0.5,0-0.8,0
					c-4.2-0.4-7.3-4.2-6.9-8.5c0.4-3.6,3.2-6.5,6.9-6.9c0-5.2,4.3-9.5,9.6-9.4c4,0,7.6,2.6,8.9,6.3c5-1.7,10.4,0.9,12.1,5.8
					c0.1,0.1,0.1,0.3,0.1,0.4c0.7-0.3,1.5-0.4,2.3-0.4C176.5,90.4,179.4,93.2,179.4,96.7z"/>
			</g>
			<path class="st11" d="M179.4,94.7c0,3.2-2.3,5.9-5.5,6.3c-0.3,0-0.6,0.1-0.8,0.1h-32.2c-0.3,0-0.5,0-0.8,0
				c-4.2-0.4-7.3-4.2-6.9-8.5c0.4-3.6,3.2-6.5,6.9-6.9c0-5.2,4.3-9.5,9.6-9.4c4,0,7.6,2.6,8.9,6.3c5-1.7,10.4,0.9,12.1,5.8
				c0.1,0.1,0.1,0.3,0.1,0.4c0.7-0.3,1.5-0.4,2.3-0.4C176.5,88.4,179.4,91.2,179.4,94.7z"/>
			<path class="st10" d="M179.4,94.7c0,3.2-2.3,5.9-5.5,6.3c-0.3,0-0.6,0.1-0.8,0.1h-32.2c-0.3,0-0.5,0-0.8,0
				c-4.2-0.4-7.3-4.2-6.9-8.5c0.4-3.6,3.2-6.5,6.9-6.9c0-5.2,4.3-9.5,9.6-9.4c4,0,7.6,2.6,8.9,6.3c5-1.7,10.4,0.9,12.1,5.8
				c0.1,0.1,0.1,0.3,0.1,0.4c0.7-0.3,1.5-0.4,2.3-0.4C176.5,88.4,179.4,91.2,179.4,94.7z"/>
			<g class="st7">
				<path d="M57.7,59.7c0,2.8-2.1,5.2-4.9,5.5c-0.2,0-0.5,0-0.7,0H23.8c-0.2,0-0.5,0-0.7,0c-3.7-0.4-6.4-3.7-6.1-7.4
					c0.3-3.2,2.9-5.7,6.1-6.1c0-4.6,3.8-8.3,8.4-8.3c3.5,0,6.7,2.3,7.8,5.6c4.4-1.5,9.2,0.8,10.7,5.2c0,0.1,0.1,0.2,0.1,0.3
					c2.9-1.1,6.1,0.3,7.3,3.2C57.6,58.3,57.7,59,57.7,59.7L57.7,59.7z"/>
				<path class="st10" d="M57.7,59.7c0,2.8-2.1,5.2-4.9,5.5c-0.2,0-0.5,0-0.7,0H23.8c-0.2,0-0.5,0-0.7,0c-3.7-0.4-6.4-3.7-6.1-7.4
					c0.3-3.2,2.9-5.7,6.1-6.1c0-4.6,3.8-8.3,8.4-8.3c3.5,0,6.7,2.3,7.8,5.6c4.4-1.5,9.2,0.8,10.7,5.2c0,0.1,0.1,0.2,0.1,0.3
					c2.9-1.1,6.1,0.3,7.3,3.2C57.6,58.3,57.7,59,57.7,59.7L57.7,59.7z"/>
			</g>
			<path class="st11" d="M57.7,57.7c0,2.8-2.1,5.2-4.9,5.5c-0.2,0-0.5,0-0.7,0H23.8c-0.2,0-0.5,0-0.7,0c-3.7-0.4-6.4-3.7-6.1-7.4
				c0.3-3.2,2.9-5.7,6.1-6.1c0-4.6,3.8-8.3,8.4-8.3c3.5,0,6.7,2.3,7.8,5.6c4.4-1.5,9.2,0.8,10.7,5.2c0,0.1,0.1,0.2,0.1,0.3
				c2.9-1.1,6.1,0.3,7.3,3.2C57.6,56.3,57.7,57,57.7,57.7L57.7,57.7z"/>
			<path class="st10" d="M57.7,57.7c0,2.8-2.1,5.2-4.9,5.5c-0.2,0-0.5,0-0.7,0H23.8c-0.2,0-0.5,0-0.7,0c-3.7-0.4-6.4-3.7-6.1-7.4
				c0.3-3.2,2.9-5.7,6.1-6.1c0-4.6,3.8-8.3,8.4-8.3c3.5,0,6.7,2.3,7.8,5.6c4.4-1.5,9.2,0.8,10.7,5.2c0,0.1,0.1,0.2,0.1,0.3
				c2.9-1.1,6.1,0.3,7.3,3.2C57.6,56.3,57.7,57,57.7,57.7L57.7,57.7z"/>
			<g class="st12">
				<path d="M63.2,129c-0.1-0.2-0.1-0.3,0-0.5c0.1-3.8,0-7.4-0.2-10.1c1-0.1,2.3,0,3,0.3c0.2,0.1,0.4,0.2,0.4,0.4h2.7l0.9-0.8
					c0.8,0.2,1.6,1.2,1.4,1.5h-5.2l0,8.5c2.1-0.2,4.7-0.6,6.5-0.9v-9.9c1,0,2,0.1,2.7,0.4c0.3,0.1,0.5,0.3,0.5,0.5
					c0,0.2-0.2,0.4-0.3,0.7l-0.1,5.5l0.1,5.7c0,1-0.7,1.2-2,1.4c-0.6,0.1-0.9,0-0.9-0.4V128c-2.1,0.9-4.7,1.7-7.3,2.3
					c-0.2,0.1-0.3,0.2-0.5,0.3s-0.4,0-0.6-0.2C64,130,63.5,129.4,63.2,129z"/>
				<path d="M82.7,122.2c0-2.9,1.6-4.2,4.1-4.2c2.6,0,4.1,1.3,4.1,4.2v1.4h0.6l1.3,0v-6c1,0,2,0.1,2.7,0.4c0.3,0.1,0.5,0.3,0.5,0.5
					c0,0.2-0.2,0.4-0.3,0.7l-0.1,5.5l0.1,5.7c0,1-0.7,1.2-2,1.4c-0.6,0.1-0.9,0-0.9-0.4v-6.8l-1,0l-0.9,0.1v2.3
					c0,2.9-1.6,4.2-4.1,4.2c-2.5,0-4.1-1.3-4.1-4.2V122.2z M85.7,127c0,2.1,0.2,3,1.2,3c0.9,0,1.2-0.9,1.2-3v-5c0-2.1-0.2-3-1.2-3
					c-0.9,0-1.2,0.9-1.2,3V127z"/>
				<path d="M108.1,118c1.1,0,2.2,0.2,2.8,0.5c0.2,0.1,0.3,0.3,0.3,0.5c0,0.2-0.1,0.4-0.2,0.6l0,5.1l0,5.1c0,0.8-0.6,1.1-1.7,1.3
					c-0.8,0.1-1.2-0.1-1.2-0.4V130h-2.2c0,0.5-0.6,0.8-1.5,1c-0.6,0.1-1,0.1-1.3,0c-0.2-0.1-0.3-0.2-0.3-0.7l0-5.9l-0.1-6.1
					c0.6-0.1,2.7,0,3.1,0.5v4.3h2.2v-3.4L108.1,118z M105.9,129.3h2.2v-5.6h-2.2V129.3z M112.7,117.5c1,0,2,0.1,2.7,0.4
					c0.3,0.1,0.5,0.3,0.5,0.5c0,0.2-0.2,0.4-0.3,0.7l-0.1,5.5l0.1,5.7c0,1-0.7,1.2-2,1.4c-0.6,0.1-0.9,0-0.9-0.4V117.5z"/>
				<path d="M122.6,122.2c0-2.9,1.6-4.2,4.1-4.2c2.6,0,4.1,1.3,4.1,4.2v1.4h0.6l1.3,0v-6c1,0,2,0.1,2.7,0.4c0.3,0.1,0.5,0.3,0.5,0.5
					c0,0.2-0.2,0.4-0.3,0.7l-0.1,5.5l0.1,5.7c0,1-0.7,1.2-2,1.4c-0.6,0.1-0.9,0-0.9-0.4v-6.8l-1,0l-0.9,0.1v2.3
					c0,2.9-1.6,4.2-4.1,4.2c-2.5,0-4.1-1.3-4.1-4.2V122.2z M125.6,127c0,2.1,0.2,3,1.2,3c0.9,0,1.2-0.9,1.2-3v-5c0-2.1-0.2-3-1.2-3
					c-0.9,0-1.2,0.9-1.2,3V127z"/>
			</g>
		</g>
		<path class="st13" d="M160.2,144.8l-11.3,10l-0.2-1.7c-0.1-1-0.2-1.9-0.1-2.9V144l10.9,1.1"/>
		<path class="st13" d="M39,144.9l11.3,9.9l0.2-1.7c0.1-1,0.2-1.9,0.2-2.9V144l-11,1.1"/>
		<g class="st7">
			<path d="M5,232.8h180.3c2.8,0,5,2.2,5,5v20.9c0,2.8-2.2,5-5,5H5c-2.8,0-5-2.2-5-5v-20.9C0,235.1,2.2,232.8,5,232.8z"/>
		</g>
		<path class="st14" d="M5,230.8h180.3c2.8,0,5,2.2,5,5v20.9c0,2.8-2.2,5-5,5H5c-2.8,0-5-2.2-5-5v-20.9C0,233.1,2.2,230.8,5,230.8z"
			/>
		<path d="M15.5,238c5,0,9,3.1,9,7s-4,7-9,7c-0.5,0-1,0-1.5,0l-3.8,2.5c-0.4,0.2-0.6,0.2-0.4-0.4l0.8-3.1c-2.4-1-4-3.3-4.1-5.9
			C6.5,241.2,10.5,238,15.5,238z M20.6,244.9l1.3-1.2c0.1-0.1,0.1-0.2,0.1-0.3c0-0.1,0-0.2-0.1-0.3c-0.2-0.1-0.4-0.1-0.6,0l-1.7,1.6
			v-1.3c0-0.2-0.2-0.4-0.4-0.4c-0.2,0-0.4,0.2-0.4,0.4l0,0v2.2c0,0.1,0,0.1,0,0.2v1.2c0,0.1,0,0.2,0.1,0.3c0.1,0.1,0.2,0.1,0.3,0.1
			c0.1,0,0.2,0,0.3-0.1c0.1-0.1,0.1-0.2,0.1-0.3v-1.2l0.4-0.4l1.2,1.8c0,0,0.1,0.1,0.1,0.1c0,0,0.1,0.1,0.1,0.1c0,0,0.1,0,0.1,0
			c0.1,0,0.1,0,0.1-0.1c0,0,0.1-0.1,0.1-0.1c0,0,0-0.1,0-0.1c0-0.1,0-0.1,0-0.2c0-0.1,0-0.1-0.1-0.1L20.6,244.9L20.6,244.9z
			 M18,246.6h-1.2v-3.2c0-0.1,0-0.2-0.1-0.3c-0.1-0.1-0.2-0.1-0.3-0.1c-0.1,0-0.2,0-0.3,0.1c-0.1,0.1-0.1,0.2-0.1,0.3v3.6
			c0,0.2,0.2,0.4,0.4,0.4c0,0,0,0,0,0H18c0.2,0,0.4-0.2,0.4-0.4C18.4,246.8,18.2,246.6,18,246.6C18,246.6,18,246.6,18,246.6z
			 M13,245.7l0.6-1.5l0.5,1.5H13z M14.2,243.4c0-0.1-0.1-0.2-0.2-0.3c-0.1-0.1-0.2-0.1-0.3-0.1c-0.1,0-0.2,0-0.3,0.1
			c-0.1,0.1-0.2,0.2-0.2,0.3l-1.4,3.5c0,0,0,0.1,0,0.1c0,0.1,0,0.1,0,0.2c0,0,0.1,0.1,0.1,0.1c0,0,0.1,0.1,0.1,0.1c0,0,0.1,0,0.1,0
			c0.1,0,0.1,0,0.2,0c0,0,0.1-0.1,0.1-0.1c0,0,0.1-0.1,0.1-0.1l0.3-0.7h1.8l0.3,0.7c0,0,0,0.1,0.1,0.1l0.1,0.1h0.2h0.2
			c0,0,0.1,0,0.1-0.1c0,0,0.1-0.1,0.1-0.1c0,0,0-0.1,0-0.1c0-0.1,0-0.1,0-0.2L14.2,243.4z M12.3,243.4c0-0.1,0-0.2-0.1-0.3
			c-0.1-0.1-0.2-0.1-0.3-0.1H9.1c-0.1,0-0.2,0-0.3,0.1c-0.1,0.1-0.1,0.2-0.1,0.3c0,0.1,0,0.2,0.1,0.3c0.1,0.1,0.2,0.1,0.3,0.1h1v3.2
			c0,0.2,0.2,0.4,0.4,0.4c0,0,0,0,0,0c0.1,0,0.2,0,0.3-0.1c0.1-0.1,0.1-0.2,0.1-0.3v-3.2h1c0.1,0,0.2,0,0.3-0.1
			C12.3,243.6,12.3,243.5,12.3,243.4L12.3,243.4z"/>
		<line class="st15" x1="29.3" y1="236.4" x2="29.3" y2="256.2"/>
		<g class="st12">
			<path d="M67.1,244.8c0,0.5-0.1,1-0.3,1.4s-0.4,0.9-0.7,1.3c-0.3,0.4-0.6,0.8-1,1.2c-0.4,0.4-0.8,0.7-1.3,0.9c0,0-0.1,0-0.1,0
				c0,0-0.1,0-0.1-0.1l-0.3-0.4c0,0,0-0.1,0-0.1s0-0.1,0.1-0.1c0.5-0.3,0.9-0.6,1.3-1c0.4-0.4,0.7-0.8,1-1.2c-0.3,0-0.7,0.1-1,0.1
				c-0.4,0-0.7,0-1,0c0,0,0,0-0.1,0c0,0,0-0.1,0-0.1v-0.5c0,0,0-0.1,0-0.1c0,0,0,0,0.1,0c0.2,0,0.4,0,0.6,0c0.2,0,0.4,0,0.6,0
				c0.2,0,0.4,0,0.6,0c0.2,0,0.4,0,0.6,0c0-0.1,0.1-0.3,0.1-0.4c0-0.1,0.1-0.3,0.1-0.4c0-0.1,0-0.2,0-0.2c0,0-0.1-0.1-0.2-0.1h-2.2
				c-0.1,0-0.1,0-0.1-0.1v-0.6c0-0.1,0-0.1,0.1-0.1h2.9c0.2,0,0.4,0,0.5,0.1C67.1,244.5,67.1,244.6,67.1,244.8z M70.3,247.2
				C70.2,247.2,70.2,247.2,70.3,247.2l-1.2,0v3.9c0,0.1,0,0.1-0.1,0.1h-0.7c-0.1,0-0.1,0-0.1-0.1v-7.4c0-0.1,0-0.1,0.1-0.1H69
				c0.1,0,0.1,0,0.1,0.1v2.7h1.1c0,0,0.1,0,0.1,0c0,0,0,0,0,0.1L70.3,247.2C70.3,247.1,70.3,247.2,70.3,247.2z"/>
			<path d="M74.6,244.8c0,0.5-0.1,1-0.3,1.4s-0.4,0.9-0.7,1.3c-0.3,0.4-0.6,0.8-1,1.2c-0.4,0.4-0.8,0.7-1.3,0.9c0,0-0.1,0-0.1,0
				c0,0-0.1,0-0.1-0.1l-0.3-0.4c0,0,0-0.1,0-0.1s0-0.1,0.1-0.1c0.5-0.3,0.9-0.6,1.3-1c0.4-0.4,0.7-0.8,1-1.2c-0.3,0-0.7,0.1-1,0.1
				c-0.4,0-0.7,0-1,0c0,0,0,0-0.1,0c0,0,0-0.1,0-0.1v-0.5c0,0,0-0.1,0-0.1c0,0,0,0,0.1,0c0.2,0,0.4,0,0.6,0c0.2,0,0.4,0,0.6,0
				c0.2,0,0.4,0,0.6,0c0.2,0,0.4,0,0.6,0c0-0.1,0.1-0.3,0.1-0.4c0-0.1,0.1-0.3,0.1-0.4c0-0.1,0-0.2,0-0.2c0,0-0.1-0.1-0.2-0.1h-2.2
				c-0.1,0-0.1,0-0.1-0.1v-0.6c0-0.1,0-0.1,0.1-0.1h2.9c0.2,0,0.4,0,0.5,0.1C74.6,244.5,74.7,244.6,74.6,244.8z M77.8,247.2
				C77.8,247.2,77.7,247.2,77.8,247.2l-1.2,0v3.9c0,0.1,0,0.1-0.1,0.1h-0.7c-0.1,0-0.1,0-0.1-0.1v-7.4c0-0.1,0-0.1,0.1-0.1h0.7
				c0.1,0,0.1,0,0.1,0.1v2.7h1.1c0,0,0.1,0,0.1,0c0,0,0,0,0,0.1L77.8,247.2C77.8,247.1,77.8,247.2,77.8,247.2z"/>
			<path d="M85.2,249.9C85.2,249.9,85.1,249.9,85.2,249.9l-7,0c0,0-0.1,0-0.1,0c0,0,0-0.1,0-0.1v-0.5c0-0.1,0-0.1,0.1-0.1h3v-1.5
				c-0.3,0-0.6-0.1-0.9-0.2s-0.5-0.2-0.7-0.4c-0.2-0.2-0.3-0.3-0.4-0.5c-0.1-0.2-0.2-0.4-0.2-0.7c0-0.3,0.1-0.5,0.2-0.8
				s0.3-0.4,0.6-0.6s0.5-0.3,0.8-0.4c0.3-0.1,0.7-0.1,1-0.1s0.7,0,1,0.1c0.3,0.1,0.6,0.2,0.8,0.4c0.2,0.2,0.4,0.4,0.5,0.6
				s0.2,0.5,0.2,0.8c0,0.3-0.1,0.5-0.2,0.7c-0.1,0.2-0.3,0.4-0.4,0.5c-0.2,0.2-0.4,0.3-0.7,0.4c-0.3,0.1-0.6,0.2-0.9,0.2v1.5h3
				c0,0,0.1,0,0.1,0c0,0,0,0.1,0,0.1L85.2,249.9C85.2,249.8,85.2,249.9,85.2,249.9z M81.6,244.8c-0.2,0-0.4,0-0.6,0.1
				c-0.2,0.1-0.4,0.1-0.5,0.2c-0.2,0.1-0.3,0.2-0.4,0.3c-0.1,0.1-0.1,0.3-0.1,0.4s0,0.3,0.1,0.4c0.1,0.1,0.2,0.2,0.4,0.3
				c0.2,0.1,0.3,0.2,0.5,0.2s0.4,0.1,0.6,0.1s0.4,0,0.6-0.1s0.4-0.1,0.5-0.2c0.2-0.1,0.3-0.2,0.4-0.3c0.1-0.1,0.1-0.3,0.1-0.4
				s0-0.3-0.1-0.4c-0.1-0.1-0.2-0.2-0.4-0.3c-0.2-0.1-0.3-0.2-0.5-0.2C82.1,244.8,81.9,244.8,81.6,244.8z"/>
			<path d="M88.6,249.4c0,0-0.1,0-0.1,0c0,0-0.1,0-0.1,0l-0.3-0.4c0,0,0-0.1,0-0.1c0,0,0-0.1,0.1-0.1c0.4-0.2,0.7-0.5,1-0.8
				s0.5-0.6,0.7-0.9c0.2-0.3,0.4-0.6,0.5-0.9c0.1-0.3,0.2-0.6,0.2-0.9c0-0.1,0-0.2,0-0.2s-0.1-0.1-0.2-0.1h-1.8
				c-0.1,0-0.1,0-0.1-0.1v-0.5c0,0,0-0.1,0-0.1c0,0,0,0,0.1,0h2.3c0.2,0,0.4,0,0.5,0.1c0.1,0.1,0.1,0.2,0.1,0.4c0,0.1,0,0.2,0,0.3
				c0,0.1,0,0.2,0,0.3h0.9v-1.6c0-0.1,0-0.1,0.1-0.1h0.7c0.1,0,0.1,0,0.1,0.1v7c0,0.1,0,0.1-0.1,0.1h-0.7c-0.1,0-0.1,0-0.1-0.1V248
				H91c0,0-0.1,0-0.1,0c0,0,0,0,0-0.1v-0.5c0,0,0,0,0-0.1c0,0,0,0,0.1,0h1.1v-1.1h-1c-0.2,0.6-0.5,1.2-1,1.8
				C89.7,248.5,89.2,249,88.6,249.4z M94.5,251.2h-0.7c-0.1,0-0.1,0-0.1-0.1v-7.4c0-0.1,0-0.1,0.1-0.1h0.7c0.1,0,0.1,0,0.1,0.1v7.4
				C94.6,251.2,94.5,251.2,94.5,251.2z"/>
			<path d="M96,248.1c-0.1,0-0.1,0-0.1-0.1l-0.2-0.4c0,0,0-0.1,0-0.1s0-0.1,0.1-0.1c0.3-0.1,0.6-0.3,0.8-0.5
				c0.3-0.2,0.5-0.4,0.7-0.6c0.2-0.2,0.4-0.4,0.6-0.6s0.3-0.4,0.4-0.7c0,0,0-0.1,0-0.1c0,0,0-0.1-0.1-0.1h-2c0,0-0.1,0-0.1,0
				s0-0.1,0-0.1v-0.5c0,0,0-0.1,0-0.1c0,0,0.1,0,0.1,0h2.5c0.2,0,0.4,0,0.5,0.1c0.1,0.1,0.2,0.2,0.1,0.4c0,0.1,0,0.1,0,0.2
				c0,0.1,0,0.1-0.1,0.2c-0.1,0.2-0.2,0.4-0.3,0.6s-0.2,0.4-0.3,0.5c0.1,0.1,0.2,0.2,0.3,0.3c0.1,0.1,0.2,0.2,0.4,0.3
				c0.1,0.1,0.2,0.2,0.4,0.2s0.2,0.1,0.3,0.2c0.1,0.1,0.1,0.1,0.1,0.2l-0.2,0.4c-0.1,0.1-0.1,0.1-0.2,0.1c-0.1,0-0.2-0.1-0.3-0.2
				s-0.2-0.2-0.4-0.3c-0.1-0.1-0.3-0.2-0.4-0.3c-0.1-0.1-0.3-0.2-0.4-0.3c-0.3,0.3-0.6,0.5-0.9,0.8c-0.3,0.2-0.7,0.5-1.1,0.6
				C96.1,248.1,96.1,248.1,96,248.1z M101.6,250.3c-0.1,0.2-0.3,0.3-0.5,0.5c-0.2,0.1-0.5,0.2-0.8,0.3c-0.3,0.1-0.6,0.1-1,0.1
				c-0.4,0-0.7,0-1-0.1c-0.3-0.1-0.5-0.2-0.7-0.3c-0.2-0.1-0.4-0.3-0.5-0.5s-0.2-0.4-0.2-0.6c0-0.2,0.1-0.4,0.2-0.6
				c0.1-0.2,0.3-0.3,0.5-0.5c0.2-0.1,0.5-0.2,0.7-0.3c0.3-0.1,0.6-0.1,1-0.1c0.3,0,0.7,0,1,0.1c0.3,0.1,0.5,0.2,0.8,0.3
				c0.2,0.1,0.4,0.3,0.5,0.5c0.1,0.2,0.2,0.4,0.2,0.6C101.8,249.9,101.8,250.1,101.6,250.3z M100.7,249.4c-0.1-0.1-0.2-0.2-0.3-0.2
				c-0.1-0.1-0.3-0.1-0.5-0.2c-0.2,0-0.4-0.1-0.6-0.1c-0.4,0-0.8,0.1-1,0.2c-0.3,0.1-0.4,0.3-0.4,0.6c0,0.1,0,0.2,0.1,0.3
				c0.1,0.1,0.2,0.2,0.3,0.2c0.1,0.1,0.3,0.1,0.5,0.1c0.2,0,0.4,0,0.6,0c0.2,0,0.4,0,0.6,0c0.2,0,0.3-0.1,0.5-0.1
				c0.1-0.1,0.2-0.1,0.3-0.2c0.1-0.1,0.1-0.2,0.1-0.3C100.9,249.6,100.8,249.5,100.7,249.4z M99.5,246.1v-0.6c0,0,0,0,0-0.1
				c0,0,0,0,0.1,0h1.3v-1.7c0-0.1,0-0.1,0.1-0.1h0.7c0.1,0,0.1,0,0.1,0.1v4.2c0,0.1,0,0.1-0.1,0.1h-0.7c-0.1,0-0.1,0-0.1-0.1v-1.8
				h-1.3C99.6,246.2,99.5,246.2,99.5,246.1C99.5,246.1,99.5,246.1,99.5,246.1z"/>
			<path d="M112.2,249.9C112.2,249.9,112.2,249.9,112.2,249.9l-7,0c0,0-0.1,0-0.1,0c0,0,0-0.1,0-0.1v-0.5c0,0,0-0.1,0-0.1
				c0,0,0,0,0.1,0h3V248h-1.4c-0.1,0-0.2,0-0.3,0c-0.1,0-0.1,0-0.2-0.1c0,0-0.1-0.1-0.1-0.2c0-0.1,0-0.2,0-0.3v-1.3
				c0-0.1,0-0.2,0-0.3c0-0.1,0-0.1,0.1-0.2c0,0,0.1-0.1,0.2-0.1c0.1,0,0.2,0,0.3,0h3.3c0.1,0,0.1,0,0.1,0c0,0,0,0,0-0.1v-0.6
				c0-0.1,0-0.1,0-0.1c0,0,0,0-0.1,0h-3.8c0,0-0.1,0-0.1,0c0,0,0,0,0-0.1v-0.5c0,0,0-0.1,0-0.1c0,0,0,0,0.1,0h4.2
				c0.2,0,0.4,0,0.5,0.1s0.1,0.2,0.1,0.4v1.3c0,0.2,0,0.3-0.1,0.4c-0.1,0.1-0.2,0.1-0.5,0.1h-3.3c-0.1,0-0.1,0-0.1,0c0,0,0,0,0,0.1
				v0.6c0,0.1,0,0.1,0,0.1c0,0,0,0,0.1,0h4c0,0,0.1,0,0.1,0s0,0,0,0.1v0.5c0,0,0,0.1,0,0.1c0,0,0,0-0.1,0h-2.1v1.2h3
				c0,0,0.1,0,0.1,0c0,0,0,0.1,0,0.1L112.2,249.9C112.3,249.8,112.3,249.9,112.2,249.9z"/>
			<path d="M119.8,249.8C119.7,249.9,119.7,249.9,119.8,249.8l-7,0c0,0-0.1,0-0.1,0c0,0,0-0.1,0-0.1v-0.5c0,0,0-0.1,0-0.1
				c0,0,0,0,0.1,0h4.8c0.1-0.5,0.2-1.1,0.2-1.7c0-0.7,0.1-1.4,0.1-2.1c0-0.1,0-0.2,0-0.2s-0.1-0.1-0.2-0.1h-3.9c0,0-0.1,0-0.1,0
				c0,0,0,0,0-0.1v-0.5c0,0,0-0.1,0-0.1s0,0,0.1,0h4.5c0.2,0,0.4,0.1,0.5,0.2c0.1,0.1,0.1,0.3,0.1,0.5c0,0.7,0,1.4-0.1,2.1
				c0,0.7-0.1,1.4-0.2,2.1h1.2c0,0,0.1,0,0.1,0c0,0,0,0.1,0,0.1L119.8,249.8C119.8,249.8,119.8,249.8,119.8,249.8z"/>
			<path d="M124.4,245.9c0,0.3,0,0.5-0.1,0.8c-0.1,0.2-0.2,0.4-0.4,0.6c-0.2,0.2-0.4,0.3-0.6,0.4c-0.2,0.1-0.5,0.2-0.8,0.2
				s-0.5-0.1-0.8-0.2c-0.2-0.1-0.4-0.2-0.6-0.4c-0.2-0.2-0.3-0.4-0.4-0.6c-0.1-0.2-0.1-0.5-0.1-0.8c0-0.3,0-0.5,0.1-0.7
				c0.1-0.2,0.2-0.4,0.4-0.6s0.4-0.3,0.6-0.4c0.2-0.1,0.5-0.2,0.8-0.2s0.6,0.1,0.8,0.2c0.2,0.1,0.4,0.2,0.6,0.4
				c0.2,0.2,0.3,0.4,0.4,0.6C124.4,245.4,124.4,245.6,124.4,245.9z M123.5,245.9c0-0.2,0-0.3-0.1-0.4s-0.1-0.3-0.2-0.4
				c-0.1-0.1-0.2-0.2-0.3-0.2c-0.1-0.1-0.3-0.1-0.4-0.1c-0.2,0-0.3,0-0.4,0.1c-0.1,0.1-0.2,0.1-0.3,0.2c-0.1,0.1-0.2,0.2-0.2,0.4
				s-0.1,0.3-0.1,0.4c0,0.2,0,0.3,0.1,0.4s0.1,0.3,0.2,0.4c0.1,0.1,0.2,0.2,0.3,0.2c0.1,0.1,0.3,0.1,0.4,0.1c0.2,0,0.3,0,0.4-0.1
				c0.1-0.1,0.2-0.1,0.3-0.2c0.1-0.1,0.2-0.2,0.2-0.4S123.5,246.1,123.5,245.9z M126.7,251C126.7,251.1,126.6,251.1,126.7,251
				l-4.2,0c-0.2,0-0.4,0-0.5-0.1c-0.1-0.1-0.1-0.2-0.1-0.4v-1.8c0,0,0-0.1,0-0.1c0,0,0,0,0.1,0h0.7c0,0,0.1,0,0.1,0c0,0,0,0,0,0.1
				v1.5c0,0.1,0,0.1,0,0.1c0,0,0.1,0,0.1,0h3.7c0,0,0.1,0,0.1,0c0,0,0,0,0,0.1L126.7,251C126.7,251,126.7,251,126.7,251z
				 M126.5,248.9c0,0.1,0,0.1-0.1,0.1h-0.7c-0.1,0-0.1,0-0.1-0.1v-5.2c0-0.1,0-0.1,0.1-0.1h0.7c0.1,0,0.1,0,0.1,0.1V248.9z"/>
		</g>
		<g class="st7">
			<path d="M6.2,192.6h180.3c2.8,0,5,2.2,5,5v20.9c0,2.8-2.2,5-5,5H6.2c-2.8,0-5-2.2-5-5v-20.9C1.2,194.8,3.4,192.6,6.2,192.6z"/>
		</g>
		<path class="st1" d="M6.2,190.6h180.3c2.8,0,5,2.2,5,5v20.9c0,2.8-2.2,5-5,5H6.2c-2.8,0-5-2.2-5-5v-20.9
			C1.2,192.8,3.4,190.6,6.2,190.6z"/>
		<line class="st15" x1="29.3" y1="196.2" x2="29.3" y2="216"/>
		<g class="st12">
			<path d="M67.1,209.9c-0.1,0-0.2,0.1-0.4,0.1c-0.1,0-0.3,0.1-0.5,0.1c-0.2,0-0.3,0-0.5,0.1c-0.2,0-0.3,0-0.5,0
				c-0.4,0-0.9-0.1-1.2-0.2s-0.7-0.3-1-0.6c-0.3-0.3-0.5-0.6-0.6-1c-0.2-0.4-0.2-0.8-0.2-1.3c0-0.5,0.1-0.9,0.2-1.3
				c0.1-0.4,0.3-0.7,0.6-1c0.3-0.3,0.6-0.5,1-0.6c0.4-0.2,0.8-0.2,1.3-0.2c0.3,0,0.6,0,0.9,0.1c0.3,0,0.5,0.1,0.7,0.2
				c0.1,0,0.1,0,0.1,0.1s0,0,0,0.1l-0.1,0.7c0,0,0,0.1,0,0.1c0,0-0.1,0-0.1,0c-0.3-0.1-0.5-0.1-0.7-0.2c-0.2,0-0.5-0.1-0.7-0.1
				c-0.3,0-0.6,0.1-0.9,0.2s-0.5,0.3-0.7,0.5s-0.3,0.4-0.4,0.7s-0.2,0.6-0.2,0.9c0,0.4,0.1,0.7,0.2,1s0.3,0.5,0.4,0.7
				s0.4,0.3,0.7,0.4c0.3,0.1,0.5,0.1,0.9,0.1c0.2,0,0.4,0,0.6,0c0.2,0,0.3-0.1,0.4-0.1v-1.6H65c0,0-0.1,0-0.1,0c0,0,0,0,0-0.1v-0.6
				c0,0,0-0.1,0-0.1s0,0,0.1,0h2c0.1,0,0.1,0,0.2,0c0,0,0,0.1,0,0.2v2.6c0,0.1,0,0.1,0,0.2C67.2,209.9,67.1,209.9,67.1,209.9z"/>
			<path d="M72.1,209.5c-0.2,0.2-0.4,0.4-0.7,0.5s-0.6,0.2-0.9,0.2c-0.3,0-0.6-0.1-0.9-0.2c-0.3-0.1-0.5-0.3-0.7-0.5
				s-0.3-0.5-0.4-0.7c-0.1-0.3-0.1-0.6-0.1-0.9c0-0.3,0-0.6,0.1-0.9c0.1-0.3,0.2-0.5,0.4-0.7s0.4-0.4,0.7-0.5s0.6-0.2,0.9-0.2
				c0.3,0,0.6,0.1,0.9,0.2s0.5,0.3,0.7,0.5c0.2,0.2,0.3,0.5,0.4,0.7c0.1,0.3,0.1,0.6,0.1,0.9c0,0.3,0,0.6-0.1,0.9
				C72.4,209.1,72.3,209.3,72.1,209.5z M70.5,206.3c-0.2,0-0.4,0-0.5,0.1s-0.3,0.2-0.4,0.4c-0.1,0.1-0.2,0.3-0.2,0.5
				c0,0.2-0.1,0.4-0.1,0.6c0,0.2,0,0.4,0.1,0.6c0,0.2,0.1,0.4,0.2,0.5c0.1,0.1,0.2,0.3,0.4,0.4c0.2,0.1,0.3,0.1,0.5,0.1
				s0.4,0,0.5-0.1c0.2-0.1,0.3-0.2,0.4-0.4c0.1-0.1,0.2-0.3,0.2-0.5c0-0.2,0.1-0.4,0.1-0.6c0-0.2,0-0.4-0.1-0.5
				c0-0.2-0.1-0.3-0.2-0.5c-0.1-0.1-0.2-0.3-0.4-0.4C70.9,206.4,70.7,206.3,70.5,206.3z"/>
			<path d="M77,209.5c-0.2,0.2-0.4,0.4-0.7,0.5s-0.6,0.2-0.9,0.2c-0.3,0-0.6-0.1-0.9-0.2c-0.3-0.1-0.5-0.3-0.7-0.5s-0.3-0.5-0.4-0.7
				c-0.1-0.3-0.1-0.6-0.1-0.9c0-0.3,0-0.6,0.1-0.9c0.1-0.3,0.2-0.5,0.4-0.7s0.4-0.4,0.7-0.5s0.6-0.2,0.9-0.2c0.3,0,0.6,0.1,0.9,0.2
				s0.5,0.3,0.7,0.5c0.2,0.2,0.3,0.5,0.4,0.7c0.1,0.3,0.1,0.6,0.1,0.9c0,0.3,0,0.6-0.1,0.9C77.2,209.1,77.1,209.3,77,209.5z
				 M75.4,206.3c-0.2,0-0.4,0-0.5,0.1s-0.3,0.2-0.4,0.4c-0.1,0.1-0.2,0.3-0.2,0.5c0,0.2-0.1,0.4-0.1,0.6c0,0.2,0,0.4,0.1,0.6
				c0,0.2,0.1,0.4,0.2,0.5c0.1,0.1,0.2,0.3,0.4,0.4c0.2,0.1,0.3,0.1,0.5,0.1s0.4,0,0.5-0.1c0.2-0.1,0.3-0.2,0.4-0.4
				c0.1-0.1,0.2-0.3,0.2-0.5c0-0.2,0.1-0.4,0.1-0.6c0-0.2,0-0.4-0.1-0.5c0-0.2-0.1-0.3-0.2-0.5c-0.1-0.1-0.2-0.3-0.4-0.4
				C75.7,206.4,75.6,206.3,75.4,206.3z"/>
			<path d="M79.9,211.3c-0.2,0-0.4,0-0.6,0c-0.2,0-0.4-0.1-0.6-0.2c0,0-0.1,0-0.1-0.1s0,0,0-0.1l0-0.6c0-0.1,0.1-0.1,0.2-0.1
				c0.2,0.1,0.4,0.2,0.6,0.2c0.2,0,0.4,0.1,0.6,0.1c0.3,0,0.6-0.1,0.8-0.3c0.2-0.2,0.3-0.4,0.3-0.7c-0.1,0.1-0.3,0.3-0.5,0.3
				c-0.2,0.1-0.4,0.1-0.6,0.1c-0.3,0-0.5-0.1-0.7-0.2c-0.2-0.1-0.4-0.2-0.6-0.4c-0.2-0.2-0.3-0.4-0.4-0.7c-0.1-0.3-0.1-0.5-0.1-0.8
				c0-0.8,0.2-1.4,0.5-1.8c0.3-0.4,0.8-0.6,1.4-0.6c0.1,0,0.2,0,0.3,0c0.1,0,0.2,0.1,0.3,0.1c0.1,0,0.2,0.1,0.3,0.1
				c0.1,0.1,0.2,0.1,0.2,0.2l0-0.3c0,0,0-0.1,0-0.1c0,0,0,0,0.1,0h0.6c0.1,0,0.1,0,0.1,0.1v3.3c0,0.7-0.2,1.3-0.5,1.7
				S80.6,211.3,79.9,211.3z M80.1,206.4c-0.3,0-0.6,0.1-0.8,0.4c-0.2,0.2-0.3,0.6-0.3,1.2c0,0.2,0,0.4,0.1,0.5
				c0.1,0.2,0.1,0.3,0.2,0.4s0.2,0.2,0.3,0.3c0.1,0.1,0.2,0.1,0.4,0.1c0.1,0,0.3,0,0.4-0.1c0.1-0.1,0.2-0.1,0.3-0.3
				c0.1-0.1,0.2-0.2,0.2-0.4c0.1-0.2,0.1-0.3,0.1-0.6c0-0.5-0.1-0.9-0.3-1.1C80.7,206.5,80.5,206.4,80.1,206.4z"/>
			<path d="M83.3,210.1C83.2,210.1,83.2,210.1,83.3,210.1l-0.1-6.4c0,0,0,0,0-0.1c0,0,0,0,0.1,0H84c0,0,0,0,0.1,0c0,0,0,0,0,0.1v6.3
				c0,0,0,0,0,0.1c0,0,0,0-0.1,0H83.3z"/>
			<path d="M88.6,208.1C88.6,208.1,88.6,208.2,88.6,208.1c-0.1,0.1-0.1,0.1-0.1,0.1h-2.6c0,0.4,0.1,0.6,0.3,0.9
				c0.2,0.2,0.5,0.3,0.8,0.3c0.2,0,0.4,0,0.6-0.1s0.4-0.1,0.6-0.2c0,0,0.1,0,0.1,0c0,0,0,0.1,0,0.1v0.6c0,0,0,0.1,0,0.1
				c0,0,0,0.1-0.1,0.1c-0.2,0.1-0.3,0.1-0.6,0.2s-0.4,0.1-0.7,0.1c-0.7,0-1.2-0.2-1.5-0.6s-0.5-1-0.5-1.7c0-0.3,0-0.6,0.1-0.8
				s0.2-0.5,0.3-0.7c0.2-0.2,0.3-0.4,0.6-0.5c0.2-0.1,0.5-0.2,0.8-0.2c0.3,0,0.6,0.1,0.8,0.2s0.4,0.3,0.6,0.5s0.2,0.5,0.3,0.7
				s0.1,0.6,0.1,0.9c0,0,0,0.1,0,0.1C88.6,208,88.6,208.1,88.6,208.1z M86.8,206.3c-0.1,0-0.3,0-0.4,0.1c-0.1,0.1-0.2,0.1-0.3,0.2
				c-0.1,0.1-0.1,0.2-0.2,0.4c-0.1,0.1-0.1,0.3-0.1,0.4h1.8c0-0.1,0-0.2-0.1-0.4s-0.1-0.2-0.2-0.4s-0.2-0.2-0.3-0.3
				C87.1,206.4,87,206.3,86.8,206.3z"/>
			<path d="M92.1,209.1c0,0-0.1,0-0.1,0c0,0-0.1,0-0.1,0l-0.3-0.4c0,0,0-0.1,0-0.1c0,0,0-0.1,0.1-0.1c0.4-0.2,0.7-0.5,1-0.8
				s0.5-0.6,0.7-0.9c0.2-0.3,0.4-0.6,0.5-0.9c0.1-0.3,0.2-0.6,0.2-0.9c0-0.1,0-0.2,0-0.2s-0.1-0.1-0.2-0.1H92c-0.1,0-0.1,0-0.1-0.1
				v-0.5c0,0,0-0.1,0-0.1c0,0,0,0,0.1,0h2.3c0.2,0,0.4,0,0.5,0.1c0.1,0.1,0.1,0.2,0.1,0.4c0,0.1,0,0.2,0,0.3c0,0.1,0,0.2,0,0.3h0.9
				v-1.6c0-0.1,0-0.1,0.1-0.1h0.7c0.1,0,0.1,0,0.1,0.1v7c0,0.1,0,0.1-0.1,0.1h-0.7c-0.1,0-0.1,0-0.1-0.1v-2.9h-1.1c0,0-0.1,0-0.1,0
				c0,0,0,0,0-0.1v-0.5c0,0,0,0,0-0.1c0,0,0,0,0.1,0h1.1v-1.1h-1c-0.2,0.6-0.5,1.2-1,1.8C93.2,208.3,92.7,208.7,92.1,209.1z M98,211
				h-0.7c-0.1,0-0.1,0-0.1-0.1v-7.4c0-0.1,0-0.1,0.1-0.1H98c0.1,0,0.1,0,0.1,0.1v7.4C98.1,211,98,211,98,211z"/>
			<path d="M99.5,207.8c-0.1,0-0.1,0-0.1-0.1l-0.2-0.4c0,0,0-0.1,0-0.1c0,0,0-0.1,0.1-0.1c0.3-0.1,0.6-0.3,0.8-0.5s0.5-0.4,0.7-0.6
				c0.2-0.2,0.4-0.4,0.6-0.6s0.3-0.4,0.4-0.7c0,0,0-0.1,0-0.1c0,0,0-0.1-0.1-0.1h-2c0,0-0.1,0-0.1,0s0-0.1,0-0.1v-0.5
				c0,0,0-0.1,0-0.1c0,0,0.1,0,0.1,0h2.5c0.2,0,0.4,0,0.5,0.1c0.1,0.1,0.2,0.2,0.1,0.4c0,0.1,0,0.1,0,0.2c0,0.1,0,0.1-0.1,0.2
				c-0.1,0.2-0.2,0.4-0.3,0.6s-0.2,0.4-0.3,0.5c0.1,0.1,0.2,0.2,0.3,0.3c0.1,0.1,0.2,0.2,0.4,0.3c0.1,0.1,0.2,0.2,0.4,0.2
				s0.2,0.1,0.3,0.2c0.1,0.1,0.1,0.1,0.1,0.2l-0.2,0.4c-0.1,0.1-0.1,0.1-0.2,0.1c-0.1,0-0.2-0.1-0.3-0.2s-0.2-0.2-0.4-0.3
				c-0.1-0.1-0.3-0.2-0.4-0.3c-0.1-0.1-0.3-0.2-0.4-0.3c-0.3,0.3-0.6,0.5-0.9,0.8s-0.7,0.5-1.1,0.6
				C99.6,207.8,99.6,207.8,99.5,207.8z M105.1,210.1c-0.1,0.2-0.3,0.3-0.5,0.5c-0.2,0.1-0.5,0.2-0.8,0.3c-0.3,0.1-0.6,0.1-1,0.1
				c-0.4,0-0.7,0-1-0.1c-0.3-0.1-0.5-0.2-0.7-0.3c-0.2-0.1-0.4-0.3-0.5-0.5s-0.2-0.4-0.2-0.6c0-0.2,0.1-0.4,0.2-0.6
				c0.1-0.2,0.3-0.3,0.5-0.5c0.2-0.1,0.5-0.2,0.7-0.3c0.3-0.1,0.6-0.1,1-0.1c0.3,0,0.7,0,1,0.1c0.3,0.1,0.5,0.2,0.8,0.3
				c0.2,0.1,0.4,0.3,0.5,0.5c0.1,0.2,0.2,0.4,0.2,0.6C105.3,209.7,105.3,209.9,105.1,210.1z M104.2,209.1c-0.1-0.1-0.2-0.2-0.3-0.2
				c-0.1-0.1-0.3-0.1-0.5-0.2c-0.2,0-0.4-0.1-0.6-0.1c-0.4,0-0.8,0.1-1,0.2c-0.3,0.1-0.4,0.3-0.4,0.6c0,0.1,0,0.2,0.1,0.3
				c0.1,0.1,0.2,0.2,0.3,0.2c0.1,0.1,0.3,0.1,0.5,0.1c0.2,0,0.4,0,0.6,0c0.2,0,0.4,0,0.6,0c0.2,0,0.3-0.1,0.5-0.1
				c0.1-0.1,0.2-0.1,0.3-0.2c0.1-0.1,0.1-0.2,0.1-0.3C104.4,209.4,104.3,209.2,104.2,209.1z M103,205.8v-0.6c0,0,0,0,0-0.1
				c0,0,0,0,0.1,0h1.3v-1.7c0-0.1,0-0.1,0.1-0.1h0.7c0.1,0,0.1,0,0.1,0.1v4.2c0,0.1,0,0.1-0.1,0.1h-0.7c-0.1,0-0.1,0-0.1-0.1v-1.8
				h-1.3C103.1,205.9,103,205.9,103,205.8C103,205.9,103,205.9,103,205.8z"/>
			<path d="M115.7,209.6C115.7,209.7,115.7,209.7,115.7,209.6l-7,0c0,0-0.1,0-0.1,0c0,0,0-0.1,0-0.1v-0.5c0,0,0-0.1,0-0.1
				c0,0,0,0,0.1,0h3v-1.2h-1.4c-0.1,0-0.2,0-0.3,0s-0.1,0-0.2-0.1c0,0-0.1-0.1-0.1-0.2c0-0.1,0-0.2,0-0.3v-1.3c0-0.1,0-0.2,0-0.3
				c0-0.1,0-0.1,0.1-0.2c0,0,0.1-0.1,0.2-0.1c0.1,0,0.2,0,0.3,0h3.3c0.1,0,0.1,0,0.1,0c0,0,0,0,0-0.1v-0.6c0-0.1,0-0.1,0-0.1
				c0,0,0,0-0.1,0h-3.8c0,0-0.1,0-0.1,0c0,0,0,0,0-0.1v-0.5c0,0,0-0.1,0-0.1c0,0,0,0,0.1,0h4.2c0.2,0,0.4,0,0.5,0.1s0.1,0.2,0.1,0.4
				v1.3c0,0.2,0,0.3-0.1,0.4c-0.1,0.1-0.2,0.1-0.5,0.1h-3.3c-0.1,0-0.1,0-0.1,0s0,0,0,0.1v0.6c0,0.1,0,0.1,0,0.1c0,0,0,0,0.1,0h4
				c0,0,0.1,0,0.1,0c0,0,0,0,0,0.1v0.5c0,0,0,0.1,0,0.1c0,0,0,0-0.1,0h-2.1v1.2h3c0,0,0.1,0,0.1,0c0,0,0,0.1,0,0.1L115.7,209.6
				C115.8,209.6,115.8,209.6,115.7,209.6z"/>
			<path d="M123.2,209.6C123.2,209.6,123.2,209.6,123.2,209.6l-7,0c0,0-0.1,0-0.1,0c0,0,0-0.1,0-0.1V209c0,0,0-0.1,0-0.1
				c0,0,0,0,0.1,0h4.8c0.1-0.5,0.2-1.1,0.2-1.7c0-0.7,0.1-1.4,0.1-2.1c0-0.1,0-0.2,0-0.2c0,0-0.1-0.1-0.2-0.1h-3.9c0,0,0,0-0.1,0
				c0,0,0,0,0-0.1v-0.5c0,0,0-0.1,0-0.1s0,0,0.1,0h4.5c0.2,0,0.4,0.1,0.5,0.2c0.1,0.1,0.1,0.3,0.1,0.5c0,0.7,0,1.4-0.1,2.1
				c0,0.7-0.1,1.4-0.2,2.1h1.2c0,0,0.1,0,0.1,0c0,0,0,0.1,0,0.1L123.2,209.6C123.3,209.5,123.3,209.6,123.2,209.6z"/>
			<path d="M127.9,205.6c0,0.3,0,0.5-0.1,0.8c-0.1,0.2-0.2,0.4-0.4,0.6c-0.2,0.2-0.4,0.3-0.6,0.4c-0.2,0.1-0.5,0.2-0.8,0.2
				s-0.5-0.1-0.8-0.2c-0.2-0.1-0.4-0.2-0.6-0.4c-0.2-0.2-0.3-0.4-0.4-0.6c-0.1-0.2-0.1-0.5-0.1-0.8c0-0.3,0-0.5,0.1-0.7
				c0.1-0.2,0.2-0.4,0.4-0.6s0.4-0.3,0.6-0.4c0.2-0.1,0.5-0.2,0.8-0.2s0.6,0.1,0.8,0.2c0.2,0.1,0.4,0.2,0.6,0.4
				c0.2,0.2,0.3,0.4,0.4,0.6C127.9,205.1,127.9,205.4,127.9,205.6z M127,205.7c0-0.2,0-0.3-0.1-0.4s-0.1-0.3-0.2-0.4
				c-0.1-0.1-0.2-0.2-0.3-0.2c-0.1-0.1-0.3-0.1-0.4-0.1c-0.2,0-0.3,0-0.4,0.1c-0.1,0.1-0.2,0.1-0.3,0.2c-0.1,0.1-0.2,0.2-0.2,0.4
				s-0.1,0.3-0.1,0.4c0,0.2,0,0.3,0.1,0.4s0.1,0.3,0.2,0.4c0.1,0.1,0.2,0.2,0.3,0.2c0.1,0.1,0.3,0.1,0.4,0.1c0.2,0,0.3,0,0.4-0.1
				c0.1-0.1,0.2-0.1,0.3-0.2c0.1-0.1,0.2-0.2,0.2-0.4S127,205.8,127,205.7z M130.2,210.8C130.2,210.8,130.1,210.8,130.2,210.8
				l-4.2,0c-0.2,0-0.4,0-0.5-0.1c-0.1-0.1-0.1-0.2-0.1-0.4v-1.8c0,0,0-0.1,0-0.1c0,0,0,0,0.1,0h0.7c0,0,0.1,0,0.1,0c0,0,0,0,0,0.1
				v1.5c0,0.1,0,0.1,0,0.1c0,0,0.1,0,0.1,0h3.7c0,0,0.1,0,0.1,0c0,0,0,0,0,0.1L130.2,210.8C130.2,210.8,130.2,210.8,130.2,210.8z
				 M130,208.7c0,0.1,0,0.1-0.1,0.1h-0.7c-0.1,0-0.1,0-0.1-0.1v-5.2c0-0.1,0-0.1,0.1-0.1h0.7c0.1,0,0.1,0,0.1,0.1V208.7z"/>
		</g>
		<path class="st16" d="M23.7,205H23l0,0h-7.5v3.4h4.7c-0.9,2.6-3.8,4-6.4,3c-2.6-0.9-4-3.8-3-6.4c0.9-2.6,3.8-4,6.4-3
			c0.6,0.2,1.2,0.5,1.6,1l2.4-2.4c-3.4-3.1-8.7-3-11.8,0.4s-3,8.7,0.4,11.8s8.7,3,11.8-0.4c1.4-1.5,2.2-3.6,2.2-5.7
			C23.9,206.2,23.8,205.6,23.7,205z"/>
		<path class="st17" d="M8.1,202.8l2.7,2c1-2.6,3.9-3.8,6.5-2.8c0.6,0.2,1.1,0.5,1.5,0.9l2.4-2.4c-3.3-3.2-8.6-3-11.8,0.3
			C8.9,201.5,8.5,202.1,8.1,202.8z"/>
		<path class="st18" d="M15.5,215c2.1,0,4.1-0.8,5.6-2.2l-2.6-2.2c-0.9,0.6-1.9,1-3,1c-2.1,0-4-1.3-4.7-3.3l-2.7,2.1
			C9.5,213.2,12.4,215,15.5,215z"/>
		<path class="st19" d="M23.7,205H23l0,0h-7.5v3.4h4.7c-0.3,0.9-0.9,1.7-1.7,2.3l0,0l2.6,2.2c1.8-1.6,2.8-3.8,2.8-6.2
			C23.9,206.2,23.8,205.6,23.7,205z"/>
		<g class="st7">
			<path d="M5.6,285.4h180.3c2.8,0,5,2.2,5,5v20.9c0,2.8-2.2,5-5,5H5.6c-2.8,0-5-2.2-5-5v-20.9C0.6,287.6,2.8,285.4,5.6,285.4z"/>
		</g>
		<path class="st1" d="M5.6,283.4h180.3c2.8,0,5,2.2,5,5v20.9c0,2.8-2.2,5-5,5H5.6c-2.8,0-5-2.2-5-5v-20.9
			C0.6,285.6,2.8,283.4,5.6,283.4z"/>
		<line class="st15" x1="29.3" y1="287.4" x2="29.3" y2="307.2"/>
		<g class="st12">
			<path d="M81.1,301.7c0.3,0,0.6,0,1,0c0.3,0,0.7,0,1,0V301c-0.2,0-0.4-0.1-0.5-0.2c-0.2-0.1-0.3-0.2-0.4-0.3
				c-0.1-0.1-0.2-0.2-0.3-0.4c-0.1-0.1-0.1-0.3-0.1-0.5c0-0.2,0-0.4,0.1-0.5s0.2-0.3,0.4-0.4c0.2-0.1,0.3-0.2,0.6-0.3
				c0.2-0.1,0.4-0.1,0.7-0.1c0.2,0,0.5,0,0.7,0.1c0.2,0.1,0.4,0.2,0.6,0.3c0.2,0.1,0.3,0.3,0.4,0.4c0.1,0.2,0.1,0.4,0.1,0.5
				c0,0.2,0,0.3-0.1,0.5c-0.1,0.1-0.2,0.3-0.3,0.4c-0.1,0.1-0.3,0.2-0.4,0.3c-0.2,0.1-0.3,0.1-0.5,0.2v0.7c0.4,0,0.7,0,1-0.1
				c0.3,0,0.6-0.1,0.9-0.1c0,0,0.1,0,0.1,0c0,0,0.1,0,0.1,0.1l0,0.5c0,0,0,0.1,0,0.1c0,0,0,0-0.1,0c-0.3,0-0.7,0.1-1.1,0.1
				c-0.4,0-0.8,0.1-1.3,0.1c-0.4,0-0.9,0-1.3,0.1c-0.4,0-0.9,0-1.2,0c0,0-0.1,0-0.1,0c0,0,0-0.1,0-0.1v-0.5
				C81,301.7,81,301.7,81.1,301.7z M85.7,298C85.6,298,85.6,298,85.7,298l-4.3,0c0,0-0.1,0-0.1,0s0-0.1,0-0.1v-0.4c0,0,0-0.1,0-0.1
				c0,0,0.1,0,0.1,0h4.2c0,0,0.1,0,0.1,0c0,0,0,0.1,0,0.1L85.7,298C85.7,297.9,85.7,298,85.7,298z M84.6,297
				C84.6,297,84.6,297,84.6,297l-2.2,0c0,0,0,0-0.1,0c0,0,0-0.1,0-0.1v-0.5c0,0,0-0.1,0-0.1c0,0,0.1,0,0.1,0h2.1c0,0,0.1,0,0.1,0
				c0,0,0,0.1,0,0.1L84.6,297C84.7,296.9,84.7,296.9,84.6,297z M83.5,299c-0.3,0-0.5,0.1-0.6,0.2c-0.2,0.1-0.3,0.3-0.3,0.5
				s0.1,0.3,0.3,0.5c0.2,0.1,0.4,0.2,0.6,0.2c0.3,0,0.5-0.1,0.7-0.2c0.2-0.1,0.3-0.3,0.3-0.5s-0.1-0.3-0.3-0.5
				C84,299.1,83.8,299,83.5,299z M87.3,303.6c0,0.1,0,0.1-0.1,0.1h-0.7c0,0-0.1,0-0.1,0c0,0,0,0,0-0.1v-7.4c0,0,0-0.1,0-0.1
				s0,0,0.1,0h0.7c0.1,0,0.1,0,0.1,0.1V303.6z"/>
			<path d="M93.6,300C93.6,300.1,93.5,300.1,93.6,300c-0.2,0.1-0.4,0.1-0.6,0.1c-0.2,0-0.4,0-0.6,0.1c-0.2,0-0.4,0-0.6,0
				c-0.2,0-0.4,0-0.5,0v1.2c0,0,0,0.1,0,0.1c0,0-0.1,0-0.1,0h-0.7c0,0-0.1,0-0.1,0c0,0,0-0.1,0-0.1v-1.1c-0.2,0-0.3,0-0.5,0
				c-0.2,0-0.3,0-0.5,0c-0.2,0-0.3,0-0.5,0s-0.3,0-0.4,0c0,0-0.1,0-0.1,0c0,0,0-0.1,0-0.1v-0.5c0,0,0-0.1,0-0.1c0,0,0,0,0.1,0
				c0.4,0,0.8,0,1.2,0c0.4,0,0.9,0,1.3,0s0.8,0,1.2-0.1c0.4,0,0.7-0.1,1-0.1c0,0,0.1,0,0.1,0c0,0,0,0,0.1,0.1L93.6,300
				C93.6,300,93.6,300,93.6,300z M90.9,296.3c0.3,0,0.5,0,0.7,0.1c0.2,0.1,0.4,0.2,0.6,0.3s0.3,0.3,0.4,0.5s0.1,0.4,0.1,0.6
				c0,0.2,0,0.4-0.1,0.6c-0.1,0.2-0.2,0.3-0.4,0.5s-0.4,0.2-0.6,0.3c-0.2,0.1-0.5,0.1-0.7,0.1s-0.5,0-0.7-0.1
				c-0.2-0.1-0.4-0.2-0.6-0.3s-0.3-0.3-0.4-0.5c-0.1-0.2-0.1-0.4-0.1-0.6c0-0.2,0-0.4,0.1-0.6c0.1-0.2,0.2-0.3,0.4-0.5
				s0.4-0.2,0.6-0.3C90.4,296.3,90.7,296.3,90.9,296.3z M95,303.6C94.9,303.6,94.9,303.6,95,303.6l-4.6,0c-0.2,0-0.4,0-0.5-0.1
				s-0.1-0.2-0.1-0.4v-1.1c0,0,0-0.1,0-0.1c0,0,0,0,0.1,0h0.7c0,0,0.1,0,0.1,0c0,0,0,0,0,0.1v0.8c0,0.1,0,0.1,0,0.1c0,0,0.1,0,0.1,0
				h4.1c0,0,0.1,0,0.1,0c0,0,0,0,0,0.1L95,303.6C95,303.5,95,303.6,95,303.6z M90.9,297c-0.1,0-0.3,0-0.4,0.1s-0.2,0.1-0.3,0.2
				c-0.1,0.1-0.2,0.1-0.2,0.2c-0.1,0.1-0.1,0.2-0.1,0.3c0,0.1,0,0.2,0.1,0.3c0.1,0.1,0.1,0.2,0.2,0.2c0.1,0.1,0.2,0.1,0.3,0.2
				s0.2,0.1,0.4,0.1c0.1,0,0.3,0,0.4-0.1s0.2-0.1,0.3-0.2c0.1-0.1,0.2-0.1,0.2-0.2c0.1-0.1,0.1-0.2,0.1-0.3c0-0.1,0-0.2-0.1-0.3
				c-0.1-0.1-0.1-0.2-0.2-0.2c-0.1-0.1-0.2-0.1-0.3-0.2S91.1,297,90.9,297z M94.7,302.1H94c-0.1,0-0.1,0-0.1-0.1v-0.7h-1.4
				c0,0-0.1,0-0.1,0s0,0,0-0.1v-0.5c0,0,0,0,0-0.1s0,0,0.1,0h1.4v-4.3c0-0.1,0-0.1,0.1-0.1h0.7c0.1,0,0.1,0,0.1,0.1v5.8
				C94.8,302.1,94.8,302.1,94.7,302.1z"/>
			<path d="M100,297.3c0,0.5-0.1,1-0.3,1.4c-0.2,0.5-0.4,0.9-0.7,1.3c-0.3,0.4-0.6,0.8-1,1.1s-0.8,0.7-1.3,0.9c0,0-0.1,0-0.1,0
				c0,0-0.1,0-0.1-0.1l-0.3-0.4c0,0,0-0.1,0-0.1c0,0,0-0.1,0.1-0.1c0.8-0.4,1.4-0.9,1.9-1.6c0.5-0.6,0.8-1.3,0.9-2
				c0-0.1,0-0.2,0-0.2c0,0-0.1-0.1-0.2-0.1h-2.3c-0.1,0-0.1,0-0.1-0.1v-0.6c0-0.1,0-0.1,0.1-0.1h2.9c0.2,0,0.4,0,0.5,0.1
				S100,297.1,100,297.3z M103.2,299.8C103.1,299.8,103.1,299.8,103.2,299.8l-1.2,0v3.8c0,0.1,0,0.1-0.1,0.1h-0.7
				c-0.1,0-0.1,0-0.1-0.1v-7.4c0-0.1,0-0.1,0.1-0.1h0.7c0.1,0,0.1,0,0.1,0.1v2.8h1.1c0,0,0.1,0,0.1,0s0,0,0,0.1L103.2,299.8
				C103.2,299.8,103.2,299.8,103.2,299.8z"/>
			<path d="M107.7,298.2c0,0.2,0,0.5-0.1,0.7c-0.1,0.2-0.2,0.4-0.4,0.6c-0.2,0.2-0.4,0.3-0.6,0.4c-0.2,0.1-0.5,0.1-0.8,0.1
				s-0.6,0-0.8-0.1s-0.4-0.2-0.6-0.4c-0.2-0.2-0.3-0.4-0.4-0.6s-0.1-0.4-0.1-0.7c0-0.2,0-0.5,0.1-0.7s0.2-0.4,0.4-0.6
				c0.2-0.2,0.4-0.3,0.6-0.4s0.5-0.1,0.8-0.1s0.5,0,0.8,0.1c0.2,0.1,0.4,0.2,0.6,0.4c0.2,0.2,0.3,0.4,0.4,0.6
				C107.7,297.7,107.7,297.9,107.7,298.2z M106.8,298.2c0-0.1,0-0.3-0.1-0.4s-0.1-0.2-0.2-0.3c-0.1-0.1-0.2-0.2-0.3-0.2
				c-0.1-0.1-0.3-0.1-0.4-0.1c-0.2,0-0.3,0-0.4,0.1c-0.1,0.1-0.2,0.1-0.3,0.2c-0.1,0.1-0.2,0.2-0.2,0.3c0,0.1-0.1,0.3-0.1,0.4
				s0,0.3,0.1,0.4c0.1,0.1,0.1,0.2,0.2,0.3c0.1,0.1,0.2,0.2,0.3,0.2c0.1,0.1,0.3,0.1,0.4,0.1c0.2,0,0.3,0,0.4-0.1
				c0.1-0.1,0.2-0.1,0.3-0.2c0.1-0.1,0.2-0.2,0.2-0.3C106.8,298.4,106.8,298.3,106.8,298.2z M109.7,303.5c-0.1,0.1-0.2,0.1-0.5,0.1
				h-3.5c-0.2,0-0.4,0-0.5-0.1c-0.1-0.1-0.1-0.2-0.1-0.4v-2.4c0,0,0,0,0-0.1c0,0,0,0,0.1,0h0.7c0,0,0.1,0,0.1,0c0,0,0,0,0,0.1v0.7
				h2.8v-0.8c0,0,0,0,0-0.1s0,0,0.1,0h0.7c0,0,0.1,0,0.1,0c0,0,0,0,0,0.1v2.4C109.8,303.3,109.7,303.4,109.7,303.5z M108.9,302.2
				H106v0.6c0,0.1,0,0.1,0.1,0.1h2.5c0.1,0,0.1,0,0.1-0.1V302.2z M109.7,300.2H109c-0.1,0-0.1,0-0.1-0.1v-3.8c0-0.1,0-0.1,0.1-0.1
				h0.7c0.1,0,0.1,0,0.1,0.1v3.8C109.8,300.1,109.7,300.2,109.7,300.2z"/>
		</g>
		<path d="M22,304.3c3-3.6,2.5-9-1.1-12c-0.8-0.6-1.6-1.1-2.6-1.5c-1.3-0.5-2.7-0.6-4-0.4c-4.6,0.7-7.9,4.9-7.2,9.6
			c0.2,1.6,0.9,3.1,1.9,4.3l0,0l0.1,0.1c0.1,0.1,0.1,0.1,0.2,0.2c0.2,0.2,0.3,0.4,0.5,0.5l0.2,0.1c0.2,0.2,0.4,0.3,0.6,0.5l0.1,0.1
			l0,0c2.9,2.1,6.8,2.1,9.7,0l0,0l0.1-0.1c0.2-0.1,0.4-0.3,0.6-0.5l0.2-0.1c0.2-0.2,0.4-0.3,0.5-0.5c0.1-0.1,0.1-0.1,0.2-0.2
			l0.1-0.1H22z M15.5,294c1.5,0,2.7,1.2,2.7,2.7c0,0.2,0,0.4-0.1,0.5c-0.2,1.1-1.1,1.9-2.2,2.1c-1.5,0.4-3-0.5-3.3-2
			c-0.4-1.5,0.5-3,2-3.3C14.9,294,15.2,294,15.5,294z M10.6,304.3c0-1.7,1.3-3,3-3h3.6c0.8,0,1.6,0.3,2.1,0.9
			c0.6,0.6,0.9,1.3,0.9,2.1C17.6,306.8,13.4,306.8,10.6,304.3L10.6,304.3z"/>
		<text transform="matrix(1 0 0 1 92.87 274.35)" class="st20 st21">or</text>
		<line class="st22" x1="33.3" y1="273.1" x2="90.6" y2="273.1"/>
		<line class="st22" x1="101.3" y1="273.1" x2="158.7" y2="273.1"/>
	</g>
	<g id="eff.">
		<path class="st1" d="M103.4,56.8c0.6,0.1,1.2,0.5,1.4,1.1c0.1,0.2,0.2,0.3,0.2,0.5c0,0.2,0,0.4-0.1,0.5c-0.1,0.2-0.3,0.2-0.6,0.2
			c-0.2,0-0.4-0.1-0.6-0.2c-0.1-0.1-0.3-0.1-0.3-0.3h-0.1c-0.3,0-0.6-0.1-0.8-0.3c-0.2-0.2-0.5-0.4-0.7-0.6c0,0-0.1-0.1-0.1-0.1l0,0
			c-0.6,0.3-1.2,0.3-1.9,0.3c-0.6-0.1-1.3-0.2-1.8-0.5H98c-0.5,0.4-1,0.7-1.6,0.8c-0.5,0-0.9,0-1.4-0.1l0,0
			c-0.2,0.2-0.4,0.4-0.6,0.6c-0.2,0.2-0.4,0.4-0.7,0.5c-0.3,0-0.6,0-0.9,0l0,0c-0.1,0.1-0.3,0.1-0.5,0.1c-0.2,0-0.4-0.2-0.5-0.3
			c0,0,0-0.1,0-0.1c0,0,0-0.1,0-0.1c0.1-0.4,0.3-0.8,0.6-1.1l0,0c-0.3-0.3-0.4-0.7-0.2-1.1c0.1-0.5,0.5-0.9,1-1.1
			c0.7-0.2,1.4-0.1,2,0.1v0c0.4-0.5,1-0.9,1.7-1.1c0.8-0.1,1.6,0.1,2.4,0.5h0.1h1.4c0.4,0,0.8,0,1.1,0c0.4,0.1,0.8,0.2,1.1,0.5
			c0.3,0.3,0.4,0.7,0.4,1.1"/>
		<path d="M103.3,57.1c0.5,0.1,0.9,0.4,1.2,0.9c0.2,0.3,0.1,0.9-0.4,0.7c-0.2-0.1-0.2-0.2-0.3-0.3s-0.5-0.1-0.8-0.3
			c-0.2-0.1-0.5-0.3-0.7-0.5c-0.1-0.1-0.2-0.3-0.3-0.3c-0.3-0.1-0.6,0.1-0.9,0.1c-0.6,0.1-1.2,0.1-1.8,0c-0.4-0.2-0.8-0.3-1.2-0.4
			c-0.3,0-0.5,0.3-0.8,0.4c-0.5,0.3-1.1,0.5-1.7,0.4c-0.3,0-0.7-0.2-1,0s-0.4,0.6-0.7,0.8s-0.6,0.2-1,0.2c-0.1,0-0.3,0-0.4,0
			c-1-0.1,0.1-0.7,0.2-1.1s-0.2-0.5-0.3-0.8c0-0.5,0.3-0.9,0.7-1.2c0.6-0.2,1.3-0.2,1.9,0.1c0.2,0,0.3,0,0.4-0.2
			c0.4-0.5,0.9-0.8,1.5-1c0.9-0.2,1.5,0.4,2.3,0.5c1,0.2,3.9-0.6,3.8,1.3c0,0.5,0.7,0.5,0.7,0c0-0.8-0.5-1.6-1.3-1.8
			c-1-0.3-2,0-3-0.1c-0.4-0.1-0.8-0.3-1.2-0.5c-0.4-0.1-0.9-0.1-1.4-0.1c-0.8,0.2-1.4,0.7-1.9,1.3l0.4-0.2c-1.1-0.3-2.3-0.5-3.1,0.5
			c-0.3,0.4-0.5,0.9-0.4,1.4c0,0.2,0.1,0.4,0.2,0.6c0,0,0.1-0.2-0.1-0.1c-0.1,0.1-0.2,0.3-0.3,0.5c-0.2,0.3-0.4,0.8-0.1,1.1
			c0.3,0.4,0.7,0.5,1.2,0.4c0.1,0,0.2-0.1,0.2-0.1s0.3,0.1,0.4,0.1c0.2,0,0.5,0,0.7-0.1c0.5-0.3,0.9-0.7,1.2-1.1l-0.3,0.2
			c0.8,0.1,1.5,0.1,2.2-0.2c0.3-0.1,0.7-0.5,1-0.5c0.4,0.1,0.8,0.2,1.2,0.4c0.4,0.1,0.8,0.1,1.2,0.1c0.4,0,0.8-0.2,1.2-0.2
			c0,0-0.1-0.2,0.1,0c0.1,0.1,0.3,0.3,0.4,0.4c0.3,0.2,0.6,0.4,0.9,0.5c0.3,0,0-0.1,0.2,0.1c0.2,0.2,0.5,0.3,0.8,0.4
			c0.5,0.2,1,0,1.2-0.5c0.5-1.1-0.9-2.3-1.8-2.5C103.1,56.3,102.9,57,103.3,57.1L103.3,57.1z"/>
	</g>
</g>
</svg>
