<?xml version="1.0" encoding="utf-8"?>
<!-- Generator: Adobe Illustrator 26.0.3, SVG Export Plug-In . SVG Version: 6.00 Build 0)  -->
<svg version="1.1" id="레이어_1" xmlns="http://www.w3.org/2000/svg" xmlns:xlink="http://www.w3.org/1999/xlink" x="0px"
	 y="0px" viewBox="0 0 201.4 86" style="enable-background:new 0 0 201.4 86;" xml:space="preserve">
<style type="text/css">
	.st0{opacity:0.25;}
	.st1{fill:none;stroke:#000000;stroke-width:1.42;stroke-miterlimit:10;}
	.st2{fill:#FFFFFF;}
	.st3{fill:none;stroke:#231815;stroke-width:1.42;stroke-miterlimit:10;}
	.st4{enable-background:new    ;}
</style>
<g id="레이어_2_00000054964434983421114480000017469153417574217635_">
	<g id="화면_3">
		<g class="st0">
			<path d="M17.2,2.7h167c9.1,0,16.5,7.4,16.5,16.5l0,0c0,9.1-7.4,16.5-16.5,16.5h-167c-9.1,0-16.5-7.4-16.5-16.5l0,0
				C0.7,10.1,8.1,2.7,17.2,2.7z"/>
			<path class="st1" d="M17.2,2.7h167c9.1,0,16.5,7.4,16.5,16.5l0,0c0,9.1-7.4,16.5-16.5,16.5h-167c-9.1,0-16.5-7.4-16.5-16.5l0,0
				C0.7,10.1,8.1,2.7,17.2,2.7z"/>
		</g>
		<path class="st2" d="M17.2,0.7h167c9.1,0,16.5,7.4,16.5,16.5l0,0c0,9.1-7.4,16.5-16.5,16.5h-167c-9.1,0-16.5-7.4-16.5-16.5l0,0
			C0.7,8.1,8.1,0.7,17.2,0.7z"/>
		<path class="st3" d="M17.2,0.7h167c9.1,0,16.5,7.4,16.5,16.5l0,0c0,9.1-7.4,16.5-16.5,16.5h-167c-9.1,0-16.5-7.4-16.5-16.5l0,0
			C0.7,8.1,8.1,0.7,17.2,0.7z"/>
		<g class="st0">
			<path d="M17.2,52.3h167c9.1,0,16.5,7.4,16.5,16.5l0,0c0,9.1-7.4,16.5-16.5,16.5h-167c-9.1,0-16.5-7.4-16.5-16.5l0,0
				C0.7,59.7,8.1,52.3,17.2,52.3z"/>
			<path class="st1" d="M17.2,52.3h167c9.1,0,16.5,7.4,16.5,16.5l0,0c0,9.1-7.4,16.5-16.5,16.5h-167c-9.1,0-16.5-7.4-16.5-16.5l0,0
				C0.7,59.7,8.1,52.3,17.2,52.3z"/>
		</g>
		<path class="st2" d="M17.2,50.3h167c9.1,0,16.5,7.4,16.5,16.5l0,0c0,9.1-7.4,16.5-16.5,16.5h-167c-9.1,0-16.5-7.4-16.5-16.5l0,0
			C0.7,57.7,8.1,50.3,17.2,50.3z"/>
		<path class="st3" d="M17.2,50.3h167c9.1,0,16.5,7.4,16.5,16.5l0,0c0,9.1-7.4,16.5-16.5,16.5h-167c-9.1,0-16.5-7.4-16.5-16.5l0,0
			C0.7,57.7,8.1,50.3,17.2,50.3z"/>
		<g class="st4">
			<path d="M30.7,15.5c0-1.5,1.2-2.5,2.9-2.5c1.8,0,2.9,0.9,2.9,2.5v0.4c0,1.5-1.2,2.4-2.9,2.4s-2.9-0.9-2.9-2.4V15.5z M33.4,21.5
				H38l0.5-0.6c0.6,0,1.4,0.8,1.2,1.1h-6.3c-0.2,0.2-0.9,0.3-1.4,0.3c-0.4,0-0.7-0.1-0.7-0.5v-1.5l0-1.3c0.6,0,1.5,0,1.9,0.2
				c0.2,0,0.3,0.2,0.3,0.3c0,0.1,0,0.2-0.1,0.3V21.5z M32.7,15.9c0,1.4,0.2,1.9,0.9,1.9s0.9-0.5,0.9-1.9v-0.4c0-1.4-0.2-1.9-0.9-1.9
				s-0.9,0.5-0.9,1.9V15.9z M37.3,12.9c0.7,0,1.3,0.1,1.9,0.2c0.2,0.1,0.3,0.2,0.3,0.3c0,0.1-0.1,0.2-0.2,0.4l0,2.5l0,2.5
				c0,0.6-0.6,0.7-1.4,0.8c-0.4,0-0.7-0.1-0.6-0.4C37.4,17.6,37.4,14.8,37.3,12.9z"/>
			<path d="M40.5,18.3c-0.1-0.1-0.1-0.1,0-0.2c0.8-1.4,1.3-2.4,1.7-4.2l0-0.9c0.6,0,1.2,0.1,1.6,0.3c0.3,0.1,0.4,0.2,0.4,0.4
				c0,0.1-0.1,0.2-0.2,0.4c-0.2,0.5-0.4,1-0.6,1.4c0.7,0.3,1.5,0.8,1.9,1.3c0.3,0.3,0.3,0.8,0,1.1c-0.2,0.3-0.4,0.4-0.8,0.3
				c-0.3,0-0.5-0.1-0.6-0.4c-0.2-0.7-0.5-1.3-0.9-1.9c-0.6,1-1.4,1.7-2.3,2.4C40.6,18.4,40.6,18.4,40.5,18.3z M44.5,18.7h2
				c2.1,0,3.3,0.4,3.3,1.8c0,1.4-1.2,1.8-3.3,1.8h-2c-2.1,0-3.3-0.4-3.3-1.8C41.2,19.1,42.4,18.7,44.5,18.7z M47.8,20.5
				c0-0.7-0.5-1.2-1.3-1.3h-1.9c-0.8,0.1-1.3,0.6-1.3,1.3c0,0.6,0.5,1.2,1.3,1.3h1.9C47.3,21.7,47.8,21.1,47.8,20.5z M45.7,12.9
				c0.6,0,1.1,0,1.6,0.2c0.2,0.1,0.3,0.2,0.3,0.3c0,0.2-0.1,0.2-0.1,0.4l0,1.5h0.2H48c0-0.8,0-1.6,0-2.4c0.6,0,1.1,0.1,1.5,0.2
				c0.2,0.1,0.4,0.2,0.3,0.3c0,0.1-0.1,0.2-0.2,0.4l0,1.8l0,2c0,0.6-0.3,0.7-1,0.7c-0.4,0-0.6-0.1-0.6-0.4c0-0.6,0-1.4,0-2.1h-0.4
				l-0.2,0l0,1.7c0,0.5-0.3,0.7-1.1,0.7c-0.5,0-0.6-0.1-0.6-0.4C45.8,16.5,45.8,14.8,45.7,12.9z"/>
			<path d="M50.8,16c0-1.9,1.1-2.8,2.8-2.8c1.7,0,2.8,0.9,2.8,2.8v3.1c0,1.9-1.1,2.8-2.8,2.8c-1.6,0-2.8-0.9-2.8-2.8V16z M52.8,19.3
				c0,1.4,0.2,2.1,0.8,2.1s0.8-0.7,0.8-2.1v-3.4c0-1.4-0.2-2.2-0.8-2.2s-0.8,0.8-0.8,2.2V19.3z M57.4,12.9c0.7,0,1.3,0.1,1.8,0.2
				c0.2,0.1,0.3,0.2,0.3,0.3c0,0.1-0.1,0.2-0.2,0.4l-0.1,3.7l0,3.8c0,0.7-0.5,0.8-1.3,0.9c-0.4,0-0.6,0-0.6-0.2V12.9z"/>
			<path d="M72,20.6c0.3,0,0.7,0.2,0.9,0.5c0.2,0.2,0.4,0.5,0.4,0.6l-8.1,0l-1.4,0.1l-0.2-0.7l2.1,0.1l5.7,0L72,20.6z M64,18.9
				c-0.1,0-0.1-0.1,0-0.2c0.9-1.2,1.5-2.7,1.9-4.4l0.1-0.9c0.6,0,1.2,0.1,1.6,0.2c0.4,0.1,0.4,0.3,0.4,0.4c0,0.1-0.1,0.2-0.2,0.3
				c-0.2,0.6-0.5,1.1-0.8,1.6c0.5,0.2,1,0.6,1.3,0.9l0,0.1c0.4-0.8,0.8-1.7,1.1-2.7l0.2-1c0.5,0,1.1,0.1,1.5,0.3
				c0.4,0.1,0.5,0.4,0.5,0.5c0,0.1-0.1,0.2-0.2,0.3c-0.2,0.6-0.5,1.2-0.8,1.7c0.7,0.3,1.7,0.8,2.2,1.3c0.3,0.3,0.2,0.9-0.1,1.2
				c-0.2,0.3-0.5,0.3-0.9,0.3c-0.3,0-0.4-0.2-0.5-0.4c-0.2-0.7-0.5-1.3-1-1.9c-0.8,1.1-1.8,2-2.9,2.8c-0.1,0.1-0.2,0-0.3-0.1
				c-0.1,0-0.1-0.1,0-0.2c0.3-0.3,0.5-0.7,0.8-1.2c-0.1,0-0.2,0-0.3,0c-0.2,0-0.3-0.2-0.4-0.3c-0.1-0.5-0.2-0.9-0.4-1.2
				c-0.7,1-1.5,1.8-2.4,2.5C64.2,19,64.1,18.9,64,18.9z"/>
			<path d="M74.2,20.6c-0.1-0.1-0.1-0.2,0-0.3c0-2.6,0-4.9-0.1-6.9c0.7,0,1.4,0,2,0.2c0.2,0,0.3,0.2,0.3,0.3c0,0.2-0.1,0.2-0.2,0.5
				v5.8c1.4-0.1,3.1-0.4,4.4-0.6v-6.7c0.7,0,1.3,0.1,1.8,0.2c0.2,0.1,0.3,0.2,0.3,0.3c0,0.1-0.1,0.2-0.2,0.4l-0.1,3.7l0,3.8
				c0,0.7-0.5,0.8-1.3,0.9c-0.4,0-0.6,0-0.6-0.2v-2.1c-1.4,0.6-3.1,1.1-4.8,1.6c-0.2,0.1-0.2,0.2-0.4,0.2c-0.1,0-0.3,0-0.4-0.1
				C74.8,21.3,74.5,20.9,74.2,20.6z"/>
			<path d="M84.7,13.9l0.7,0l0.1-0.5c0.5,0,1,0.1,1.5,0.2c0.2,0.1,0.4,0.2,0.4,0.3h0.8l0.2-0.5c0.5,0,1.1,0.1,1.6,0.3
				c0.3,0.1,0.4,0.2,0.4,0.4c0,0.1-0.1,0.2-0.1,0.3c-0.5,3.6-1.5,5.4-3.6,7.4c-0.1,0.1-0.2,0.1-0.3,0c-0.1-0.1-0.1-0.1,0-0.2
				c1.1-2.2,1.6-4,2-7.2l-0.9,0c-0.5,2.9-1.3,4.5-3.2,6.6c-0.1,0.1-0.2,0.1-0.3,0c-0.1-0.1-0.1-0.1,0-0.2c0.9-2.1,1.4-3.8,1.7-6.5
				l-0.5,0l-0.8,0l-0.2-0.6L84.7,13.9z M90.6,12.9c0.7,0,1.3,0.1,1.7,0.2c0.2,0.1,0.4,0.2,0.3,0.4c0,0.2-0.1,0.2-0.2,0.4l-0.1,3.3h0
				l0.5-0.5c0.1,0,0.3,0.2,0.4,0.3c0.1,0.2,0.3,0.3,0.4,0.5c0.1,0.1,0,0.2-0.1,0.2h-1.2l0.1,3.6c0,0.6-0.2,0.9-1.2,1
				c-0.4,0.1-0.6-0.1-0.6-0.4C90.6,19,90.7,15.7,90.6,12.9z"/>
			<path d="M99.7,21.7h4.7l0.4-0.5c0.6,0.1,1.6,0.7,1.4,1h-6.6c-0.2,0.1-0.6,0.2-1.1,0.3c-0.4,0-0.7,0-0.9-0.1
				c-0.1-0.1-0.2-0.2-0.2-0.4l0-1l-0.1-1.1c0.5,0,1.5,0,2,0.2l0.1,0.1h4.1v-1h-4.4l-1.6,0.1l-0.2-0.6l1.6,0.1h1.4v-1.1h-2.2
				l-1.4,0.1l-0.1-0.6l1.9,0.1h6.1l0.5-0.4c0.6,0.1,1.3,0.6,1.1,0.9l-3.8,0v1.1h0.9l0.3-0.4c0.5,0,1.2,0.2,1.7,0.3
				c0.2,0,0.3,0.1,0.4,0.3c0.1,0.1-0.1,0.2-0.1,0.4l0,0.6l0,0.6c0,0.3-0.7,0.5-1.5,0.4c-0.3,0-0.5-0.1-0.6-0.2h-4.1l0,0V21.7z
				 M100.9,12.7c0.8,0.1,1.5,0.2,1.9,0.4c0.2,0.1,0.3,0.2,0.3,0.4c0,0.2-0.1,0.3-0.3,0.4c-0.2,0.2-0.3,0.3-0.5,0.4
				c1,0.1,2.2,0.2,3.1,0.5c0.5,0.2,0.6,0.8,0.5,1.1c-0.1,0.3-0.3,0.4-0.7,0.4c-0.2,0-0.5,0-0.7-0.2c-0.8-0.6-1.8-1-2.8-1.4
				c-1.2,0.8-2.6,1.3-4.1,1.7c-0.1,0-0.2,0-0.2-0.1c0-0.1,0-0.2,0-0.2c1.4-0.7,2.4-1.6,3.3-2.6L100.9,12.7z"/>
			<path d="M107.4,16c0-1.9,1.1-2.8,2.8-2.8c1.7,0,2.8,0.9,2.8,2.8v3.1c0,1.9-1.1,2.8-2.8,2.8c-1.6,0-2.8-0.9-2.8-2.8V16z
				 M109.4,19.3c0,1.4,0.2,2.1,0.8,2.1c0.7,0,0.8-0.7,0.8-2.1v-3.4c0-1.4-0.2-2.2-0.8-2.2c-0.7,0-0.8,0.8-0.8,2.2V19.3z M114,12.9
				c0.7,0,1.3,0.1,1.8,0.2c0.2,0.1,0.3,0.2,0.3,0.3c0,0.1-0.1,0.2-0.2,0.4l-0.1,3.7l0,3.8c0,0.7-0.5,0.8-1.3,0.9
				c-0.4,0-0.6,0-0.6-0.2V12.9z"/>
			<path d="M126.2,16.7c0.3,0.1,0.7,0.5,0.8,0.8c0.1,0.1,0,0.2-0.2,0.2h-1.3l0.1,3.6c0,0.6-0.4,0.9-1.3,1c-0.4,0-0.6-0.1-0.6-0.4
				l0-1.8c-1.3,0.5-2.9,1-4.5,1.5c-0.2,0.1-0.2,0.1-0.3,0.2c-0.1,0-0.2,0-0.4-0.1c-0.3-0.2-0.6-0.5-0.9-0.8c-0.1-0.1-0.1-0.2,0-0.3
				c0-1.5,0-2.8-0.1-3.9c0.7,0,1.4,0,1.9,0.1c0.1,0,0.2,0.1,0.2,0.1h0.8v-2.7l-1.2,0l-1.5,0.1l-0.2-0.6l1.5,0l1.3,0l0.3-0.4
				c0.6,0.1,1.3,0.2,1.7,0.3c0.2,0.1,0.3,0.1,0.4,0.3s0,0.3-0.1,0.4l-0.1,1.2l0.1,1.5c0,0.5-0.8,0.7-1.5,0.7c-0.3,0-0.5,0-0.6-0.2
				h-0.9v2.9c1.4-0.1,2.8-0.3,4-0.5c0-2.2,0-4.6,0-6.8c0.7,0,1.1,0.1,1.8,0.2c0.2,0.1,0.3,0.2,0.3,0.3c0,0.1-0.1,0.2-0.2,0.4l0,3.2
				v0.1h0.1L126.2,16.7z"/>
			<path d="M135.3,20.5c0.6,0.1,1.4,0.8,1.3,1.1h-8.1l-1.4,0.1l-0.2-0.7l2.1,0.1l1.8,0l-0.1-2.6c0.7,0,1.3,0,1.9,0.2
				c0.2,0,0.3,0.2,0.3,0.3c0,0.2-0.1,0.2-0.2,0.5l0,1.7h1.9L135.3,20.5z M129.7,17.4h4.7l0.5-0.5c0.7,0.2,1.1,0.8,1,1h-6.3
				c-0.2,0.2-0.5,0.2-1,0.3c-0.4,0-0.7,0.1-0.9,0c-0.1-0.1-0.2-0.1-0.2-0.5l0-1.9l-0.1-2.3c0.4-0.1,1.6,0,2.2,0.3h4.6l0.6-0.5
				c0.5,0.1,1.1,0.8,1,1h-6.1V17.4z"/>
			<path d="M140.3,21.1c-0.1,0-0.1-0.1-0.1-0.2c0.6-2.1,0.9-3.9,1.2-6.6l0-0.9c0.5,0,1,0.1,1.4,0.2c0.4,0.1,0.5,0.3,0.5,0.4
				c0,0.1-0.1,0.2-0.2,0.4c-0.2,1.1-0.5,2-0.8,2.9c0.5,0.5,0.8,1,1,1.5c0.3-1.4,0.6-2.9,0.8-4.6l0-0.9c0.5,0,1.1,0.1,1.5,0.3
				c0.4,0.1,0.5,0.3,0.5,0.4c0,0.1-0.1,0.2-0.2,0.4c-0.2,1-0.4,1.9-0.7,2.7c0.7,0.9,1.3,2,1.7,2.9c0.2,0.4-0.1,1-0.3,1.2
				c-0.2,0.2-0.5,0.2-0.8,0.1c-0.3-0.1-0.5-0.2-0.5-0.6c0-1-0.1-1.8-0.3-2.7c-0.5,1.3-1.1,2.5-2,3.8c-0.1,0.1-0.2,0.1-0.3,0.1
				c-0.1,0-0.1-0.1-0.1-0.2c0.2-0.5,0.4-1.1,0.5-1.7c-0.2,0.1-0.4,0.1-0.6,0c-0.2-0.1-0.4-0.2-0.4-0.5c0-0.5,0-1-0.1-1.5
				c-0.4,1-0.9,1.9-1.5,2.9C140.6,21.1,140.5,21.2,140.3,21.1z M146.3,17.2l-0.1-0.7l0.9,0l0.5,0v-3.7c0.7,0,1.2,0.1,1.7,0.2
				c0.2,0.1,0.3,0.2,0.3,0.3c0,0.1-0.1,0.2-0.2,0.4l-0.1,3.7l0,3.8c0,0.7-0.4,0.8-1.2,0.9c-0.4,0-0.6,0-0.6-0.2v-4.9L146.3,17.2z"/>
			<path d="M150.6,16c0-1.9,1.1-2.8,2.7-2.8c1.7,0,2.7,0.9,2.7,2.8v3.1c0,1.9-1.1,2.8-2.7,2.8s-2.7-0.9-2.7-2.8V16z M152.6,19.2
				c0,1.4,0.2,2,0.8,2s0.8-0.6,0.8-2v-3.3c0-1.4-0.2-2-0.8-2s-0.8,0.6-0.8,2V19.2z M157,12.9c0.7,0,1.1,0.1,1.8,0.2
				c0.2,0.1,0.3,0.2,0.3,0.3c0,0.1-0.1,0.2-0.2,0.4l0,2h0.1l0.5-0.5c0.3,0.1,0.7,0.5,0.8,0.8c0.1,0.1,0,0.2-0.2,0.2h-1.3l0,0.6
				l0,1.5h0.1l0.5-0.5c0.3,0.1,0.7,0.5,0.8,0.8c0.1,0.1,0,0.2-0.2,0.2h-1.2l0,2.2c0,0.6-0.4,0.9-1.3,1c-0.4,0-0.6-0.1-0.6-0.4
				C157,19.1,157.1,15.8,157,12.9z"/>
			<path d="M160.4,21.5c-0.1-0.1-0.1-0.1,0-0.2c1.1-1.7,1.8-3.5,2.2-7.1h-0.8l-1.2,0.1l-0.2-0.6l1.7,0.1h3.1l0.4-0.5
				c0.6,0.1,1.2,0.6,1.1,1h-2.1c-0.2,1-0.4,1.8-0.6,2.5c1,0.9,2.1,2.1,2.6,3.1c0.2,0.4,0,1-0.3,1.3c-0.3,0.3-0.8,0.4-1.1,0.2
				c-0.2-0.1-0.4-0.2-0.4-0.6c-0.2-1.2-0.5-2.3-1-3.3c-0.7,1.7-1.8,2.9-3.1,4.1C160.6,21.6,160.5,21.6,160.4,21.5z M167.4,12.9
				c0.7,0,1.3,0.1,1.8,0.2c0.2,0.1,0.3,0.2,0.3,0.3c0,0.1-0.1,0.2-0.2,0.4l0,3.7l0,3.8c0,0.7-0.5,0.8-1.3,0.9c-0.4,0-0.6,0-0.6-0.2
				V12.9z"/>
			<path d="M171.5,20.3c0.5,0,0.9,0.3,0.9,0.8s-0.4,0.8-0.9,0.8s-0.9-0.3-0.9-0.8S171,20.3,171.5,20.3z"/>
			<path d="M175.5,20.3c0.5,0,0.9,0.3,0.9,0.8s-0.4,0.8-0.9,0.8s-0.9-0.3-0.9-0.8S175,20.3,175.5,20.3z"/>
		</g>
		<g class="st4">
			<path d="M48.6,62.9l1.9,0l0.2-0.5c0.5,0,1.4,0.2,1.9,0.3c0.2,0.1,0.4,0.2,0.4,0.4c0,0.1-0.1,0.3-0.2,0.5c-1,4.3-2.3,5.5-5.5,7.3
				c-0.1,0.1-0.2,0-0.2-0.1c-0.1-0.1,0-0.2,0-0.2c1.9-1.8,2.7-3.6,3.4-7.2l-1.8,0l-1.3,0.1l-0.2-0.6L48.6,62.9z M53.8,62
				c0.7,0,1.3,0.1,1.8,0.2c0.2,0.1,0.3,0.2,0.3,0.3c0,0.1-0.1,0.2-0.2,0.4l-0.1,3.7l0,3.8c0,0.7-0.5,0.8-1.3,0.9
				c-0.4,0-0.6,0-0.6-0.2V62z"/>
			<path d="M57.1,63.8c0-1.1,1.1-1.6,2.9-1.6c1.8,0,2.9,0.5,2.9,1.6V64c0,0.9-0.7,1.4-1.9,1.5l0,1.1l2.2-0.1l0.2,0.5l-4.9,0.2
				l-1.5,0.1l-0.2-0.6h2l0.4,0l0-1.2c-1.2-0.1-2-0.6-2-1.6V63.8z M60.8,68.1h1.8c2.1,0,3.3,0.4,3.3,1.7c0,1.3-1.2,1.7-3.3,1.7h-1.8
				c-2.1,0-3.3-0.4-3.3-1.7C57.5,68.5,58.7,68.1,60.8,68.1z M58.9,63.9c0,0.7,0.4,1.1,1.1,1.1c0.7,0,1.1-0.4,1.1-1.1v-0.2
				c0-0.7-0.4-1.1-1.1-1.1c-0.7,0-1.1,0.4-1.1,1.1V63.9z M62.5,70.9c0.8,0,1.3-0.6,1.3-1.2c0-0.5-0.4-1.1-1.3-1.2h-1.7
				c-0.8,0-1.3,0.6-1.3,1.2c0,0.5,0.4,1.1,1.3,1.2H62.5z M66.1,64.3c0.3,0.1,0.6,0.5,0.7,0.8c0.1,0.1,0,0.2-0.1,0.2h-1.1l0,1.6
				c0,0.6-0.7,0.7-1.3,0.7c-0.4,0-0.6-0.1-0.6-0.4c0-1.8,0-3.3,0-5.3c0.7,0,1.3,0.1,1.8,0.2c0.2,0.1,0.3,0.2,0.3,0.3
				c0,0.1-0.1,0.2-0.2,0.4l-0.1,1.8h0L66.1,64.3z"/>
			<path d="M72.4,62.8h1.4l0.3-0.5c0.5,0.1,1.2,0.2,1.6,0.4c0.1,0.1,0.2,0.2,0.2,0.3c0,0.1-0.1,0.2-0.2,0.2l0,3.3l0,3.6
				c0,0.5-0.4,0.7-1.2,0.8c-0.5,0.1-0.8,0-0.8-0.3v-0.2h-1.5c-0.1,0.2-0.4,0.4-0.9,0.5c-0.4,0.1-0.7,0-0.8,0
				c-0.1-0.1-0.2-0.1-0.2-0.5l0-3.9l-0.1-4C70.8,62.4,72.2,62.4,72.4,62.8z M72.4,63.3v6.7h1.4v-6.7H72.4z M79.3,65.8
				c0.3,0.1,0.6,0.5,0.8,0.8c0.1,0.1,0,0.2-0.1,0.2h-1.3l0.1,3.6c0,0.6-0.4,0.9-1.3,1c-0.4,0-0.6-0.1-0.6-0.4c0.1-2.8,0.1-6.1,0-9
				c0.7,0,1.1,0.1,1.8,0.2c0.2,0.1,0.3,0.2,0.3,0.3c0,0.1-0.1,0.2-0.2,0.4l0,3.2v0.1h0.1L79.3,65.8z"/>
			<path d="M80.2,70.7c-0.1-0.1-0.1-0.1,0-0.2c1.1-1.8,1.7-3.7,2.1-7.3l0-0.9c0.6,0,1.3,0.1,1.8,0.2c0.4,0.1,0.5,0.3,0.5,0.4
				c0,0.1-0.1,0.2-0.1,0.4c-0.2,1-0.4,1.8-0.6,2.5c0.9,0.9,2,2.1,2.5,3.1c0.2,0.4,0,1-0.3,1.3c-0.3,0.3-0.8,0.3-1.2,0.2
				c-0.2-0.1-0.3-0.3-0.4-0.6c-0.1-1.1-0.4-2.2-0.9-3.2c-0.7,1.7-1.6,2.9-3,4.1C80.4,70.8,80.3,70.7,80.2,70.7z M87.1,62
				c0.7,0,1.3,0.1,1.8,0.2c0.2,0.1,0.3,0.2,0.3,0.3c0,0.1-0.1,0.2-0.2,0.4L89,66.7l0,3.8c0,0.7-0.5,0.8-1.3,0.9
				c-0.4,0-0.6,0-0.6-0.2V62z"/>
			<path d="M98.5,66.1c0.5,0.1,1.2,0.7,1,1l-8.1,0l-1.4,0l-0.2-0.6l2,0.1H98L98.5,66.1z M92.8,64.8h4.4l0.5-0.6
				c0.6,0,1.4,0.8,1.2,1.1h-6.2c-0.3,0.2-0.9,0.3-1.4,0.3c-0.5,0-0.7-0.1-0.7-0.5v-1.6l0-1.4c0.4,0,1.4,0,1.9,0.2
				c0.2,0.1,0.3,0.2,0.3,0.3c0,0.1,0,0.2-0.1,0.4V64.8z M92.8,70.6h4.8l0.5-0.6c0.6,0,1.4,0.8,1.2,1.1h-6.5
				c-0.2,0.2-0.9,0.3-1.4,0.3c-0.4,0-0.7-0.1-0.7-0.5v-1.5l0-1.3c0.6,0,1.5,0,1.9,0.2c0.2,0.1,0.3,0.2,0.3,0.3c0,0.1,0,0.2-0.1,0.3
				V70.6z"/>
			<path d="M101.8,62.9l1.9,0l0.2-0.5c0.5,0,1.4,0.2,1.9,0.3c0.2,0.1,0.4,0.2,0.4,0.4c0,0.1-0.1,0.3-0.2,0.5
				c-0.2,0.9-0.4,1.6-0.7,2.3h0.7l1.1,0V62c0.7,0,1.3,0.1,1.8,0.2c0.2,0.1,0.3,0.2,0.3,0.3c0,0.1-0.1,0.2-0.2,0.4l0,3.7l0,3.8
				c0,0.7-0.5,0.8-1.3,0.9c-0.4,0-0.6,0-0.6-0.2v-4.7l-0.9,0l-1.2,0.1c-0.9,2.1-2.2,3.1-4.5,4.4c-0.1,0.1-0.2,0-0.2-0.1
				c-0.1-0.1,0-0.2,0-0.2c1.9-1.8,2.7-3.6,3.4-7.2l-1.8,0l-1.3,0.1l-0.2-0.6L101.8,62.9z"/>
			<path d="M117,62.7l0.3-0.5c0.6,0.1,1.2,0.2,1.7,0.4c0.1,0,0.2,0.1,0.2,0.2c0,0.1,0,0.2-0.1,0.3l0,1.6l0,1.6
				c0,0.5-0.5,0.8-1.2,0.9c-0.5,0.1-0.8-0.1-0.8-0.3v-0.1h-1.5c-0.1,0.2-0.5,0.4-0.9,0.4c-0.6,0-0.9,0-0.9-0.4v-2l0-2.4
				c0.4-0.1,1.7,0,2,0.3H117z M117.4,67.6c0.8,0.1,1.4,0.2,1.8,0.4c0.2,0.1,0.3,0.2,0.3,0.4c0,0.2-0.1,0.3-0.2,0.4l-0.3,0.4
				c1.1,0.1,2.3,0.2,3.1,0.5c0.5,0.2,0.8,0.9,0.5,1.3c-0.1,0.2-0.4,0.4-0.7,0.4c-0.3,0-0.5-0.1-0.7-0.2c-0.7-0.7-1.7-1.2-2.6-1.5
				c-1.1,0.9-2.6,1.4-4.2,1.8c-0.1,0-0.2,0-0.2-0.1c0-0.1,0-0.2,0-0.2c1.3-0.6,2.4-1.4,3.2-2.6L117.4,67.6z M115.6,63.2v3.1h1.4
				v-3.1H115.6z M122.6,64c0.3,0.1,0.7,0.5,0.8,0.8c0.1,0.1,0,0.2-0.2,0.2H122l0,1.8c0,0.6-0.6,0.8-1.4,0.9c-0.4,0-0.7-0.1-0.7-0.4
				c0-1.4,0-3.6,0-5.2c0.7,0,1.4,0.1,1.9,0.2c0.2,0.1,0.4,0.2,0.3,0.3c0,0.2-0.1,0.2-0.2,0.5l-0.1,1.5h0L122.6,64z"/>
			<path d="M123.6,64.4c0-1.4,1.1-2.3,2.9-2.3c1.9,0,2.9,0.9,2.9,2.3v0.3c0,1.4-1.1,2.2-2.9,2.2s-2.9-0.9-2.9-2.2V64.4z M126.9,71.5
				c-0.1-0.1-0.1-0.2,0-0.2c0.2-0.2,0.4-0.3,0.6-0.5c-0.2,0-0.3-0.2-0.3-0.3c-0.1-0.4-0.1-0.7-0.4-0.9c-0.8,0.8-1.8,1.4-2.7,1.7
				c-0.1,0-0.2,0-0.3-0.1c-0.1-0.1-0.1-0.2,0-0.2c0.9-0.6,1.6-1.7,2-2.7l0.2-0.9c0.6,0,1.1,0.1,1.5,0.3c0.3,0.1,0.4,0.3,0.4,0.5
				c0,0.1-0.1,0.2-0.2,0.3c-0.2,0.2-0.3,0.4-0.5,0.6c0.4,0.1,0.8,0.3,1.1,0.5c0,0,0.1,0.1,0.1,0.1c0.3-0.4,0.6-0.9,0.8-1.3l0.3-0.9
				c0.6,0,1.1,0.1,1.5,0.3c0.3,0.1,0.4,0.3,0.4,0.5c0,0.1-0.1,0.2-0.2,0.3c-0.1,0.2-0.3,0.4-0.5,0.6c0.6,0.1,1.4,0.3,1.9,0.6
				c0.4,0.2,0.3,0.8,0.1,1.1c-0.1,0.2-0.4,0.4-0.7,0.4c-0.2,0-0.5-0.1-0.6-0.3c-0.4-0.6-0.6-1-1.2-1.4c-0.9,0.8-2.1,1.5-3.1,1.9
				C127.1,71.6,127,71.6,126.9,71.5z M125.6,64.7c0,1,0.3,1.7,0.9,1.7s0.9-0.6,0.9-1.7v-0.4c0-1.1-0.3-1.7-0.9-1.7s-0.9,0.6-0.9,1.7
				V64.7z M130.3,62c0.7,0,1.3,0.1,1.9,0.2c0.2,0.1,0.3,0.2,0.3,0.3c0,0.1-0.1,0.2-0.2,0.4l0,1.5l0,1.9c0,0.6-0.6,0.8-1.4,0.8
				c-0.4,0-0.7-0.1-0.6-0.4C130.4,65.1,130.3,64,130.3,62z"/>
			<path d="M141.8,66.1c0.5,0.1,1.2,0.7,1,1l-8.1,0l-1.4,0l-0.2-0.6l2,0.1h6.1L141.8,66.1z M136.1,64.8h4.4l0.5-0.6
				c0.6,0,1.4,0.8,1.2,1.1h-6.2c-0.3,0.2-0.9,0.3-1.4,0.3c-0.5,0-0.7-0.1-0.7-0.5v-1.6l0-1.4c0.4,0,1.4,0,1.9,0.2
				c0.2,0.1,0.3,0.2,0.3,0.3c0,0.1,0,0.2-0.1,0.4V64.8z M136.1,70.6h4.8l0.5-0.6c0.6,0,1.4,0.8,1.2,1.1h-6.5
				c-0.2,0.2-0.9,0.3-1.4,0.3c-0.5,0-0.7-0.1-0.7-0.5v-1.5l0-1.3c0.6,0,1.5,0,1.9,0.2c0.2,0.1,0.3,0.2,0.3,0.3c0,0.1,0,0.2-0.1,0.3
				V70.6z"/>
			<path d="M149.4,70.8h4.7l0.4-0.5c0.6,0.1,1.6,0.7,1.4,1h-6.6c-0.2,0.1-0.6,0.2-1.1,0.3c-0.4,0-0.7,0-0.9-0.1
				c-0.1-0.1-0.2-0.2-0.2-0.4l0-1l-0.1-1.1c0.5,0,1.5,0,2,0.2l0.1,0.1h4.1v-1h-4.4l-1.6,0.1l-0.2-0.6l1.6,0.1h1.4v-1.1h-2.2
				l-1.4,0.1l-0.1-0.6l1.9,0.1h6.1l0.5-0.4c0.6,0.1,1.3,0.6,1.1,0.9l-3.8,0v1.1h0.9l0.3-0.4c0.5,0,1.2,0.2,1.7,0.3
				c0.2,0,0.3,0.1,0.4,0.3c0.1,0.1-0.1,0.2-0.1,0.4l0,0.6l0,0.6c0,0.3-0.7,0.5-1.5,0.4c-0.3,0-0.5-0.1-0.6-0.2h-4.1l0,0V70.8z
				 M150.6,61.8c0.8,0.1,1.5,0.2,1.9,0.4c0.2,0.1,0.3,0.2,0.3,0.4c0,0.2-0.1,0.3-0.3,0.4c-0.2,0.2-0.3,0.3-0.5,0.4
				c1,0.1,2.2,0.2,3.1,0.5c0.5,0.2,0.6,0.8,0.5,1.1c-0.1,0.3-0.3,0.4-0.7,0.4c-0.2,0-0.5,0-0.7-0.2c-0.8-0.6-1.8-1-2.8-1.4
				c-1.2,0.8-2.6,1.3-4.1,1.7c-0.1,0-0.2,0-0.2-0.1c0-0.1,0-0.2,0-0.2c1.4-0.7,2.4-1.6,3.3-2.6L150.6,61.8z"/>
			<path d="M157.2,62.8h1.8v2.4l-0.5,3.6h-0.8l-0.5-3.6V62.8z M157.4,70.2c0-0.4,0.3-0.8,0.8-0.8c0.5,0,0.8,0.3,0.8,0.8
				c0,0.4-0.3,0.8-0.8,0.8C157.7,71,157.4,70.6,157.4,70.2z"/>
		</g>
	</g>
</g>
</svg>
