<?xml version="1.0" encoding="utf-8"?>
<!-- Generator: Adobe Illustrator 26.0.3, SVG Export Plug-In . SVG Version: 6.00 Build 0)  -->
<svg version="1.1" id="레이어_1" xmlns="http://www.w3.org/2000/svg" xmlns:xlink="http://www.w3.org/1999/xlink" x="0px"
	 y="0px" viewBox="0 0 312 363.3" style="enable-background:new 0 0 312 363.3;" xml:space="preserve">
<style type="text/css">
	.st0{fill:#FFFFFF;}
	.st1{enable-background:new    ;}
	.st2{opacity:0.25;}
	.st3{fill:none;stroke:#000000;stroke-width:1.42;stroke-miterlimit:10;}
	.st4{fill:none;stroke:#231815;stroke-width:1.42;stroke-miterlimit:10;}
	.st5{fill:#FFFFFF;stroke:#FFFFFF;stroke-width:5.67;stroke-linecap:round;stroke-linejoin:round;}
	.st6{fill:#FFFFFF;stroke:#FFFFFF;stroke-width:1.7;stroke-miterlimit:10;}
	.st7{fill:#FFFFFF;stroke:#FFFFFF;stroke-width:5.67;stroke-miterlimit:10;}
	.st8{fill:#FFFFFF;stroke:#FFFFFF;stroke-miterlimit:10;}
	.st9{fill:none;stroke:#FFFFFF;stroke-width:1.7;stroke-linecap:round;stroke-linejoin:round;}
	.st10{fill:#FFFFFF;stroke:#000000;stroke-width:1.7;stroke-linecap:round;stroke-linejoin:round;}
	.st11{fill:#914500;}
	.st12{fill:#FF2948;stroke:#040000;stroke-width:0.57;stroke-miterlimit:10;}
	.st13{fill:#FFC200;}
	.st14{fill:none;stroke:#000000;stroke-width:0.28;stroke-linecap:round;stroke-linejoin:round;}
	.st15{fill:#231815;}
</style>
<g id="레이어_2_00000180367472626905538350000001861163183202135186_">
	<g id="레이어_1-2">
		
			<image style="overflow:visible;opacity:0.25;enable-background:new    ;" width="312" height="56" xlink:href="1389EF04CE7DFE7F.png"  transform="matrix(1 0 0 1 0 -1.464844e-05)">
		</image>
		<rect x="0.1" y="0" class="st0" width="312" height="45.3"/>
		<g class="st1">
			<path d="M83.6,26.2c-0.1-0.1-0.1-0.3,0-0.4v-2.5l-0.1-2c0.8,0,1.5,0,2.3,0.2c0.2,0,0.3,0.1,0.3,0.3h2.2l0.6-0.6
				c0.4,0.1,1.3,0.8,1.1,1.2H86c0,0,0,0,0,0.1v3c1.7-0.1,3.6-0.4,5.2-0.6c0-1.3,0-2.8,0-4c0.8,0,1.7,0.1,2.3,0.3
				c0.3,0.1,0.4,0.2,0.4,0.4c0,0.2-0.1,0.3-0.2,0.5l-0.1,1.8v0.3h0l0.7-0.6c0.3,0.1,0.8,0.6,0.9,0.9c0.1,0.1,0,0.3-0.2,0.3h-1.5
				l0,1.5c0,0.7-0.7,1-1.7,1.1c-0.5,0-0.8-0.2-0.8-0.5l0-1.5c-1.7,0.6-3.8,1.2-5.9,1.7c-0.1,0.1-0.2,0.2-0.4,0.2
				c-0.2,0-0.3,0-0.5-0.1C84.1,26.8,83.8,26.5,83.6,26.2z M87.1,28h3.5c1.8,0,3.1,0.6,3.1,2.1c0,1.5-1.3,2.1-3.1,2.1h-3.5
				c-1.8,0-3-0.6-3-2.1C84.1,28.6,85.3,28,87.1,28z M89.2,31.6c1.1,0,2-0.5,2-1.5c0-1-0.9-1.5-2-1.5h-0.6c-1,0-1.9,0.5-1.9,1.5
				c0,1,0.9,1.5,1.9,1.5H89.2z"/>
			<path d="M95.4,27.6c-0.1-0.1-0.1-0.2,0-0.2c1.4-1.7,2.1-3.1,2.5-5.1l0.1-1.1c0.7,0,1.4,0.1,2,0.3c0.5,0.1,0.6,0.3,0.7,0.5
				c0,0.2-0.1,0.3-0.2,0.5c-0.2,0.6-0.5,1.2-0.8,1.7c1.1,0.4,2.3,1,2.9,1.7c0.4,0.4,0.2,1.2-0.1,1.5c-0.3,0.3-0.6,0.3-1,0.2
				c-0.3,0-0.4-0.2-0.6-0.4c-0.4-0.9-0.9-1.7-1.6-2.4c-0.9,1.2-2,2.1-3.5,3C95.6,27.7,95.5,27.6,95.4,27.6z M98.7,31.2h5.7l0.6-0.7
				c0.8,0.1,1.6,0.9,1.5,1.3h-7.8c-0.3,0.2-1.1,0.4-1.7,0.3c-0.5,0-0.8-0.1-0.8-0.6v-1.9l0-1.5c0.8,0,1.8,0,2.3,0.2
				c0.2,0.1,0.3,0.2,0.4,0.3c0,0.2,0,0.3-0.1,0.4V31.2z M103.5,20.9c0.8,0,1.6,0.1,2.3,0.3c0.2,0.1,0.4,0.2,0.4,0.4
				c0,0.2-0.1,0.3-0.2,0.5l0,3l0,3c0,0.7-0.7,0.9-1.7,0.9c-0.5,0-0.8-0.1-0.8-0.4C103.6,26.6,103.6,23.3,103.5,20.9z"/>
			<path d="M112.9,26.5v1.9c0,2.3-0.8,3.4-2.7,3.4s-2.7-1-2.7-3.4v-3.8c0-2.3,0.8-3.4,2.7-3.4c2,0,2.7,1,2.7,3.4v1.1h0.2h0.6
				c0-1.6,0-3.3,0-4.9c0.7,0,1.3,0.1,1.8,0.2c0.3,0.1,0.4,0.2,0.4,0.4c0,0.2-0.1,0.3-0.2,0.5l0,4.2l0.1,4.8c0,0.7-0.3,1-1.3,1
				c-0.5,0-0.7-0.1-0.7-0.4c0-1.6,0.1-3.4,0.1-5.2H113L112.9,26.5z M109.6,28.6c0,1.7,0,2.4,0.6,2.4c0.5,0,0.6-0.7,0.6-2.4v-4.2
				c0-1.7,0-2.4-0.6-2.4c-0.5,0-0.6,0.7-0.6,2.4V28.6z M116.2,20.9c0.7,0,1.3,0.1,1.8,0.3c0.2,0.1,0.4,0.2,0.4,0.4
				c0,0.2-0.1,0.3-0.2,0.5l-0.1,4.3l0.1,4.7c0,0.7-0.4,1-1.3,1c-0.5,0-0.7-0.1-0.7-0.4C116.3,28.4,116.3,24.3,116.2,20.9z"/>
			<path d="M120.9,22l1.5,0l0.2-0.6c0.6,0,1.3,0.2,1.9,0.4c0.3,0.1,0.5,0.3,0.5,0.5c0,0.2-0.1,0.2-0.2,0.4c-0.2,1.2-0.4,2.3-0.7,3.2
				h0.6l0.8,0c0-1.6,0-3.3,0-4.9c0.7,0,1.3,0.1,1.9,0.2c0.3,0.1,0.4,0.2,0.4,0.4c0,0.2-0.1,0.3-0.2,0.5l-0.1,4.2l0,4.8
				c0,0.7-0.4,1-1.3,1c-0.5,0-0.7-0.1-0.7-0.4c0-1.6,0.1-3.4,0.1-5.2l-0.5,0l-1.2,0.1c-0.8,2.2-2,3.6-4.2,5.2
				c-0.2,0.1-0.2,0-0.3-0.1c-0.1-0.1,0-0.2,0.1-0.3c1.7-2.1,2.5-4.5,3-8.9l-1.4,0l-1.4,0.1l-0.2-0.7L120.9,22z M128.2,20.9
				c0.7,0,1.3,0.1,1.9,0.3c0.2,0.1,0.4,0.2,0.4,0.4c0,0.2-0.1,0.3-0.2,0.5l-0.1,4.3l0.1,4.7c0,0.7-0.4,1-1.3,1
				c-0.5,0-0.7-0.1-0.7-0.4C128.2,28.4,128.2,24.3,128.2,20.9z"/>
			<path d="M135.5,24.6c0-2.3,1.3-3.4,3.3-3.4c2.1,0,3.3,1,3.3,3.4v1.1h0.5l1,0v-4.8c0.8,0,1.6,0.1,2.2,0.3c0.2,0.1,0.4,0.2,0.4,0.4
				c0,0.2-0.1,0.3-0.2,0.5l-0.1,4.4l0,4.5c0,0.8-0.6,1-1.6,1.1c-0.5,0-0.7,0-0.7-0.3v-5.4l-0.8,0l-0.7,0.1v1.9
				c0,2.3-1.3,3.4-3.3,3.4s-3.3-1-3.3-3.4V24.6z M137.9,28.5c0,1.7,0.2,2.4,0.9,2.4s0.9-0.7,0.9-2.4v-4c0-1.7-0.2-2.4-0.9-2.4
				s-0.9,0.7-0.9,2.4V28.5z"/>
			<path d="M150,28.2l-1.9,0.1l-0.2-0.7l2,0.1h1.6v-1.4h-2.6l-1.7,0.1l-0.1-0.8l2.3,0.1l7.4,0l0.6-0.5c0.8,0.1,1.5,0.8,1.3,1.1
				l-4.6,0v1.4h1l0.4-0.5c0.6,0.1,1.5,0.2,2,0.4c0.2,0.1,0.4,0.2,0.5,0.3c0.1,0.2-0.1,0.3-0.2,0.5l-0.1,0.7l0,0.8
				c0,0.4-0.9,0.6-1.8,0.6c-0.4,0-0.6-0.1-0.8-0.2h-4.6l0,0v1.4h5.7l0.5-0.6c0.8,0.1,1.7,0.8,1.5,1.2h-7.8c-0.2,0.2-0.7,0.3-1.3,0.3
				c-0.5,0-0.8,0-1.1-0.1c-0.2-0.1-0.3-0.3-0.3-0.5l0-1.2l-0.1-1.4c0.7-0.1,1.8,0,2.4,0.2l0.2,0.1h4.7v-1.3H150z M150.9,21h4
				c1.7,0,3.1,0.4,3.1,1.9c0,1.5-1.4,1.9-3.1,1.9h-4c-1.7,0-3-0.4-3-1.9C147.8,21.4,149.2,21,150.9,21z M153.3,24.1
				c1.1,0,2.1-0.3,2.1-1.2c0-1-1-1.3-2.1-1.3h-0.9c-1,0-2,0.3-2,1.3c0,1,1,1.2,2,1.2H153.3z"/>
			<path d="M161.8,22.4l-1.9,0.1l-0.2-0.7l1.8,0l1.7,0l0.4-0.5c0.7,0.1,1.5,0.2,2.1,0.4c0.3,0.1,0.4,0.2,0.4,0.3s0,0.3-0.2,0.5
				l-0.1,1.5l0.1,1.8c0,0.6-0.9,0.8-1.8,0.8c-0.4,0-0.6-0.1-0.7-0.2h-1.1v3.4c1.7-0.2,3.7-0.4,5.2-0.6v-8.2c0.8,0,1.6,0.1,2.2,0.3
				c0.2,0.1,0.4,0.2,0.4,0.4c0,0.2-0.1,0.3-0.2,0.5l-0.1,4.4l0,4.5c0,0.8-0.6,1-1.6,1.1c-0.5,0-0.7,0-0.7-0.3v-2.4
				c-1.7,0.7-3.7,1.2-5.8,1.8c-0.2,0.1-0.3,0.2-0.4,0.2c-0.2,0-0.3,0-0.4-0.1c-0.4-0.3-0.8-0.6-1.1-1c-0.1-0.1-0.1-0.2,0-0.4
				c0-1.8,0-3.3-0.1-4.6c0.8,0,1.6,0,2.3,0.1c0.1,0,0.2,0.1,0.3,0.1h1.1v-3.3L161.8,22.4z"/>
			<path d="M181.3,25.9c0.6,0.1,1.5,0.9,1.3,1.2l-9.7,0l-1.7,0l-0.2-0.7l2.4,0.1h7.3L181.3,25.9z M174.4,24.3h5.3l0.6-0.7
				c0.8,0.1,1.6,0.9,1.5,1.3h-7.4c-0.3,0.3-1.1,0.3-1.6,0.3c-0.6,0-0.9-0.1-0.9-0.5v-1.9l0-1.7c0.5-0.1,1.7,0,2.3,0.2
				c0.2,0.1,0.4,0.2,0.4,0.3c0,0.1,0,0.3-0.1,0.5V24.3z M174.4,31.3h5.7l0.6-0.7c0.8,0.1,1.6,0.9,1.5,1.3h-7.8
				c-0.3,0.2-1.1,0.4-1.7,0.3c-0.5,0-0.8-0.1-0.8-0.6v-1.8l0-1.6c0.8,0,1.8,0,2.3,0.2c0.2,0.1,0.3,0.2,0.4,0.3c0,0.2,0,0.3-0.1,0.4
				V31.3z"/>
			<path d="M189.6,21.8h1l0.4-0.6c0.6,0.1,1.3,0.3,1.8,0.4c0.2,0.1,0.2,0.2,0.2,0.3c0,0.1-0.1,0.2-0.2,0.3l0,2l0,1.9
				c0,0.6-0.3,0.8-1.2,0.9c-0.6,0.1-1-0.1-1-0.3v-0.2h-1.1c-0.1,0.3-0.4,0.5-1,0.5c-0.5,0-0.8,0-1-0.1c-0.2-0.1-0.3-0.2-0.3-0.5
				v-2.5l0-2.6C187.8,21.4,189.3,21.5,189.6,21.8z M190.5,28.9l-1.9,0.1l-0.2-0.7l2,0.1l5.2-0.1l0.5-0.6c0.6,0.1,1.3,0.2,1.8,0.3
				c0.3,0.1,0.4,0.2,0.5,0.4c0,0.2-0.1,0.3-0.1,0.5v2.6c0,0.4-0.7,0.8-1.6,0.8c-0.6,0-0.9-0.1-0.9-0.4v-3L190.5,28.9z M189.6,22.4
				V26h1v-3.6H189.6z M193.4,20.9c0.7,0,1.3,0,1.9,0.2c0.3,0.1,0.4,0.2,0.4,0.4c0,0.2-0.1,0.3-0.2,0.5l0,1.8h0.2h0.5c0-1,0-2,0-2.9
				c0.7,0,1.3,0.1,1.8,0.2c0.3,0.1,0.4,0.2,0.4,0.4c0,0.2-0.1,0.3-0.2,0.5l0,2.2l0,2.2c0,0.7-0.4,0.9-1.2,0.9
				c-0.5,0-0.8-0.1-0.8-0.4c0-0.7,0-1.5,0-2.3h-0.5l-0.3,0l0,1.9c0,0.6-0.3,0.9-1.3,0.9c-0.6,0-0.8-0.1-0.7-0.4
				C193.5,25.1,193.5,23.2,193.4,20.9z"/>
			<path d="M209.3,26.7c0.8,0.1,1.5,0.8,1.3,1.1l-4.6,0l0,3.4c0,0.8-0.6,1-1.7,1.1c-0.5,0-0.9,0-0.9-0.5l0-4h-2.7l-1.7,0.1l-0.2-0.8
				l2.3,0.1l7.4,0L209.3,26.7z M208,21c0.7,0.1,1.8,0.8,1.6,1.3l-3.5,0c-0.3,0.4-0.6,0.8-0.9,1.2c1.4,0.1,3.2,0.4,3.9,0.7
				c0.6,0.3,0.7,0.9,0.5,1.4c-0.2,0.5-0.6,0.7-1.2,0.7c-0.4-0.1-0.6-0.2-0.9-0.5c-0.9-0.7-2-1.3-3-1.8c-1.4,1.1-3.1,1.9-4.6,2.4
				c-0.1,0-0.3,0-0.4-0.2c-0.1-0.1,0-0.2,0-0.3c1.5-1,2.7-2,3.6-3.7h-1.6l-1.7,0.1l-0.2-0.7l2.3,0.1h5.3L208,21z"/>
			<path d="M221.2,25.9c0.6,0.1,1.5,0.9,1.3,1.2l-9.7,0l-1.7,0l-0.2-0.7l2.4,0.1h7.3L221.2,25.9z M214.4,24.3h5.3l0.6-0.7
				c0.8,0.1,1.6,0.9,1.5,1.3h-7.4c-0.3,0.3-1.1,0.3-1.6,0.3c-0.6,0-0.9-0.1-0.9-0.5v-1.9l0-1.7c0.5-0.1,1.7,0,2.3,0.2
				c0.2,0.1,0.4,0.2,0.4,0.3c0,0.1,0,0.3-0.1,0.5V24.3z M214.4,31.3h5.7l0.6-0.7c0.8,0.1,1.6,0.9,1.5,1.3h-7.8
				c-0.3,0.2-1.1,0.4-1.7,0.3c-0.5,0-0.8-0.1-0.8-0.6v-1.8l0-1.6c0.8,0,1.8,0,2.3,0.2c0.2,0.1,0.3,0.2,0.4,0.3c0,0.2,0,0.3-0.1,0.4
				V31.3z"/>
			<path d="M225,23l-0.5,1.6c-0.4,0.1-0.9,0-1.1-0.3c-0.3-0.3-0.3-0.8-0.1-1.1c0.4-0.9,1.9-1.1,2.7-1.2c1.7,0,2.7,0.7,2.8,2.1
				c0.1,1.2-0.9,2-1.8,2.8l-0.8,0.7c-0.2,0.2-0.3,0.3-0.4,0.5c0,0.2,0,0.5,0,0.9l-1,0.2l-0.2-1.3c-0.1-0.6,0.1-1,0.7-1.4l1-0.8
				c0.6-0.5,0.8-1,0.8-1.8c0-0.6-0.4-1.2-1.1-1.2C225.5,22.6,225.2,22.7,225,23z M224.5,30.8c0-0.5,0.4-0.9,0.9-0.9
				c0.5,0,0.9,0.4,0.9,0.9c0,0.5-0.4,0.9-0.9,0.9C225,31.7,224.5,31.3,224.5,30.8z"/>
		</g>
		<g class="st2">
			<path d="M64.1,113.3H243c5.8,0,10.5,4.7,10.5,10.5v178.9c0,5.8-4.7,10.5-10.5,10.5H64.1c-5.8,0-10.5-4.7-10.5-10.5V123.8
				C53.5,118,58.2,113.3,64.1,113.3z"/>
			<path class="st3" d="M64.1,113.3H243c5.8,0,10.5,4.7,10.5,10.5v178.9c0,5.8-4.7,10.5-10.5,10.5H64.1c-5.8,0-10.5-4.7-10.5-10.5
				V123.8C53.5,118,58.2,113.3,64.1,113.3z"/>
		</g>
		<path class="st0" d="M64.1,111.3H243c5.8,0,10.5,4.7,10.5,10.5v178.9c0,5.8-4.7,10.5-10.5,10.5H64.1c-5.8,0-10.5-4.7-10.5-10.5
			V121.8C53.5,116,58.2,111.3,64.1,111.3z"/>
		<path class="st4" d="M64.1,111.3H243c5.8,0,10.5,4.7,10.5,10.5v178.9c0,5.8-4.7,10.5-10.5,10.5H64.1c-5.8,0-10.5-4.7-10.5-10.5
			V121.8C53.5,116,58.2,111.3,64.1,111.3z"/>
		<g class="st1">
			<path d="M62.5,355.7c-0.1-0.1-0.1-0.3,0-0.4v-2.5l-0.1-2c0.8,0,1.5,0,2.3,0.2c0.2,0,0.3,0.1,0.3,0.3h2.2l0.6-0.6
				c0.4,0.1,1.3,0.8,1.1,1.2H65c0,0,0,0,0,0.1v3c1.7-0.1,3.6-0.4,5.2-0.6c0-1.3,0-2.8,0-4c0.8,0,1.7,0.1,2.3,0.3
				c0.3,0.1,0.4,0.2,0.4,0.4c0,0.2-0.1,0.3-0.2,0.5l-0.1,1.8v0.3h0l0.7-0.6c0.3,0.1,0.8,0.6,0.9,0.9c0.1,0.1,0,0.3-0.2,0.3h-1.5
				l0,1.5c0,0.7-0.7,1-1.7,1.1c-0.5,0-0.8-0.2-0.8-0.5l0-1.5c-1.7,0.6-3.8,1.2-5.9,1.7c-0.1,0.1-0.2,0.2-0.4,0.2
				c-0.2,0-0.3,0-0.5-0.1C63.1,356.3,62.8,356,62.5,355.7z M66.1,357.5h3.5c1.8,0,3.1,0.6,3.1,2.1c0,1.5-1.3,2.1-3.1,2.1h-3.5
				c-1.8,0-3-0.6-3-2.1C63,358.1,64.3,357.5,66.1,357.5z M68.1,361.1c1.1,0,2-0.5,2-1.5c0-1-0.9-1.5-2-1.5h-0.6
				c-1,0-1.9,0.5-1.9,1.5c0,1,0.9,1.5,1.9,1.5H68.1z"/>
			<path d="M74.4,357.1c-0.1-0.1-0.1-0.2,0-0.2c1.4-1.7,2.1-3.1,2.5-5.1l0.1-1.1c0.7,0,1.4,0.1,2,0.3c0.5,0.1,0.6,0.3,0.7,0.5
				c0,0.2-0.1,0.3-0.2,0.5c-0.2,0.6-0.5,1.2-0.8,1.7c1.1,0.4,2.3,1,2.9,1.7c0.4,0.4,0.2,1.2-0.1,1.5c-0.3,0.3-0.6,0.3-1,0.2
				c-0.3,0-0.4-0.2-0.6-0.4c-0.4-0.9-0.9-1.7-1.6-2.4c-0.9,1.2-2,2.1-3.5,3C74.5,357.2,74.5,357.1,74.4,357.1z M77.7,360.7h5.7
				L84,360c0.8,0.1,1.6,0.9,1.5,1.3h-7.8c-0.3,0.2-1.1,0.4-1.7,0.3c-0.5,0-0.8-0.1-0.8-0.6v-1.9l0-1.5c0.8,0,1.8,0,2.3,0.2
				c0.2,0.1,0.3,0.2,0.4,0.3c0,0.2,0,0.3-0.1,0.4V360.7z M82.5,350.4c0.8,0,1.6,0.1,2.3,0.3c0.2,0.1,0.4,0.2,0.4,0.4
				c0,0.2-0.1,0.3-0.2,0.5l0,3l0,3c0,0.7-0.7,0.9-1.7,0.9c-0.5,0-0.8-0.1-0.8-0.4C82.6,356.1,82.5,352.8,82.5,350.4z"/>
			<path d="M86.6,354.2c0-2.3,1.4-3.4,3.4-3.4c2.1,0,3.4,1,3.4,3.4v3.7c0,2.3-1.4,3.4-3.4,3.4c-2,0-3.4-1-3.4-3.4V354.2z M89,358.1
				c0,1.7,0.2,2.5,1,2.5c0.8,0,1-0.8,1-2.5V354c0-1.7-0.2-2.6-1-2.6c-0.8,0-1,0.9-1,2.6V358.1z M94.5,350.4c0.8,0,1.6,0.1,2.2,0.3
				c0.2,0.1,0.4,0.2,0.4,0.4c0,0.2-0.1,0.3-0.2,0.5l-0.1,4.4l0,4.5c0,0.8-0.6,1-1.6,1.1c-0.5,0-0.7,0-0.7-0.3V350.4z"/>
			<path d="M105.4,361h5.6l0.5-0.6c0.8,0.1,1.9,0.8,1.7,1.2h-7.9c-0.2,0.2-0.7,0.3-1.3,0.3c-0.5,0-0.8,0-1.1-0.1
				c-0.2-0.1-0.3-0.3-0.3-0.5l0-1.2l-0.1-1.4c0.7-0.1,1.8,0,2.4,0.2l0.2,0.1h5v-1.2H105l-1.9,0.1l-0.2-0.7l2,0.1h1.7v-1.4h-2.7
				l-1.7,0.1l-0.1-0.8l2.3,0.1h7.4l0.6-0.5c0.8,0.1,1.5,0.8,1.3,1.1l-4.5,0v1.4h1.1l0.4-0.5c0.6,0.1,1.5,0.2,2,0.4
				c0.2,0.1,0.4,0.2,0.5,0.3c0.1,0.2-0.1,0.3-0.2,0.5l0,0.7l0,0.7c0,0.4-0.9,0.6-1.8,0.5c-0.4,0-0.6-0.1-0.7-0.2h-4.9l0,0V361z
				 M106.8,350.3c1,0.1,1.8,0.2,2.3,0.5c0.2,0.1,0.4,0.3,0.3,0.5c0,0.2-0.2,0.3-0.3,0.4c-0.2,0.2-0.4,0.4-0.6,0.5
				c1.2,0.1,2.7,0.3,3.7,0.6c0.6,0.2,0.7,0.9,0.6,1.4c-0.1,0.3-0.4,0.5-0.8,0.5c-0.3,0-0.6,0-0.9-0.2c-1-0.7-2.1-1.3-3.3-1.7
				c-1.5,1-3.1,1.5-5,2c-0.1,0-0.2,0-0.3-0.2c0-0.1,0-0.2,0-0.2c1.7-0.8,2.9-1.9,3.9-3.1L106.8,350.3z"/>
			<path d="M124.2,354.8c0.8,0.1,1.5,0.8,1.3,1.1l-9.7,0l-1.7,0.1l-0.1-0.8l2.3,0.1l7.4,0L124.2,354.8z M116.9,357.7l-1.9,0.1
				l-0.2-0.7l2,0.1l5.1,0l0.4-0.5c0.6,0,1.6,0.2,2.1,0.3c0.2,0.1,0.4,0.1,0.4,0.3c0,0.2,0,0.3-0.1,0.5l0,0.6l0,0.7
				c0,0.4-0.9,0.6-1.8,0.6c-0.2,0-0.4,0-0.6-0.1h-4.9v1.4h5.5l0.5-0.6c0.8,0.1,1.8,0.8,1.7,1.2h-7.7c-0.3,0.2-0.9,0.3-1.6,0.3
				c-0.5,0-0.9-0.1-0.9-0.5l0-1.3l-0.1-1.2c0.7-0.1,1.7,0,2.3,0.1c0.1,0,0.2,0.1,0.3,0.1h4.7v-1.2L116.9,357.7z M117.8,350.6h4
				c1.7,0,3.1,0.4,3.1,1.9c0,1.5-1.4,1.9-3.1,1.9h-4c-1.7,0-3-0.4-3-1.9C114.8,350.9,116.2,350.6,117.8,350.6z M120.3,353.7
				c1.1,0,2.1-0.3,2.1-1.2c0-1-1-1.3-2.1-1.3h-0.9c-1,0-2,0.3-2,1.3c0,1,1,1.2,2,1.2H120.3z"/>
			<path d="M134.4,351.3l0.3-0.6c0.7,0.1,1.5,0.3,2,0.5c0.2,0.1,0.3,0.2,0.3,0.3c0,0.1,0,0.2-0.1,0.3l0,1.5h0.6l1.2,0v-2.7
				c0.8,0,1.6,0.1,2.2,0.3c0.2,0.1,0.4,0.2,0.4,0.4c0,0.2-0.1,0.3-0.2,0.5l-0.1,2l0,2.1c0,0.8-1.1,0.9-1.7,0.9
				c-0.5,0-0.7-0.1-0.7-0.4v-2.5l-0.9,0l-0.9,0.1l0,1.6c0,0.6-0.6,0.9-1.5,0.9c-0.6,0-0.9-0.1-1-0.3v-0.1h-1.8
				c-0.2,0.3-0.6,0.4-1.2,0.5c-0.7,0-1.1,0-1.1-0.5v-2.7l0-2.4c0.5-0.1,2.1,0,2.4,0.4H134.4z M133.2,358.4l-1.9,0.1l-0.2-0.7l2,0.1
				l5.3-0.1l0.5-0.6c0.6,0.1,1.3,0.2,1.8,0.3c0.3,0.1,0.4,0.2,0.5,0.4c0,0.2-0.1,0.3-0.1,0.5v2.6c0,0.4-0.7,0.8-1.6,0.8
				c-0.6,0-0.9-0.1-0.9-0.4v-3L133.2,358.4z M132.7,351.8v3.7h1.7v-3.7H132.7z"/>
			<path d="M152.2,354.8c0.8,0.1,1.5,0.8,1.3,1.1l-9.7,0l-1.7,0.1l-0.1-0.8l2.3,0.1l7.4,0L152.2,354.8z M144.9,357.7l-1.9,0.1
				l-0.2-0.7l2,0.1l5.1,0l0.4-0.5c0.6,0,1.6,0.2,2.1,0.3c0.2,0.1,0.4,0.1,0.4,0.3c0,0.2,0,0.3-0.1,0.5l0,0.6l0,0.7
				c0,0.4-0.9,0.6-1.8,0.6c-0.2,0-0.4,0-0.6-0.1h-4.9v1.4h5.5l0.5-0.6c0.8,0.1,1.8,0.8,1.7,1.2h-7.7c-0.3,0.2-0.9,0.3-1.6,0.3
				c-0.5,0-0.9-0.1-0.9-0.5l0-1.3l-0.1-1.2c0.7-0.1,1.7,0,2.3,0.1c0.1,0,0.2,0.1,0.3,0.1h4.7v-1.2L144.9,357.7z M145.8,350.6h4
				c1.7,0,3.1,0.4,3.1,1.9c0,1.5-1.4,1.9-3.1,1.9h-4c-1.7,0-3-0.4-3-1.9C142.7,350.9,144.1,350.6,145.8,350.6z M148.2,353.7
				c1.1,0,2.1-0.3,2.1-1.2c0-1-1-1.3-2.1-1.3h-0.9c-1,0-2,0.3-2,1.3c0,1,1,1.2,2,1.2H148.2z"/>
			<path d="M154.3,359.5c-0.1-0.1-0.1-0.3,0.1-0.4v-5.8c0-0.8,0-1.5,0-2.3c0.6,0,1.1,0,1.6,0.1c0.2,0.1,0.4,0.2,0.4,0.3h1
				c0-0.2,0-0.3,0-0.4c0.5,0,1,0,1.4,0.1c0.3,0.1,0.4,0.2,0.5,0.4h0.1l0.4-0.5c0.6,0.2,0.9,0.7,0.8,1.1h-1.4v7
				c0.6-0.1,1.2-0.2,1.6-0.3c0-2.7,0-5.6,0-8.4c0.7,0,1.2,0.1,1.7,0.2c0.3,0.1,0.4,0.2,0.4,0.4c0,0.2-0.1,0.3-0.2,0.5l0,3.8h0.1h0.6
				c0-1.7,0-3.4-0.1-4.9c0.7,0,1.2,0.1,1.7,0.2c0.3,0.1,0.4,0.3,0.4,0.4c0,0.2-0.1,0.3-0.2,0.5l-0.1,4.3l0.1,4.7c0,0.7-0.3,1-1.2,1
				c-0.5,0-0.7-0.1-0.7-0.4c0-1.6,0-3.4,0-5.2h-0.6l-0.1,0l0.1,4.6c0,0.7-0.2,1-1.2,1c-0.5,0-0.8-0.1-0.7-0.4c0-0.6,0-1.3,0-1.9
				c-0.5,0.4-1.1,0.8-1.9,1.3c-0.1,0.1-0.2,0.2-0.4,0.2c-0.2,0-0.3,0-0.4-0.2c-0.3-0.3-0.5-0.6-0.8-1c-0.4,0.3-0.8,0.6-1.3,0.9
				c-0.1,0.1-0.2,0.2-0.4,0.2c-0.2,0-0.3,0-0.4-0.2C154.9,360.3,154.6,359.9,154.3,359.5z M157.3,352.1h-1.1v6.9
				c0.4-0.1,0.8-0.1,1.1-0.2v-5.6L157.3,352.1z"/>
			<path d="M171.9,351.5l2.2,0l0.2-0.7c0.6,0,1.7,0.2,2.3,0.4c0.3,0.1,0.5,0.3,0.5,0.5c0,0.2-0.2,0.4-0.3,0.6
				c-1.2,5.2-2.8,6.6-6.6,8.8c-0.1,0.1-0.2,0-0.3-0.1c-0.1-0.1,0-0.2,0-0.3c2.2-2.2,3.3-4.6,4.1-8.7l-2.2,0l-1.6,0.1l-0.2-0.7
				L171.9,351.5z M181.1,355c0.3,0.1,0.8,0.6,0.9,0.9c0.1,0.1,0,0.3-0.2,0.3h-1.5l0.1,4.3c0,0.7-0.5,1-1.7,1.2
				c-0.5,0.1-0.7-0.1-0.7-0.4c0.1-3.3,0.1-7.3,0-10.8c0.8,0,1.4,0.1,2.2,0.3c0.2,0.1,0.4,0.2,0.4,0.4c0,0.2-0.1,0.3-0.2,0.5l0,4h0
				L181.1,355z"/>
			<path d="M183.2,351.6l0.8,0l0.2-0.6c0.6,0,1.2,0.1,1.8,0.3c0.3,0.1,0.4,0.2,0.5,0.4h0.9l0.2-0.6c0.6,0,1.4,0.1,1.9,0.3
				c0.3,0.1,0.4,0.3,0.4,0.5c0,0.2-0.1,0.2-0.2,0.4c-0.6,4.3-1.8,6.4-4.3,8.9c-0.1,0.1-0.3,0.1-0.4,0c-0.1-0.1-0.1-0.2,0-0.3
				c1.3-2.7,1.9-4.8,2.4-8.6l-1.1,0c-0.6,3.5-1.6,5.3-3.8,8c-0.1,0.1-0.2,0.1-0.4,0c-0.1-0.1-0.1-0.2,0-0.3c1.1-2.5,1.7-4.5,2-7.7
				l-0.6,0l-0.9,0.1l-0.2-0.7L183.2,351.6z M190.3,350.4c0.8,0,1.6,0.1,2,0.3c0.3,0.1,0.4,0.3,0.4,0.4c0,0.2-0.1,0.3-0.2,0.5l-0.1,4
				h0l0.7-0.6c0.2,0,0.3,0.2,0.5,0.4c0.2,0.2,0.3,0.4,0.4,0.6c0.1,0.1,0,0.3-0.2,0.3h-1.5l0.1,4.3c0,0.7-0.3,1-1.4,1.2
				c-0.5,0.1-0.7-0.1-0.7-0.4C190.3,357.8,190.4,353.8,190.3,350.4z"/>
			<path d="M204.2,355.3c0.6,0.1,1.5,0.9,1.3,1.2l-4.2,0l0,1.7c0,0.8-0.6,1-1.7,1.1c-0.5,0-0.9,0-0.9-0.5l0-2.3l-3,0l-1.7,0
				l-0.2-0.7l2.4,0.1l7.3,0L204.2,355.3z M198,350.5h3.5c2,0,3.2,0.6,3.2,2.2c0,1.6-1.2,2.2-3.2,2.2H198c-2.1,0-3.3-0.6-3.3-2.2
				C194.7,351.1,195.9,350.5,198,350.5z M197.3,360.7h5.8l0.6-0.7c0.8,0.1,1.6,0.9,1.4,1.3h-7.8c-0.2,0.2-0.6,0.3-1.2,0.4
				c-0.5,0.1-0.9,0.1-1.1,0c-0.2-0.1-0.3-0.2-0.2-0.6l0-1.5l-0.1-1.7c0.5-0.1,1.6,0,2.3,0.3c0.2,0.1,0.3,0.1,0.4,0.3
				c0.1,0.1,0,0.3-0.1,0.6V360.7z M200.1,354.2c1.2,0,2.1-0.5,2.1-1.6c0-1.1-0.9-1.6-2.1-1.6h-0.9c-1.1,0-2,0.5-2,1.6
				c0,1,0.9,1.6,2,1.6H200.1z"/>
			<path d="M210.4,355.2c-0.1-0.1-0.1-0.2,0-0.2c1.1-1.3,1.8-2.3,2.2-3.6h-0.3l-1.7,0.1l-0.2-0.7l2.2,0.1h6l0.6-0.7
				c0.7,0.1,1.8,0.8,1.6,1.3h-1.6c-0.2,0.4-0.5,0.8-0.8,1.1c0.9,0.2,1.6,0.4,2.2,0.9c0.4,0.3,0.4,1,0.2,1.4
				c-0.2,0.3-0.5,0.4-0.9,0.4c-0.3,0-0.5-0.2-0.7-0.5c-0.4-0.7-0.7-1.1-1.3-1.6c-0.7,0.7-1.6,1.3-2.6,1.8c0.5,0,0.9,0,1.4,0.1
				c0.3,0,0.4,0.2,0.4,0.4c0,0.1-0.1,0.2-0.2,0.3l0,0.6l2.8,0l0.4-0.5c0.4,0,0.8,0.2,1,0.4c0.3,0.2,0.4,0.5,0.3,0.6l-9.7,0l-1.7,0.1
				l-0.1-0.8l2.3,0.1h2.4l0-1l-0.3,0.1c-0.1,0-0.3,0-0.4-0.1c-0.1-0.1-0.1-0.2,0-0.2l0.6-0.6c0,0,0,0,0,0c-0.2,0-0.4-0.2-0.4-0.4
				c0-0.5-0.1-0.8-0.3-1.2c-0.8,0.9-1.8,1.5-2.9,2.2C210.7,355.3,210.5,355.3,210.4,355.2z M212.8,359l-1.9,0.1l-0.2-0.7l2,0
				l5.2-0.1l0.5-0.6c0.6,0.1,1.4,0.2,2,0.3c0.3,0.1,0.4,0.2,0.5,0.4s-0.1,0.3-0.1,0.5v2.1c0,0.4-0.7,0.7-1.6,0.7
				c-0.6,0-1.1-0.1-1.1-0.4v-2.4L212.8,359z M214.9,351.4c-0.2,0.4-0.5,0.7-0.7,1c0.5,0.2,1,0.5,1.3,0.9l0,0.1
				c0.5-0.6,0.9-1.2,1.2-2H214.9z"/>
			<path d="M232.1,355.6c0.6,0.1,1.5,0.9,1.3,1.2l-9.7,0l-1.7,0l-0.2-0.7l2.4,0.1l7.3,0L232.1,355.6z M226,350.6h3.4
				c2,0,3.3,0.6,3.3,2.2s-1.3,2.2-3.3,2.2H226c-2.1,0-3.4-0.6-3.4-2.2S223.9,350.6,226,350.6z M225.2,360.7h5.7l0.6-0.7
				c0.8,0.1,1.6,0.9,1.5,1.3h-7.8c-0.3,0.2-1.1,0.4-1.7,0.3c-0.5,0-0.8-0.1-0.8-0.6v-1.7l0-1.5c0.8,0,1.8,0,2.3,0.2
				c0.2,0.1,0.3,0.2,0.4,0.3c0,0.2,0,0.3-0.1,0.4V360.7z M228.1,354.3c1.2,0,2.1-0.5,2.1-1.5c0-1.1-0.9-1.5-2.1-1.5h-1
				c-1.1,0-2.1,0.5-2.1,1.5c0,1,0.9,1.5,2.1,1.5H228.1z"/>
			<path d="M235.9,352.5l-0.5,1.6c-0.4,0.1-0.9,0-1.1-0.3c-0.3-0.3-0.3-0.8-0.1-1.1c0.4-0.9,1.9-1.1,2.7-1.2c1.7,0,2.7,0.7,2.8,2.1
				c0.1,1.2-0.9,2-1.8,2.8l-0.8,0.7c-0.2,0.2-0.3,0.3-0.4,0.5c0,0.2,0,0.5,0,0.9l-1,0.2l-0.2-1.3c-0.1-0.6,0.1-1,0.7-1.4l1-0.8
				c0.6-0.5,0.8-1,0.8-1.8c0-0.6-0.4-1.2-1.1-1.2C236.4,352.1,236.1,352.2,235.9,352.5z M235.4,360.3c0-0.5,0.4-0.9,0.9-0.9
				c0.5,0,0.9,0.4,0.9,0.9c0,0.5-0.4,0.9-0.9,0.9C235.9,361.2,235.4,360.8,235.4,360.3z"/>
		</g>
		<g id="맥주_스티커_본체">
			<g id="그림자">
				
					<image style="overflow:visible;opacity:0.25;enable-background:new    ;" width="127" height="144" xlink:href="1389EF04CE7DFE7D.png"  transform="matrix(1 0 0 1 90 140)">
				</image>
				<path class="st0" d="M179.7,259.4c1,1.2,2.8,1.5,4.1,0.7c0.3-0.2,0.6-0.5,0.8-0.8c0.2-0.4,0.3-0.8,0.3-1.1
					c0.3-3.9-0.3-7.9-1.9-11.5c-1.6-3.6-3.5-7.1-5.8-10.4h-28.6c-3.6,1.7-7,3.7-10.2,5.9c-3.2,2.3-5.8,5.3-7.6,8.9
					c-0.2,0.4-0.3,0.7-0.3,1.1c0,0.4,0.1,0.8,0.3,1.1c0.8,1.4,2.4,2,3.9,1.5l0.4-0.2l1.6-0.9c0.2-0.1,0.4-0.3,0.6-0.5
					c0.1-0.2,0.2-0.5,0.2-0.8c0-1.3-0.6-2.5-1.6-3.3l1.7,2.1c3.4,0.3,6.7-0.4,9.8-1.9l2.1-4.4c-0.9,1.9-1.6,3.9-2.1,5.9
					c-0.4,1.9-0.6,3.9-0.6,5.9c-0.1,1.8,0,3.7,0.3,5.5c1,3.6,3.4,6.6,6.7,8.3v-0.1c-0.3,0-0.6,0.1-0.9,0.3c-0.4,0.2-0.8,0.6-1.1,0.9
					c-0.3,0.4-0.4,0.9-0.2,1.3c0.3,0.5,0.9,0.9,1.5,1c0.5,0.1,0.9,0.2,1.4,0.1c0.5,0,1-0.1,1.4-0.2c0.8-0.3,1.5-0.6,2.2-1h0.1
					c-0.3-1.2-0.4-2.4-0.4-3.6c0-0.7,0.1-1.4,0.2-2.1c0.4-1.1,0.9-2.2,1.6-3.1c0.2-0.4,0.5-0.8,0.8-1.2l3.7,0c0.2,0.5,0.4,1,0.8,1.4
					c1,1.6,1.6,3.5,1.7,5.4c0.2,0.9,0,1.8-0.4,2.6v0.1c0.8,1.2,2.2,2,3.7,1.9c1.2,0.1,2.4-0.1,3.5-0.6c0.2-0.1,0.3-0.2,0.4-0.3
					c0.1-0.2,0.1-0.3,0.1-0.5c0.1-0.5,0-0.9-0.2-1.3c-0.3-0.5-0.8-0.8-1.3-0.8H172c3.3-1.7,5.7-4.7,6.7-8.3c0.4-1.8,0.5-3.7,0.3-5.5
					c0-2-0.2-3.9-0.6-5.9c-0.5-2-1.2-4-2.1-5.9"/>
				<path class="st0" d="M176.7,262.4c2.4,2.5,6.1,3.1,9.2,1.4c3.4-2,3.7-5.8,3.5-9.4c-0.4-6-2.9-11.6-6-16.7
					c-1.4-2.4-2.8-5.7-6-5.8h-24.9c-1.2,0-2.5-0.1-3.7,0c-1.4,0.2-2.8,0.7-4,1.5c-1.3,0.7-2.6,1.3-3.8,2.1c-2.6,1.4-5,3.1-7.2,5
					c-2.3,2-4.2,4.3-5.7,6.9c-1,1.5-1.6,3.3-1.6,5.1c0.2,2.3,1.4,4.3,3.3,5.5c3.1,2,6.3,1.2,9.2-0.7c2.2-1.3,3.3-3.9,2.7-6.4
					c-0.3-1.9-1.3-3.6-2.7-4.8c-1.8-1.6-4.4-1.4-6,0.4c-1.4,1.6-1.4,4,0,5.6c1.1,1.3,2,2.6,3.6,3.2c1.7,0.3,3.3,0.3,5,0
					c1.6-0.2,3.2-0.5,4.7-1c1.8-0.6,3.8-1.2,4.8-2.9c0.2-0.4,0.4-0.8,0.6-1.2l1.5-3.1l-7.3-4.3c-1.3,2.7-2.3,5.5-2.9,8.4
					c-0.5,3-0.6,6.1-0.4,9.1c0.5,5.8,3.9,11,9.1,13.8c2,1.2,4.6,0.4,5.8-1.6c0.9-1.6,0.7-3.7-0.7-5.1c-2.1-2.4-5.6-1.1-7.5,0.7
					c-2.1,1.8-2.6,4.9-1.2,7.3c2.7,4.3,8.5,3.3,12.2,1.1l-2.1,0.6h0.1c2.8-0.4,4.8-2.4,4.1-5.4c-0.1-0.4-0.2-0.9-0.3-1.3
					c0.1,0.5,0,0,0-0.2v-1.8c-0.1,0.3-0.1,0.4,0,0.1c0-0.1,0.3-1,0.1-0.4c0.2-0.3,0.3-0.7,0.5-1c0.4-0.7,0.9-1.4,1.4-2.1l-3.7,2.1
					h3.7l-4.1-3.1c0.3,0.9,0.7,1.7,1.2,2.4c0.2,0.3,0.4,0.6,0.5,0.9c0.3,0.6-0.2-0.8,0.1,0.3c0.2,0.7,0.3,1.3,0.4,2
					c-0.1-0.4,0-0.3,0,0.1c0,0.4,0,0.8,0,1.1c0-0.2,0.1-0.5,0.1-0.7c-0.3,0.5-0.5,1-0.5,1.6c-0.1,0.4-0.1,0.8,0,1.1
					c0.1,0.9,0.5,1.7,1.1,2.5c1.1,1.5,2.7,2.5,4.4,3c3.4,1,9.2,0.3,10.4-3.7c1.1-3.1-0.5-6.6-3.7-7.7c-0.7-0.2-1.4-0.4-2.1-0.3
					l2.1,7.9c5.1-2.8,8.6-8,9.1-13.8c0.2-3,0.1-5.9-0.4-8.9c-0.6-3-1.5-5.9-2.9-8.7c-0.9-2.1-4-2.7-5.8-1.5
					c-2.1,1.4-2.5,3.6-1.5,5.8c0.1,0.3,0.2,0.6,0.4,0.8l0.1,0.2c0.2,0.6,0.4,1.1,0.6,1.7c0.4,1.1,0.7,2.3,0.9,3.5c0-0.4,0-0.3,0,0.2
					c0,0.3,0.1,0.6,0.1,0.9c0,0.5,0.1,0.9,0.1,1.4c0.1,1.2,0.1,2.5,0.1,3.7c0,0.3,0,0.6-0.1,0.9c0.1-0.4,0.1-0.3,0,0.2
					c-0.1,0.5-0.2,1-0.4,1.5c-0.3,1.1,0.4-0.6-0.2,0.4c-0.2,0.4-0.5,0.9-0.8,1.3s-0.3,0.4,0,0c-0.2,0.2-0.3,0.4-0.5,0.6
					c-0.3,0.4-0.7,0.7-1.1,1.1c-0.2,0.2-0.4,0.3-0.6,0.5c0.4-0.3,0.3-0.3-0.1,0s-0.9,0.6-1.3,0.8c-3.7,2.1-2,7.9,2.1,7.9h0.2
					c1.2,0,0.3-0.7-2.6-2l-0.1-0.5v-0.3l1.1-1.9c1.2-0.6,1.4-0.8,0.6-0.5c-0.3,0.1-0.6,0.1-0.9,0.2c0.9-0.1-1.6-0.2-0.3,0
					c-0.2,0-0.5-0.1-0.7-0.2l0,0c0.4,0.3,0.4,0.3,0,0c0.6,1.3,0.8,1.7,0.7,1.2l-0.4,3.3c1.4-2.3,1.1-4.9,0.6-7.5
					c-0.2-1.2-0.6-2.3-1.1-3.4c-0.2-0.4-0.3-0.8-0.6-1.1c-0.1-0.2-0.8-1.5-0.6-0.8c-0.5-1.8-2.2-3.1-4.1-3.1c-1.8,0-4.3-0.5-5.8,0.5
					s-2.5,2.9-3.3,4.4c-1.7,3.3-1.6,6.9-0.8,10.4l4.1-5.4c-1,0.1-2,0.4-2.9,1c-0.6,0.4,0.1,0-0.3,0.1s-0.6,0.2-0.9,0.3
					c0.5-0.2,0.3,0.1-0.1,0l0,0c-0.2,0-0.2-0.1,0.1,0c0.4-0.5,2.3,4,0.6,4.7l0.3-0.2c0.4-0.2,0.4-0.2-0.2,0.1l-4.1-1.1v0l5.1-6.7
					c-0.4-0.2-0.9-0.5-1.3-0.8s-0.4-0.3-0.1,0c-0.2-0.2-0.4-0.3-0.6-0.5c-0.4-0.4-0.7-0.7-1.1-1.1c-0.2-0.2-0.3-0.4-0.5-0.6
					c0.3,0.4,0.3,0.3,0-0.1s-0.5-0.9-0.8-1.3c-0.4-0.8,0.1,0.5-0.1-0.4c-0.1-0.5-0.3-1-0.4-1.5s-0.1-0.6,0-0.2c0-0.3,0-0.6-0.1-0.9
					c0-1.2,0-2.5,0.1-3.7c0-0.5,0-0.9,0.1-1.4c0-0.3,0.1-0.6,0.1-0.9c0.1-0.5,0.1-0.6,0-0.2c0.2-1.2,0.5-2.4,0.9-3.5
					c0.2-0.6,0.4-1.1,0.6-1.7c-0.1,0.3-0.1,0.2,0.1-0.2l0.4-0.8c0.9-2,0.7-4.7-1.5-5.8c-1.9-1-4.8-0.6-5.8,1.5l-2.1,4.4l1.5-1.5
					c-1.2,0.6,0.7-0.2-0.6,0.3l-0.8,0.3c-0.8,0.2-1.5,0.4-2.3,0.6c-0.1,0-1.1,0.1-0.4,0.1c-0.4,0-0.7,0.1-1.1,0.1
					c-0.8,0.1-1.6,0.1-2.4,0l3,1.2l-1.7-2.1l-6,6c0.2,0.2,0.4,0.3,0.6,0.5c-0.3-0.4-0.3-0.3,0,0.1c-0.2-0.4-0.2-0.4-0.1,0.1
					c-0.1-0.2-0.1-0.5-0.1-0.8l1.1-1.9c0.3-0.3,0.2-0.1-0.1,0.1l-0.6,0.4c-0.3,0.1-0.3,0.2,0.1,0.1s0.4-0.1,0.2,0l-0.1,0.1
					c-0.3,0.4-0.4,0,0.1,0.1c0.3,0,0.6,0.2,0.2,0c0.4,0.1,0.4,0.3,0.1,0c0.2,0.1,0.4,0.2,0.5,0.4c0.1,0.2,0.2,0.2,0,0
					c-0.2-0.4-0.2-0.2,0,0.7c0,0.9,0,1.1,0.2,0.7c0.1-0.3,0.1-0.2-0.1,0.1l0.2-0.4l0.4-0.7c0.3-0.5,0.6-1,1-1.5
					c0-0.1,0.5-0.7,0.3-0.4s0.4-0.4,0.4-0.5c0.4-0.5,0.8-0.9,1.2-1.3c0.8-0.8,1.7-1.6,2.6-2.3c-0.5,0.4,0.1-0.1,0.3-0.2l0.7-0.5
					c0.6-0.4,1.1-0.8,1.7-1.1c2.3-1.4,4.8-2.7,7.2-3.9l-2.1,0.6h28.7l-3.7-2.1c2.4,3.9,4.9,7.8,6.2,11.7c0.3,1.1,0.6,2.2,0.8,3.3
					c0.1,0.5,0.1,0.6,0.1,0.2c0,0.3,0.1,0.6,0.1,0.9c0,0.5,0.1,1.1,0.1,1.6c0,0.5,0,1.1-0.1,1.6c0.1-0.4,0.1-0.4,0,0.1
					c0.1-0.7,0.7-1.3,1.4-1.5c-0.5,0.1-0.4,0.1,0.2,0c-0.5,0-0.4,0,0.1,0c0.5,0.2,0.5,0.3,0.1,0c0.4,0.4,0.5,0.4,0.1,0
					c-1.7-1.6-4.3-1.6-6,0c-1.6,1.7-1.6,4.3,0,6L176.7,262.4z"/>
				<path class="st5" d="M169.2,237.5c2.3,0,14.6-1.2,22.7-9.5c10.8-11.1,6.4-26.9,5.8-29.4c-0.2-0.8-5.1-17.4-22-23.5
					c-7.1-2.5-14.8-2.7-22-0.6c-3,0.8-15.1,4.6-22,16.8c-1.1,2.1-10.1,18.6-0.4,33.1c8.3,12.4,23.6,13.1,25.3,13.2"/>
				<path class="st0" d="M141.3,180.1c-0.5-0.8-0.9-1.6-1.1-2.5c-0.8-2.9-1.1-6-0.9-9.1h-0.1c-1.7,0.3-3.5,0.2-5.1-0.2
					c-0.7-0.1-1.3-0.3-1.9-0.6c-0.9-0.4-1.7-0.9-2.4-1.6V166c-0.6-1.8-0.1-3.7,1.2-5c0.1-0.1,0.2-0.1,0.3-0.1h0.1
					c1.4,0.7,2.9,1.1,4.5,1.3c1.6,0.2,3.1,0.2,4.7,0.2l0,0c0.4-2.7,1-5.3,1.8-7.8c0.8-2.6,2.2-4.9,4-6.9v-0.1
					c0.4-0.3,0.8-0.4,1.3-0.3c0.4,0.1,0.9,0.2,1.2,0.5c0.7,0.4,1.4,1,1.9,1.7c0.2,0.2,0.3,0.5,0.3,0.8l-0.1,0.2
					c-1.5,2.4-2.7,5-3.5,7.7c-1,3-1.7,6.1-1.9,9.3c-0.2,3.2,0.3,6.4,1.4,9.3"/>
				<path class="st0" d="M144.9,178c-0.1-0.2-0.6-1-0.3-0.4c-0.1-0.4-0.3-0.7-0.4-1.1c-0.3-1-0.5-1.9-0.6-2.9l0,0
					c0-0.2,0-0.5-0.1-0.7c0-0.4-0.1-0.9-0.1-1.4c0-1,0-2,0.1-3c0.2-2.6-2.9-5.1-5.4-4.1c-0.1,0-0.2,0,0.1,0h-0.9
					c-0.6,0-1.3-0.1-1.9-0.2c-0.3-0.1-0.7-0.1-1-0.2c-0.1,0-1-0.4-0.6-0.2s-0.5-0.3-0.6-0.4c-0.7-0.4,0.2,0.2-0.5-0.3l1.2,3
					c0-0.6-0.1-1.1-0.2-1.6c0.2,1.3,0.1-0.8,0-0.1c0,0.3,0,0.3,0-0.1s0.1-0.5,0,0c0.3-0.4,0.2-0.4-0.1,0c0.1-0.1,0.2-0.2,0.4-0.3
					l-1.9,1.1c0.8-0.2,1.5-0.6,2.1-1.2l-5.1,0.7c3.6,1.6,7.5,2.3,11.4,2.1l-4.1-3.1l0,0c0.7,4,7.5,4.1,8.2,0c0.4-2.9,1.1-5.7,2-8.4
					c0-0.1,0.3-0.8,0.2-0.5s0.3-0.7,0.3-0.6c0.3-0.6,0.6-1.1,0.9-1.7c0.1-0.2,0.3-0.5,0.5-0.7l0,0l0.3-0.3c0.5-0.5,0.9-1,1.3-1.6
					l-1.5,1.5c-0.5,0.2-1,0.3-1.6,0.2c-0.3-0.1-0.3-0.1,0.2,0.2c-0.3-0.2-0.3-0.2,0.1,0.1c0.5,0.6,0.4,0.4-0.2-0.5V149
					c-0.1,0.3,0,0.2,0.1-0.4l-0.5,0.8c-0.3,0.5-0.6,1-0.8,1.6c-0.6,1.3-1.2,2.6-1.7,3.9c-0.9,2.3-1.6,4.7-2,7.2
					c-1,5.2-1.1,10.8,0.9,15.9c0.8,2.1,2.9,3.7,5.2,3c2-0.6,3.9-3,3-5.2c-0.4-1.1-0.8-2.3-1-3.5c-0.1-0.3-0.1-0.6-0.2-0.9V171
					c0-0.5-0.1-1.2-0.1-1.8c-0.1-2.1,0.2-4.3,0.7-6.3c0.3-1.2,0.6-2.5,1-3.7c0.2-0.6,0.4-1.1,0.6-1.7c0.1-0.3,0.2-0.6,0.3-0.8
					c0.2-0.5,0.2-0.6,0.1-0.2c1-2.5,3.3-4.8,2.5-7.6c-1.1-3.2-4.1-5.5-7.5-5.8c-2-0.1-3.9,0.8-4.9,2.4c0.5-1,0.1-0.2-0.2,0.2
					s-0.9,1.1-1.3,1.7c-2.9,4.1-3.9,9.1-4.7,14h8.2c-0.5-1.8-2.2-3.1-4.1-3.1c-1.4,0-2.8,0-4.1-0.1c0.3,0-0.4-0.1-0.5-0.1
					c-0.3-0.1-0.7-0.1-1-0.2l-0.8-0.2c-1.2-0.4,0.6,0.3-0.6-0.2c-1.7-0.9-3.8-0.6-5.1,0.7l0,0l1.9-1.1c-2.4,0.5-4.1,3.4-4.6,5.6
					c-0.3,1.3-0.3,2.7,0,4c0.3,1.2-0.2-1.6,0.1,0.3c0.1,1.1,0.7,2,1.5,2.7c1.8,1.6,4,2.7,6.4,3.1c2.1,0.4,5,0.9,7,0.1l-5.4-4.1
					c-0.1,2.4,0,4.9,0.4,7.3c0.3,2.3,1,4.5,2.1,6.4c1.2,2,3.8,2.7,5.8,1.5c2-1.2,2.7-3.8,1.5-5.8L144.9,178z"/>
				<path class="st0" d="M186.8,180.1c0.5-0.8,0.9-1.6,1.1-2.5c0.8-2.9,1.1-6,0.9-9.1h0.1c1.7,0.3,3.5,0.2,5.1-0.2
					c0.7-0.1,1.3-0.3,1.9-0.6c0.9-0.4,1.7-0.9,2.4-1.6V166c0.6-1.8,0.1-3.7-1.2-5c-0.1-0.1-0.2-0.1-0.3-0.1l0,0
					c-1.4,0.7-2.9,1.1-4.5,1.3c-1.6,0.2-3.1,0.2-4.7,0.2l0,0c-0.4-2.7-1-5.3-1.8-7.8c-0.8-2.6-2.2-4.9-4-6.9v-0.1
					c-0.4-0.3-0.8-0.4-1.3-0.3c-0.4,0.1-0.9,0.2-1.3,0.5c-0.7,0.4-1.4,1-1.9,1.7c-0.2,0.2-0.3,0.5-0.3,0.8l0.1,0.2
					c1.5,2.4,2.7,5,3.5,7.7c1,3,1.7,6.1,1.9,9.3c0.2,3.2-0.3,6.4-1.5,9.3"/>
				<path class="st0" d="M190.4,182.3c1.1-2,1.9-4.2,2.1-6.4c0.4-2.4,0.6-4.8,0.4-7.3l-5.4,4.1c2.1,0.8,4.9,0.3,7-0.1
					c2.4-0.4,4.6-1.5,6.4-3.1c0.6-0.6,1.1-1.3,1.4-2.1c0.1-0.4,0.1-0.8,0.2-1.2c-0.1,0.8-0.1,0.9,0,0.4c0.3-1.3,0.3-2.7,0-4
					c-0.5-2.2-2.1-5.1-4.5-5.6l1.9,1.1l0,0c-1.4-1.3-3.5-1.6-5.1-0.7l-0.4,0.2l0,0l-0.8,0.3c-0.4,0.1-0.7,0.2-1,0.2
					c-0.1,0-1.1,0.2-0.7,0.1h-0.6c-0.4,0-0.8,0.1-1.2,0.1h-2.4c-1.9,0-3.6,1.3-4.1,3.1h8.2c-0.9-4.8-1.9-9.7-4.6-13.8
					c-0.4-0.6-0.9-1.3-1.4-1.9c-0.3-0.4-0.8-1.1-0.2-0.2c-1.1-1.6-3-2.6-4.9-2.4c-3.4,0.3-6.4,2.6-7.5,5.8c-0.8,2.9,1.5,5.2,2.5,7.6
					c-0.1-0.3-0.1-0.2,0.1,0.2c0.1,0.3,0.2,0.6,0.3,0.8c0.2,0.6,0.4,1.1,0.6,1.7c0.4,1.1,0.7,2.3,1,3.4c0.6,2.1,0.8,4.4,0.8,6.6
					c0,0.6-0.1,1.2-0.1,1.8s-0.1,0.6,0,0.2c0,0.3-0.1,0.6-0.2,0.9c-0.3,1.2-0.7,2.3-1.1,3.4c-0.8,2.1,0.9,4.8,3,5.2
					c2.3,0.5,4.6-0.8,5.2-3c2-5,1.9-10.6,0.9-15.9c-0.5-2.4-1.2-4.8-2.1-7.2c-0.5-1.3-1-2.6-1.7-3.9c-0.3-0.5-0.5-1.1-0.8-1.6
					l-0.4-0.8c0.2,0.6,0.2,0.7,0.1,0.4v2.3c-0.6,0.9-0.7,1-0.2,0.5c0.4-0.3,0.4-0.4,0.1-0.1c0.4-0.2,0.5-0.3,0.2-0.2
					c-0.5,0.1-1.1,0-1.6-0.2l-1.5-1.5c0.3,0.5,0.7,1,1.1,1.4c0.1,0.2,0.6,0.8,0.3,0.3c0.2,0.2,0.3,0.5,0.5,0.7
					c0.4,0.6,0.7,1.2,1,1.9c0.1,0.2,0.2,0.5,0.4,0.8c-0.2-0.5,0.1,0.2,0.1,0.4c0.9,2.8,1.6,5.6,2,8.4c0.7,4.1,7.5,4,8.2,0l0,0
					l-4.1,3.1c3.9,0.2,7.8-0.5,11.4-2.1l-5.1-0.7c0.6,0.6,1.3,1,2.1,1.2l-1.9-1.1c0.1,0.1,0.3,0.2,0.4,0.4c-0.3-0.4-0.3-0.4-0.1,0
					c-0.2-0.5-0.2-0.5,0,0s0.1,0.5,0,0.1c-0.1-0.7-0.2,1.4,0,0.1c-0.1,0.5-0.2,1.1-0.3,1.6l1.2-3c-0.9,0.8,0.6-0.3-0.5,0.3
					c-0.2,0.1-0.5,0.3-0.7,0.4c0.7-0.3-0.4,0.1-0.5,0.1c-0.3,0.1-0.7,0.2-1,0.2c-0.1,0-1,0.2-0.5,0.1c-0.8,0.1-1.6,0.1-2.4,0.1h0.1
					c-2.5-1-5.6,1.5-5.4,4.1c0.1,0.9,0.1,1.8,0.1,2.7c0,0.5,0,0.9-0.1,1.4l-0.1,0.9l0,0c-0.1,0.9-0.3,1.8-0.6,2.7
					c-0.1,0.4-0.2,0.8-0.4,1.2s-0.1,0.2,0-0.1c-0.1,0.2-0.3,0.5-0.4,0.7c-1.2,2-0.5,4.6,1.5,5.8C186.6,185,189.2,184.3,190.4,182.3
					L190.4,182.3z"/>
				
					<ellipse transform="matrix(0.9968 -8.002496e-02 8.002496e-02 0.9968 -16.3433 12.2398)" class="st6" cx="144.5" cy="210" rx="5.1" ry="2.1"/>
				
					<ellipse transform="matrix(8.002489e-02 -0.9968 0.9968 8.002489e-02 -44.6672 369.8579)" class="st6" cx="178" cy="209.1" rx="2.1" ry="5.1"/>
				<path class="st7" d="M136.5,184.2c-1.9-2.5-4.5-4.4-7.5-5.4c-3.9-1.1-7.7,0-11.4,1.3c-0.1,0-0.2,0.1-0.3,0.2
					c-0.4,0.1-0.8,0.4-0.9,0.9c-0.5,4.4,0.5,8.8,2.8,12.5c1.9,3.2,4.9,6.2,8.6,7.3c0.5,0.1,1-0.2,1.2-0.7c0.5-1.4,1-2.9,1.5-4.4
					c0.1-0.3,0.2-0.7,0.4-1l0.1-0.2v-0.1l0.8-1.5c0.6-1.2,1.3-2.4,1.9-3.6l0,0c1.1-1.3,2.1-2.6,2.9-4.1
					C136.9,185.1,136.8,184.6,136.5,184.2z"/>
				<path class="st7" d="M136.5,184.2c-1.9-2.5-4.5-4.4-7.5-5.4c-3.9-1.1-7.7,0-11.4,1.3c-0.1,0-0.2,0.1-0.3,0.2
					c-0.4,0.1-0.8,0.4-0.9,0.9c-0.5,4.4,0.5,8.8,2.8,12.5c1.9,3.2,4.9,6.2,8.6,7.3c0.5,0.1,1-0.2,1.2-0.7c0.5-1.4,1-2.9,1.5-4.4
					c0.1-0.3,0.2-0.7,0.4-1l0.1-0.2v-0.1l0.8-1.5c0.6-1.2,1.3-2.4,1.9-3.6l0,0c1.1-1.3,2.1-2.6,2.9-4.1
					C136.9,185.1,136.8,184.6,136.5,184.2z"/>
				<path class="st7" d="M189.9,186.4c0.8,1.5,1.8,2.8,2.9,4.1l0,0c0.6,1.2,1.3,2.4,1.9,3.6c0.3,0.5,0.5,1,0.8,1.5v0.1l0.1,0.2
					c0.1,0.4,0.3,0.7,0.4,1.1c0.5,1.5,1,2.9,1.5,4.4c0.2,0.5,0.7,0.8,1.2,0.7c3.6-1.1,6.6-4.1,8.6-7.3c2.3-3.7,3.3-8.1,2.8-12.5
					c-0.1-0.4-0.4-0.8-0.9-0.9c-0.1-0.1-0.2-0.1-0.3-0.2c-3.7-1.3-7.5-2.4-11.4-1.3c-3,1-5.6,2.8-7.5,5.4
					C189.7,185.5,189.7,186,189.9,186.4z"/>
				<path class="st7" d="M189.9,186.4c0.8,1.5,1.8,2.8,2.9,4.1l0,0c0.6,1.2,1.3,2.4,1.9,3.6c0.3,0.5,0.5,1,0.8,1.5v0.1l0.1,0.2
					c0.1,0.4,0.3,0.7,0.4,1.1c0.5,1.5,1,2.9,1.5,4.4c0.2,0.5,0.7,0.8,1.2,0.7c3.6-1.1,6.6-4.1,8.6-7.3c2.3-3.7,3.3-8.1,2.8-12.5
					c-0.1-0.4-0.4-0.8-0.9-0.9c-0.1-0.1-0.2-0.1-0.3-0.2c-3.7-1.3-7.5-2.4-11.4-1.3c-3,1-5.6,2.8-7.5,5.4
					C189.7,185.5,189.7,186,189.9,186.4z"/>
				<path class="st0" d="M137.4,254.8v3.5c0,0.1,0,0.1,0,0.2c-0.1,0.1-0.1,0.1-0.2,0.1L132,260"/>
				<path class="st0" d="M133.2,254.8v3.6l0.2-1.1c0,0,0,0.1,0,0.1l1.1-1.9l-0.1,0.1l0.9-0.7h-0.1l1-0.4c-0.4,0.1-0.9,0.2-1.3,0.3
					l-1.4,0.4l-2.7,0.7c-1.1,0.3-2,1-2.5,2c-0.5,1-0.7,2.2-0.4,3.3c0.3,1.1,1,2,2,2.5c1,0.6,2.2,0.7,3.3,0.4l4.9-1.3
					c0.5-0.1,1-0.3,1.4-0.5c1-0.6,1.8-1.5,2.1-2.7c0.1-0.7,0.2-1.5,0.2-2.2v-2.5c0-1.1-0.5-2.2-1.2-3c-0.8-0.8-1.9-1.2-3-1.2
					c-1.1,0-2.2,0.5-3,1.2C133.7,252.6,133.3,253.7,133.2,254.8L133.2,254.8z"/>
				<path class="st0" d="M135.3,249.2c0.1-2.6-0.2-5.1-0.8-7.6c-2.1,1.1-4.2,2.2-6.4,3.1"/>
				<path class="st0" d="M139.6,249.2c0.1-2.9-0.2-5.9-1-8.7c-0.4-1.3-1.3-2.3-2.5-2.8c-1.2-0.5-2.6-0.4-3.8,0.2
					c-2.1,1.1-4.2,2.2-6.4,3.1c-0.5,0.3-0.9,0.6-1.2,1.1c-0.4,0.4-0.6,0.9-0.8,1.4c-0.6,2.3,0.7,4.6,3,5.2c0,0,0,0,0,0l0,0l1.1,0.1
					c0.8,0,1.5-0.2,2.1-0.6c2.2-0.9,4.3-2,6.4-3.1l-6.2-2.5c0.3,1,0.5,2.1,0.6,3.1l-0.1-1.1c0.2,1.5,0.3,3,0.2,4.5
					c0,1.1,0.5,2.2,1.2,3c1.7,1.7,4.3,1.7,6,0c0,0,0,0,0,0l0,0C139.1,251.4,139.5,250.3,139.6,249.2L139.6,249.2z"/>
				<path class="st0" d="M110.8,275.3c7.5-0.3,14.7-2.9,20.7-7.4v-0.3c-1.6-9-5.2-17.9-4.4-27l-0.3-0.1c-8.3-0.9-16.4,3-24.8,3.7
					v0.2c-0.6,5.4-0.2,10.8,1.1,16c1.3,5.2,3.9,10.1,7.4,14.2"/>
				<path class="st0" d="M110.8,279.5c4.4-0.2,8.8-1.1,13-2.7c2.2-0.8,4.3-1.8,6.3-3c2.4-1.4,5.6-3.1,5.6-6.2c0-2.3-0.9-5-1.4-7.2
					s-1.1-4.5-1.7-6.8c-1.2-4.3-1.6-8.7-1.3-13.1c0-1.9-1.3-3.6-3.1-4.1c-4.5-0.8-9.2-0.1-13.7,0.9c-2.2,0.5-4.4,1.1-6.6,1.6
					c-2,0.5-4,0.8-6,1.1c-2.3,0.1-4.2,1.9-4.2,4.2c-1,12.1,1.6,24.2,9.8,33.4c1.7,1.6,4.3,1.6,6,0c1.6-1.7,1.6-4.3,0-6
					c-0.2-0.3-0.5-0.5-0.7-0.8l-0.3-0.4c-0.1-0.2-0.3-0.4-0.4-0.6l-0.5-0.7c-0.7-1-1.3-2.1-1.9-3.2c-0.3-0.5-0.6-1.1-0.8-1.7
					c0-0.1-0.4-0.8-0.2-0.5s-0.2-0.6-0.2-0.6c-0.4-1.2-0.8-2.3-1.2-3.5c-0.7-2.4-1.1-4.9-1.2-7.5c-0.1-2.7,0-5.3,0.2-8l-4.2,4.2
					c4.6-0.6,9.1-1.4,13.5-2.6c1-0.2,2-0.5,3.1-0.7l1.8-0.3c0.9-0.1-0.3,0,0.6-0.1s2.1-0.2,3.1-0.2c0.6,0,1.2,0.1,1.8,0.1
					c1.4,0-0.8-0.2,0.1,0l-3.1-4.1c-0.3,4.9,0.2,9.9,1.4,14.7c0.5,2.3,1.1,4.6,1.7,6.8c0.3,1.1,0.6,2.3,0.8,3.4l0.4,1.8l0.2,0.9
					c0-0.6-0.1-0.7-0.1-0.4l2.1-3.7c-1.5,1.1-3,2.1-4.6,3c-1.3,0.7-2.7,1.4-4.2,1.9c-1.6,0.6-3.3,1.1-5,1.4
					c-0.4,0.1-0.8,0.2-1.2,0.2c-0.2,0-1.3,0.2-0.5,0.1c-1,0.1-1.9,0.2-2.9,0.2c-2.3,0.1-4.2,2.1-4,4.5
					C106.9,277.7,108.7,279.5,110.8,279.5L110.8,279.5z"/>
				<path class="st0" d="M107.2,251.2c-0.7,6.1,1.4,12.2,5.6,16.7"/>
				<path class="st0" d="M102.9,251.2c-0.7,7.3,1.8,14.4,6.8,19.7c1.7,1.7,4.3,1.7,6,0s1.7-4.3,0-6c-0.2-0.3-0.5-0.5-0.7-0.8
					l-0.3-0.4c-0.4-0.4,0.1,0,0.2,0.2c-0.3-0.6-0.8-1.2-1.2-1.8c-0.4-0.6-0.7-1.2-1-1.9c-0.1-0.2-0.1-0.3-0.2-0.5
					c0.1,0.2,0.3,0.8,0.1,0.3c-0.1-0.4-0.3-0.8-0.4-1.1c-0.2-0.7-0.4-1.4-0.6-2.1c-0.1-0.4-0.1-0.7-0.2-1c-0.1-0.3-0.1-0.8,0-0.1
					c0.1,0.7,0,0,0-0.1c-0.2-1.5-0.2-2.9,0-4.4c0-2.3-1.9-4.2-4.2-4.2S102.9,248.9,102.9,251.2L102.9,251.2z"/>
				<path class="st0" d="M114.9,249.8c-0.3,2.7-0.2,5.5,0.3,8.2c0.5,2.7,1.9,5.2,4,7"/>
				<path class="st0" d="M110.6,249.8c-0.5,6.5,0.3,13.8,5.6,18.3c0.8,0.8,1.9,1.2,3,1.2c1.1,0,2.2-0.5,3-1.2c1.5-1.6,1.8-4.5,0-6
					c-0.3-0.3-0.6-0.5-0.9-0.8l-0.3-0.4c-0.5-0.5,0.4,0.6,0.1,0.2c-0.4-0.6-0.8-1.3-1.2-2c-0.1-0.1-0.1-0.3-0.2-0.4
					c0.5,1,0.2,0.5,0.1,0.2s-0.2-0.7-0.3-1c-0.2-0.9-0.4-1.7-0.5-2.6l0.2,1.1c-0.2-2.2-0.2-4.4,0-6.5c0-2.3-1.9-4.2-4.2-4.2
					C112.6,245.6,110.7,247.5,110.6,249.8L110.6,249.8z"/>
				<path class="st0" d="M122.1,248.7c-0.4,5.1,0.2,10.2,1.8,15"/>
				<path class="st0" d="M117.8,248.7c-0.4,5.5,0.3,10.9,2,16.1c0.6,2.3,3,3.6,5.2,3s3.6-3,3-5.2c-0.7-2.2-1.2-4.5-1.6-6.9l0.2,1.1
					c-0.4-2.7-0.4-5.4-0.2-8.1c0-2.3-1.9-4.2-4.2-4.2C119.8,244.5,117.9,246.3,117.8,248.7L117.8,248.7z"/>
				<path class="st0" d="M110.7,226.4c-1.4,0.1-2.8,0.1-4.2,0c-2.2-0.4-4.4,0.8-5.3,2.9c-0.8,1.5-1.2,3.2-0.9,4.9"/>
				<path class="st0" d="M109.6,222.3h-0.2l1.1-0.1c-1.5,0.2-3-0.1-4.5-0.1c-1.9,0-3.8,0.5-5.4,1.6c-1,0.8-1.9,1.7-2.6,2.8
					c-0.5,0.9-0.9,1.8-1.3,2.7c-0.7,2-0.9,4.1-0.5,6.1c0.3,1.1,1,2,2,2.5c1,0.6,2.2,0.7,3.3,0.4c1-0.3,1.9-1,2.5-1.9
					c0.5-1,0.7-2.2,0.4-3.3l-0.1-0.4l0.2,1.1c-0.1-0.5-0.1-0.9,0-1.4l-0.2,1.1c0.1-0.8,0.3-1.5,0.6-2.3l-0.4,1
					c0.3-0.7,0.7-1.4,1.1-2l-0.7,0.9c0.2-0.3,0.5-0.5,0.7-0.7l-0.9,0.7c0.3-0.2,0.6-0.4,1-0.5l-1,0.4c0.5-0.2,0.9-0.3,1.4-0.4
					l-1.1,0.1c0.9-0.1,1.8-0.1,2.8,0c1.3,0.1,2.7,0,4-0.2c1.1-0.3,2-1,2.5-2c1.2-2,0.5-4.6-1.5-5.8c0,0-0.1,0-0.1-0.1l-1-0.4
					C111.1,222.1,110.3,222.1,109.6,222.3L109.6,222.3z"/>
				<path class="st0" d="M100.4,234.2c-0.3-0.1-0.6,0.1-0.8,0.4c-1,1.2-1.8,2.7-2.3,4.2c-0.3,0.8-0.4,1.7-0.4,2.5
					c0.1,0.9,0.5,1.7,1.2,2.2c1,0.5,2,0.6,3.1,0.4"/>
				<path class="st0" d="M101.5,230.1c-1.9-0.5-4,0.2-5.2,1.8c-0.6,0.7-1.2,1.5-1.7,2.4c-1,1.7-1.7,3.5-2,5.4
					c-0.2,1.2-0.1,2.4,0.2,3.5c0.3,1.2,1,2.3,1.9,3.1c0.9,0.9,2.1,1.4,3.3,1.7c1,0.2,2,0.2,3,0.1c1.1,0,2.2-0.5,3-1.2
					c0.8-0.8,1.2-1.9,1.2-3c0-1.1-0.5-2.2-1.2-3c-0.8-0.8-1.9-1.3-3-1.2c-0.6,0.1-1.3,0.1-1.9,0l1.1,0.1c-0.3,0-0.5-0.1-0.7-0.2
					l1,0.4c-0.2-0.1-0.4-0.2-0.5-0.3l0.9,0.7c-0.2-0.2-0.3-0.3-0.5-0.5l0.7,0.9c-0.1-0.2-0.3-0.4-0.3-0.6l0.4,1
					c-0.1-0.3-0.2-0.5-0.2-0.8l0.2,1.1c-0.1-0.4-0.1-0.8,0-1.2l-0.2,1.1c0.1-0.8,0.4-1.6,0.7-2.4l-0.4,1c0.4-1,1-2,1.7-2.9l-0.7,0.9
					c0.2-0.3,0.4-0.5,0.6-0.7L102,238l0.1-0.1l-1,0.4h0.1l-1.1,0.1h0.1l-1.1-0.1h0.1c1.1,0.3,2.3,0.1,3.3-0.4c1-0.6,1.7-1.5,2-2.5
					C105.1,233.1,103.8,230.8,101.5,230.1C101.5,230.2,101.5,230.2,101.5,230.1L101.5,230.1L101.5,230.1z"/>
				<path class="st0" d="M111.1,226.1c-0.3-0.7-0.1-1.5,0.6-1.9c0.6-0.4,1.3-0.6,2-0.6c1.3-0.2,2.6-0.3,3.9-0.1
					c1.3,0.2,2.5,0.8,3.3,1.8c0.5,0.7,0.9,1.6,1,2.5c0.2,1.1,0.2,2.4-0.6,3.2"/>
				<path class="st0" d="M114.8,223.9l-0.1-0.1l0.4,1c0-0.1-0.1-0.2-0.1-0.3l0.2,1.1c0-0.1,0-0.2,0-0.3l-0.2,1.1
					c0-0.1,0.1-0.3,0.1-0.4l-0.4,1c0.1-0.1,0.1-0.3,0.2-0.4l-0.7,0.9c0.1-0.1,0.2-0.2,0.3-0.3l-0.9,0.7c0.1-0.1,0.3-0.2,0.4-0.3
					l-1,0.4c0.6-0.2,1.2-0.4,1.8-0.4l-1.1,0.1c1.2-0.2,2.3-0.2,3.5-0.1l-1.1-0.1c0.6,0.1,1.1,0.2,1.6,0.4l-1-0.4
					c0.4,0.2,0.8,0.4,1.1,0.6l-0.9-0.7c0.3,0.2,0.6,0.5,0.8,0.8l-0.7-0.9c0.2,0.3,0.4,0.6,0.5,0.9l-0.4-1c0.3,0.6,0.5,1.3,0.5,2
					l-0.2-1.1c0.1,0.5,0.1,0.9,0,1.4l0.2-1.1c0,0.2-0.1,0.5-0.2,0.7l0.4-1c-0.1,0.1-0.1,0.3-0.2,0.4l0.7-0.9
					c-0.1,0.1-0.2,0.2-0.3,0.3c-1.6,1.7-1.6,4.3,0,6c1.7,1.6,4.3,1.6,6,0c2.2-2,2.3-5.3,1.5-8c-0.7-2.9-2.9-5.3-5.8-6.2
					c-2.5-0.9-5.2-0.6-7.8-0.2c-1.5,0.2-2.8,0.9-3.9,2c-1.7,1.8-2.1,4.5-0.9,6.7c1.1,2,3.7,2.8,5.7,1.6c1-0.6,1.7-1.5,2-2.6l0,0
					C115.5,226.1,115.3,224.9,114.8,223.9L114.8,223.9z"/>
				<path class="st0" d="M121.2,231.2c1,0.1,2,0.1,3,0c1-0.1,2,0.2,2.8,0.8c0.3,0.4,0.6,0.8,0.8,1.3c0.3,0.8,0.6,1.5,0.8,2.4
					c0.2,0.6,0.2,1.2,0.2,1.9c-0.1,0.6-0.4,1.2-0.8,1.6"/>
				<path class="st0" d="M120.1,235.3c1.1,0.2,2.1,0.3,3.2,0.2c0.7-0.1,1.3-0.1,2,0l-1.1-0.1c0.3,0,0.6,0.1,0.9,0.2l-1-0.4
					c0.2,0.1,0.4,0.2,0.6,0.4l-0.9-0.7c0.2,0.1,0.3,0.3,0.4,0.4l-0.7-0.9c0.2,0.4,0.4,0.7,0.6,1.1l-0.4-1c0.4,0.9,0.7,1.9,0.8,2.9
					l-0.2-1.1c0,0.4,0,0.8,0,1.1l0.2-1.1c0,0.3-0.1,0.5-0.2,0.8l0.4-1c-0.1,0.2-0.2,0.3-0.3,0.5l0.7-0.9c-0.1,0.1-0.2,0.2-0.3,0.3
					c-1.7,1.7-1.6,4.4,0,6c0.8,0.8,1.9,1.2,3,1.2l1.1-0.1c0.7-0.2,1.4-0.6,1.9-1.1c0.9-0.8,1.5-1.8,1.8-3c0.3-1.3,0.3-2.6,0.1-3.9
					c-0.3-1.6-0.8-3.1-1.5-4.5c-1-1.9-2.7-3.2-4.8-3.5c-0.9-0.2-1.9-0.2-2.8-0.2c-0.7,0.1-1.4,0.1-2.1,0.1l1.1,0.1l-0.3-0.1
					c-0.5-0.2-1.1-0.2-1.7-0.1c-0.6,0-1.1,0.2-1.6,0.5c-2,1.2-2.7,3.8-1.5,5.8c0,0,0,0,0,0l0,0c0.5,1,1.5,1.7,2.5,2L120.1,235.3z"/>
				<circle class="st8" cx="147.4" cy="201.1" r="2.7"/>
				<path class="st0" d="M173.1,194h3.2"/>
				<path class="st0" d="M173.1,198.3h3.2c0.6,0,1.1-0.1,1.6-0.4c1-0.4,1.9-1.2,2.2-2.2c0.3-0.5,0.4-1.1,0.4-1.6l-0.1-1.1
					c-0.2-0.7-0.6-1.4-1.1-1.9l-0.9-0.7c-0.7-0.4-1.4-0.6-2.1-0.6h-3.2c-1.7,0-3.3,1-3.9,2.6c-0.3,0.5-0.4,1.1-0.4,1.6l0.1,1.1
					c0.2,0.7,0.6,1.4,1.1,1.9l0.9,0.7C171.6,198.1,172.3,198.3,173.1,198.3L173.1,198.3z"/>
				<circle class="st8" cx="174.4" cy="200.9" r="2.7"/>
				<path class="st0" d="M157,207c0.6-0.4,1.3-0.7,2-0.9c1-0.3,2-0.5,3.1-0.5c1.5-0.1,3.1-0.1,4.6,0.1c-1.4,3.3-3.3,6.4-4.2,9.9l0,0
					c-1.1-0.7-2-1.6-2.7-2.6c-0.7-0.9-1.3-1.8-1.7-2.8c-0.5-0.9-0.9-1.9-1-3"/>
				<path class="st0" d="M160,210l0.1-0.1l-0.9,0.7c0.2-0.1,0.3-0.2,0.5-0.3l-1,0.4c1-0.4,2.1-0.7,3.2-0.9l-1.1,0.1
					c1.9-0.2,3.9-0.2,5.8,0l-4.1-5.4l-0.2,0.5l0.4-1c-1.5,3.5-3.5,6.7-4.4,10.4l8.4,1.1c0-0.4-0.1-0.8-0.2-1.2c-0.3-1.1-1-2-1.9-2.5
					c-0.3-0.2-0.5-0.3-0.8-0.5l0.9,0.7c-0.6-0.5-1.1-1-1.6-1.6l0.7,0.9c-1.1-1.4-2-2.9-2.7-4.4l0.4,1c-0.2-0.5-0.4-1-0.4-1.6
					l0.1,1.1v-0.4c0-1.1-0.5-2.2-1.2-3c-1.7-1.7-4.3-1.7-6,0c-0.8,0.8-1.2,1.9-1.2,3c0.2,2.6,1.2,5,2.7,7.1c1.2,2.1,2.9,3.8,4.9,5.1
					l-2.1-3.7l0,0c0,1.1,0.5,2.2,1.2,3c0.7,0.6,1.5,1.1,2.4,1.2c2.1,0.3,4.1-1,4.7-3c0.3-1.1,0.6-2.1,1.1-3.1l-0.4,1
					c1.1-2.6,2.5-5.1,3.6-7.7c0.4-1.3,0.1-2.7-0.8-3.7c-0.8-1-2-1.6-3.3-1.7c-1.8-0.2-3.6-0.2-5.4,0c-1.1,0.1-2.2,0.3-3.2,0.5
					c-0.4,0.1-0.8,0.2-1.2,0.4c-1,0.3-2,0.9-2.8,1.6c-1.7,1.7-1.7,4.3,0,6c0.8,0.8,1.9,1.2,3,1.2C158.1,211.2,159.2,210.8,160,210
					L160,210z"/>
				<line class="st9" x1="141.7" y1="210.7" x2="142.6" y2="209.3"/>
				<line class="st9" x1="143.8" y1="210.7" x2="144.8" y2="209.3"/>
				<line class="st9" x1="145.9" y1="210.7" x2="146.8" y2="209.3"/>
				<line class="st9" x1="180.8" y1="209.8" x2="179.9" y2="208.4"/>
				<line class="st9" x1="178.7" y1="209.7" x2="177.8" y2="208.3"/>
				<line class="st9" x1="176.6" y1="209.7" x2="175.7" y2="208.3"/>
				<path class="st0" d="M145.5,194.1h3.3"/>
				<path class="st0" d="M145.5,198.3h3.3c0.6,0,1.1-0.1,1.6-0.4c0.5-0.2,1-0.5,1.4-0.9c0.4-0.4,0.7-0.8,0.9-1.4
					c0.3-0.5,0.4-1.1,0.4-1.6l-0.2-1.1c-0.2-0.7-0.6-1.4-1.1-1.9l-0.9-0.7c-0.6-0.4-1.4-0.6-2.1-0.6h-3.3c-1.1,0-2.2,0.5-3,1.2
					c-0.8,0.8-1.2,1.9-1.2,3l0.1,1.1c0.2,0.7,0.6,1.4,1.1,1.9l0.9,0.7C144,198.1,144.8,198.3,145.5,198.3z"/>
			</g>
			<g id="맥주들고_있는거">
				<path class="st0" d="M179.7,259.4c1,1.2,2.8,1.5,4.1,0.7c0.3-0.2,0.6-0.5,0.8-0.8c0.2-0.4,0.3-0.8,0.3-1.1
					c0.3-3.9-0.3-7.9-1.9-11.5c-1.6-3.6-3.5-7.1-5.8-10.4h-28.6c-3.6,1.7-7,3.7-10.2,5.9c-3.2,2.3-5.8,5.3-7.6,8.9
					c-0.2,0.4-0.3,0.7-0.3,1.1c0,0.4,0.1,0.8,0.3,1.1c0.8,1.4,2.4,2,3.9,1.5l0.4-0.2l1.6-0.9c0.2-0.1,0.4-0.3,0.6-0.5
					c0.1-0.2,0.2-0.5,0.2-0.8c0-1.3-0.6-2.5-1.6-3.3l1.7,2.1c3.4,0.3,6.7-0.4,9.8-1.9l2.1-4.4c-0.9,1.9-1.6,3.9-2.1,5.9
					c-0.4,1.9-0.6,3.9-0.6,5.9c-0.1,1.8,0,3.7,0.3,5.5c1,3.6,3.4,6.6,6.7,8.3v-0.1c-0.3,0-0.6,0.1-0.9,0.3c-0.4,0.2-0.8,0.6-1.1,0.9
					c-0.3,0.4-0.4,0.9-0.2,1.3c0.3,0.5,0.9,0.9,1.5,1c0.5,0.1,0.9,0.2,1.4,0.1c0.5,0,1-0.1,1.4-0.2c0.8-0.3,1.5-0.6,2.2-1h0.1
					c-0.3-1.2-0.4-2.4-0.4-3.6c0-0.7,0.1-1.4,0.2-2.1c0.4-1.1,0.9-2.2,1.6-3.1c0.2-0.4,0.5-0.8,0.8-1.2l3.7,0c0.2,0.5,0.4,1,0.8,1.4
					c1,1.6,1.6,3.5,1.7,5.4c0.2,0.9,0,1.8-0.4,2.6v0.1c0.8,1.2,2.2,2,3.7,1.9c1.2,0.1,2.4-0.1,3.5-0.6c0.2-0.1,0.3-0.2,0.4-0.3
					c0.1-0.2,0.1-0.3,0.1-0.5c0.1-0.5,0-0.9-0.2-1.3c-0.3-0.5-0.8-0.8-1.3-0.8H172c3.3-1.7,5.7-4.7,6.7-8.3c0.4-1.8,0.5-3.7,0.3-5.5
					c0-2-0.2-3.9-0.6-5.9c-0.5-2-1.2-4-2.1-5.9"/>
				<path d="M178.9,260.1c1.3,1.5,3.5,1.9,5.3,0.9c2.3-1.3,2.1-4.4,1.9-6.6c-0.4-5.5-2.8-10.5-5.6-15.1l-2-3.3
					c-0.4-0.6-0.6-0.9-1.2-0.9h-24.9c-1.2-0.1-2.5-0.1-3.7,0c-0.8,0.2-1.6,0.6-2.4,1.1c-1.3,0.7-2.6,1.3-3.8,2.1
					c-2.3,1.3-4.5,2.8-6.6,4.6c-2.1,1.8-3.9,3.9-5.2,6.3c-0.7,1-1.1,2.3-1.2,3.5c0.2,1.1,0.8,2.1,1.8,2.8c2.1,1.4,4.1,0.6,6-0.7
					c2.3-1.5,1.1-4.7-0.6-6.2c-0.4-0.4-1.1-0.4-1.5,0c-0.4,0.4-0.4,1.1,0,1.5c0,0,0,0,0,0c0.6,0.7,1.3,2.1,2.2,2.3
					c1.4,0.2,2.8,0.2,4.2-0.1c1.3-0.2,2.6-0.5,3.9-0.9c0.9-0.3,2.3-0.6,2.9-1.4c0.2-0.4,0.4-0.8,0.6-1.2l1.5-3.1l-1.8-1.1
					c-1.2,2.4-2,5-2.5,7.7c-0.4,2.7-0.5,5.5-0.3,8.3c0.5,4.7,3.3,8.8,7.5,11c0.5,0.3,1.2,0.1,1.4-0.4c0.2-0.4,0.2-0.9-0.2-1.2
					c-0.8-0.9-2.3,0.1-3,0.7c-1.1,0.8-1.4,2.2-0.8,3.4c0.9,1.1,2.3,1.6,3.7,1.5c0.7,0,1.3-0.2,1.9-0.5c0.3-0.1,0.7-0.3,1-0.4
					c0.1,0,1.1-0.6,0.8-0.5c0.6,0,1-0.5,1-1.1c0-0.1,0-0.2,0-0.2c-0.4-1.6-0.5-3.3-0.2-5c0.5-1.5,1.3-3,2.3-4.2l-0.9,0.5h3.6l-1-0.8
					c0.4,1.3,1.4,2.3,1.9,3.7c0.5,1.3,0.7,2.6,0.6,4c-0.1,1.1-0.8,1.5,0,2.5c0.7,0.9,1.7,1.5,2.8,1.8c1.2,0.3,2.4,0.3,3.6,0.1
					c1-0.2,2.5-0.5,2.9-1.5c0.6-1.4,0-3.1-1.4-3.7c0,0,0,0,0,0c-0.4-0.2-0.8-0.3-1.3-0.2l0.5,2c4.2-2.2,7-6.3,7.5-11
					c0.2-2.7,0.1-5.4-0.3-8c-0.5-2.7-1.3-5.4-2.6-7.9c-0.6-1.2-2.4-0.2-1.8,1.1c1.1,2.2,1.8,4.6,2.3,7c0.3,2.3,0.4,4.7,0.3,7
					c-0.2,4.3-2.7,8.2-6.5,10.2c-0.5,0.3-0.7,0.9-0.4,1.5c0.2,0.3,0.6,0.5,0.9,0.5c0.4,0,1.1,0.6,0.7,1l-1.1,0.2
					c-0.4,0.1-0.8,0.2-1.3,0.2c-0.9,0-3.1-0.2-3.4-1.3l-0.1,0.8c0.9-1.5,0.6-3.3,0.3-5c-0.2-0.9-0.4-1.8-0.8-2.6
					c-0.4-0.9-1.2-1.7-1.5-2.6c-0.1-0.4-0.5-0.8-1-0.8h-2.3c-0.6-0.1-1.3-0.1-1.9,0.1c-0.4,0.4-0.8,0.8-1,1.4
					c-0.4,0.6-0.8,1.3-1.1,1.9c-1.3,2.5-1.1,5.3-0.5,7.9l1-1.3c-1.1,0.1-2.1,1.1-3.2,1.3c-0.7,0.2-1.4,0.1-2.1-0.2
					c-0.7-0.6,0.6-1.3,1.1-1.4l-1-0.3l0,0l1.3-1.7c-3.8-2-6.3-5.8-6.5-10.1c-0.1-2.3,0-4.7,0.3-7c0.5-2.4,1.2-4.7,2.3-6.9
					c0.5-1.2-1.2-2.3-1.8-1.1c-0.6,1.4-1.2,2.8-2,4.1c-0.4,0.5,0.2,0-0.7,0.4c-0.8,0.3-1.6,0.6-2.5,0.8c-1.9,0.5-3.8,0.6-5.8,0.5
					l0.8,0.3l-1.7-2.1l-1.5,1.5c0.7,0.5,1.1,1.2,1.2,2.1c0,0.9-0.9,1.3-1.6,1.7c-1.4,0.7-3.6-0.2-3-2c1-3.1,3.8-5.8,6.1-7.8
					c2.9-2.3,6-4.2,9.3-5.8c1.3-0.7,1.3-0.9,2.6-0.9h27.6l-0.9-0.5c2.5,3.9,5.1,8,6.5,12.5c0.7,2.2,1.1,4.5,1.1,6.8
					c0,1.1,0.2,2.8-1.1,3.3c-0.9,0.3-1.9,0.1-2.5-0.7C179.5,257.6,178,259,178.9,260.1L178.9,260.1z"/>
				<path class="st10" d="M169.2,237.5c2.3,0,14.6-1.2,22.7-9.5c10.8-11.1,6.4-26.9,5.8-29.4c-0.2-0.8-5.1-17.4-22-23.5
					c-7.1-2.5-14.8-2.7-22-0.6c-3,0.8-15.1,4.6-22,16.8c-1.1,2.1-10.1,18.6-0.4,33.1c8.3,12.4,23.6,13.1,25.3,13.2"/>
				<path class="st11" d="M141.3,180.1c-0.5-0.8-0.9-1.6-1.1-2.5c-0.8-2.9-1.1-6-0.9-9.1h-0.1c-1.7,0.3-3.5,0.2-5.1-0.2
					c-0.7-0.1-1.3-0.3-1.9-0.6c-0.9-0.4-1.7-0.9-2.4-1.6V166c-0.6-1.8-0.1-3.7,1.2-5c0.1-0.1,0.2-0.1,0.3-0.1h0.1
					c1.4,0.7,2.9,1.1,4.5,1.3c1.6,0.2,3.1,0.2,4.7,0.2l0,0c0.4-2.7,1-5.3,1.8-7.8c0.8-2.6,2.2-4.9,4-6.9v-0.1
					c0.4-0.3,0.8-0.4,1.3-0.3c0.4,0.1,0.9,0.2,1.2,0.5c0.7,0.4,1.4,1,1.9,1.7c0.2,0.2,0.3,0.5,0.3,0.8l-0.1,0.2
					c-1.5,2.4-2.7,5-3.5,7.7c-1,3-1.7,6.1-1.9,9.3c-0.2,3.2,0.3,6.4,1.4,9.3"/>
				<path d="M141.9,179.8c-0.9-1.6-1.5-3.4-1.6-5.2c-0.3-2-0.4-4-0.2-6c0-0.4-0.3-0.7-0.7-0.7c0,0,0,0,0,0h-0.2
					c-1.4,0.4-2.8,0.4-4.1,0c-1.4-0.2-2.7-0.7-3.9-1.4c-0.6-0.4-0.6-0.1-0.7-0.7c-0.2-0.6-0.2-1.3-0.1-1.9c0.2-0.9,0.7-1.8,1.4-2.4
					l-0.9,0.1c3,1.5,6.3,1.7,9.6,1.6l-0.7-0.5l0,0c0.1,0.4,0.5,0.6,0.9,0.5c0,0,0,0,0,0c0.2-0.1,0.4-0.2,0.5-0.5
					c0.7-4.1,1.5-8.3,3.7-11.9c0.5-0.9,1.1-1.7,1.8-2.4c0.3-0.2,0.2-0.2,0.5-0.3c0.6,0,1.2,0.2,1.7,0.6c0.4,0.2,1.1,0.8,1.3,1.3
					c0.2,0.2,0.2,0.4,0,0.6c-0.2,0.2-0.4,0.5-0.5,0.8c-0.5,0.8-0.9,1.7-1.3,2.6c-3.2,7.1-5,15.7-2,23.2c0.3,0.8,1.7,0.5,1.4-0.4
					c-1.9-4.7-1.8-9.8-0.6-14.6c0.6-2.5,1.4-4.9,2.4-7.3c0.5-1.1,1-2.2,1.6-3.2c0.4-0.6,0.7-1,0.6-1.7c-0.4-1.5-2.6-3.1-4.1-3.2
					s-2.6,1.4-3.4,2.6c-2.7,3.9-3.6,8.6-4.4,13.1h1.4c-0.1-0.3-0.4-0.5-0.7-0.5c-3,0-6.1-0.1-8.9-1.4c-0.3-0.2-0.6-0.1-0.9,0.1
					c0.3-0.3-0.3,0.1-0.3,0.2c-0.2,0.2-0.4,0.4-0.6,0.7c-0.4,0.6-0.7,1.4-0.9,2.1c-0.2,1.1-0.3,2.8,0.6,3.6c1.4,1.1,3,1.9,4.8,2.2
					c1.5,0.3,3.6,0.7,5.1,0.1l-0.9-0.7c-0.1,2.1,0,4.2,0.3,6.3c0.2,2,0.8,3.9,1.8,5.6C141.2,181.2,142.4,180.5,141.9,179.8
					L141.9,179.8z"/>
				<path class="st11" d="M187.3,181c0.5-0.8,0.9-1.6,1.1-2.5c0.8-2.9,1.1-6,0.9-9.1h0.1c1.7,0.3,3.5,0.2,5.1-0.2
					c0.7-0.1,1.3-0.3,1.9-0.6c0.9-0.4,1.7-0.9,2.4-1.6v-0.2c0.6-1.8,0.1-3.7-1.2-5c-0.1-0.1-0.2-0.2-0.3-0.1l0,0
					c-1.4,0.7-2.9,1.1-4.5,1.3c-1.6,0.2-3.1,0.3-4.7,0.2l0,0c-0.4-2.7-1-5.3-1.8-7.8c-0.8-2.6-2.2-4.9-4-6.9v-0.1
					c-0.4-0.3-0.8-0.4-1.3-0.3c-0.4,0.1-0.9,0.2-1.3,0.5c-0.7,0.4-1.4,1-1.9,1.7c-0.2,0.2-0.3,0.5-0.3,0.7l0.1,0.2
					c1.5,2.4,2.7,5,3.5,7.7c1,3,1.7,6.1,1.9,9.3c0.2,3.2-0.3,6.4-1.5,9.3"/>
				<path d="M187.9,181.3c1-1.7,1.6-3.6,1.8-5.6c0.3-2.1,0.4-4.2,0.3-6.3l-0.9,0.7c1.5,0.6,3.6,0.2,5.1-0.1c1.8-0.3,3.4-1,4.8-2.2
					c0.9-0.8,0.9-2.5,0.6-3.6c-0.2-0.8-0.5-1.5-0.9-2.1c-0.2-0.2-0.4-0.5-0.6-0.7c-0.1-0.1-0.6-0.5-0.3-0.2
					c-0.2-0.2-0.6-0.3-0.9-0.1c-2.8,1.3-5.8,1.5-8.9,1.4c-0.3,0-0.6,0.2-0.7,0.5h1.4c-0.8-4.5-1.7-9.1-4.3-13
					c-0.8-1.2-1.8-2.8-3.5-2.7c-1.5,0.1-3.7,1.7-4.1,3.2c-0.2,0.7,0.2,1.1,0.6,1.7c0.6,1,1.1,2.1,1.6,3.2c1,2.3,1.7,4.6,2.3,7
					c1.2,4.9,1.4,10.1-0.6,14.8c-0.3,0.9,1,1.2,1.4,0.4c3-7.5,1.2-16.1-2-23.2c-0.4-0.9-0.8-1.8-1.3-2.6c-0.1-0.2-0.7-0.9-0.7-1.1
					c0-0.5,1.1-1.3,1.5-1.5c0.6-0.4,1.4-0.8,2.1-0.4c0.8,0.7,1.5,1.6,1.9,2.5c2.2,3.6,2.9,7.8,3.7,11.9c0.1,0.4,0.5,0.6,0.9,0.5
					c0.2-0.1,0.4-0.2,0.5-0.5l0,0l-0.7,0.5c3.3,0,6.6-0.2,9.6-1.6l-0.9-0.1c0.7,0.5,1.2,1.3,1.4,2.2c0.1,0.6,0.1,1.3,0,1.9
					c-0.2,0.8-0.1,0.4-0.8,0.9c-1.1,0.7-2.4,1.2-3.7,1.4c-1.3,0.2-3.1,0.6-4.4,0.1c-0.4-0.1-0.8,0.1-0.9,0.5c0,0,0,0,0,0
					c0,0.1,0,0.1,0,0.2c0.1,2,0.1,4-0.2,6c-0.2,1.8-0.8,3.6-1.6,5.2C186.1,181.4,187.4,182.1,187.9,181.3L187.9,181.3z"/>
				
					<ellipse transform="matrix(0.9968 -8.002496e-02 8.002496e-02 0.9968 -16.3433 12.2398)" class="st12" cx="144.5" cy="210" rx="5.1" ry="2.1"/>
				
					<ellipse transform="matrix(8.002489e-02 -0.9968 0.9968 8.002489e-02 -44.6672 369.8579)" class="st12" cx="178" cy="209.1" rx="2.1" ry="5.1"/>
				<path class="st0" d="M136.1,183.7c-1.9-2.5-4.5-4.4-7.5-5.4c-3.9-1.1-7.7,0-11.4,1.3c-0.1,0-0.2,0.1-0.3,0.2
					c-0.4,0.1-0.8,0.4-0.9,0.9c-0.4,4.4,0.5,8.8,2.8,12.5c1.9,3.2,4.9,6.2,8.6,7.3c0.5,0.1,1-0.2,1.2-0.7c0.5-1.4,1-2.9,1.5-4.4
					c0.1-0.4,0.2-0.7,0.4-1.1l0.1-0.2v-0.1c0.2-0.5,0.5-1,0.8-1.5c0.6-1.2,1.3-2.4,1.9-3.6l0,0c1.1-1.3,2.1-2.6,2.9-4.1
					C136.5,184.6,136.4,184.1,136.1,183.7z"/>
				<path d="M136.1,183.7c-1.9-2.5-4.5-4.4-7.5-5.4c-3.9-1.1-7.7,0-11.4,1.3c-0.1,0-0.2,0.1-0.3,0.2c-0.4,0.1-0.8,0.4-0.9,0.9
					c-0.4,4.4,0.5,8.8,2.8,12.5c1.9,3.2,4.9,6.2,8.6,7.3c0.5,0.1,1-0.2,1.2-0.7c0.5-1.4,1-2.9,1.5-4.4c0.1-0.4,0.2-0.7,0.4-1.1
					l0.1-0.2v-0.1c0.2-0.5,0.5-1,0.8-1.5c0.6-1.2,1.3-2.4,1.9-3.6l0,0c1.1-1.3,2.1-2.6,2.9-4.1C136.5,184.6,136.4,184.1,136.1,183.7
					z M129,193.3c-0.7,1.7-1.3,3.4-1.8,5.1c-2.9-1.4-5.3-3.6-6.8-6.4c-1.8-3.2-2.7-6.8-2.5-10.4c1.1,0.1,2.2,0,3.3,0.1
					c1.4,0.2,2.8,0.6,4.2,1.1c1.4,0.5,2.7,1.2,3.9,2c1.2,0.6,2.1,1.6,2.6,2.9C130.9,189.5,129.9,191.4,129,193.3z M133.3,186.1
					c-0.2-0.4-0.5-0.7-0.8-1c-1.2-1.2-2.5-2.1-4-2.9c-1.7-0.9-3.5-1.6-5.4-2c-0.2-0.1-0.4-0.1-0.6-0.1c1.8-0.4,3.7-0.4,5.5,0.1
					c2.5,0.8,4.6,2.3,6.2,4.3C134,185,133.6,185.5,133.3,186.1L133.3,186.1z"/>
				<path class="st0" d="M190.4,186.1c0.8,1.5,1.8,2.8,2.9,4.1l0,0c0.6,1.2,1.3,2.4,1.9,3.6c0.3,0.5,0.5,1,0.8,1.5v0.1l0.1,0.2
					c0.1,0.4,0.3,0.7,0.4,1c0.5,1.5,1,2.9,1.6,4.4c0.2,0.5,0.7,0.8,1.2,0.7c3.7-1.1,6.6-4.1,8.6-7.3c2.3-3.7,3.3-8.1,2.8-12.5
					c-0.1-0.4-0.4-0.8-0.9-0.9c-0.1-0.1-0.2-0.1-0.3-0.1c-3.7-1.4-7.5-2.4-11.4-1.3c-3,1-5.6,2.8-7.5,5.4
					C190.2,185.2,190.1,185.7,190.4,186.1z"/>
				<path d="M190.4,186.1c0.8,1.5,1.8,2.8,2.9,4.1l0,0c0.6,1.2,1.3,2.4,1.9,3.6c0.3,0.5,0.5,1,0.8,1.5v0.1l0.1,0.2
					c0.1,0.4,0.3,0.7,0.4,1c0.5,1.5,1,2.9,1.6,4.4c0.2,0.5,0.7,0.8,1.2,0.7c3.7-1.1,6.6-4.1,8.6-7.3c2.3-3.7,3.3-8.1,2.8-12.5
					c-0.1-0.4-0.4-0.8-0.9-0.9c-0.1-0.1-0.2-0.1-0.3-0.1c-3.7-1.4-7.5-2.4-11.4-1.3c-3,1-5.6,2.8-7.5,5.4
					C190.2,185.2,190.1,185.7,190.4,186.1z M194.8,188.8c0.5-1.2,1.5-2.2,2.6-2.9c1.2-0.8,2.6-1.5,3.9-2c1.4-0.5,2.8-0.9,4.2-1.1
					c1.1-0.2,2.2,0,3.3-0.1c0.2,3.6-0.7,7.3-2.5,10.4c-1.5,2.8-3.9,5.1-6.8,6.4c-0.5-1.7-1.1-3.4-1.8-5.1
					C196.8,192.6,195.7,190.7,194.8,188.8z M192.3,185.7c1.6-2,3.8-3.5,6.2-4.3c1.8-0.5,3.7-0.5,5.6-0.1c-0.2,0-0.4,0.1-0.6,0.1
					c-1.9,0.4-3.7,1.1-5.4,2c-1.5,0.7-2.8,1.7-4,2.9c-0.3,0.3-0.5,0.6-0.8,1C193,186.7,192.7,186.2,192.3,185.7L192.3,185.7z"/>
				<path d="M134.4,254.8v3.4c0,0.2,0.1-0.2,0,0l0.3-0.5c0.3-0.2,0.4-0.2,0.2-0.1h-0.1l-0.4,0.1l-0.6,0.2l-1.4,0.4l-2.7,0.7
					c-0.5,0.3-0.7,0.9-0.5,1.4c0.2,0.4,0.6,0.6,1,0.6l4.9-1.3c0.6-0.1,1.1-0.5,1.2-1c0.1-0.5,0.1-0.9,0.1-1.4v-2.6
					c-0.1-0.6-0.6-1-1.2-1C134.9,253.8,134.4,254.2,134.4,254.8L134.4,254.8z"/>
				<path d="M136.4,249.2c0.1-2.6-0.2-5.3-0.9-7.9c-0.2-0.6-0.8-0.9-1.3-0.7c0,0,0,0,0,0c-0.1,0-0.2,0.1-0.2,0.1
					c-2.1,1.1-4.2,2.2-6.4,3.1c-0.5,0.3-0.7,1-0.4,1.5c0.3,0.5,0.9,0.7,1.5,0.4c2.2-0.9,4.4-2,6.4-3.1l-1.6-0.6
					c0.6,2.4,0.9,4.8,0.8,7.3c0,0.6,0.5,1,1.1,1.1C135.9,250.2,136.4,249.8,136.4,249.2z"/>
				<path class="st13" d="M110.8,275.3c7.5-0.3,14.7-2.9,20.7-7.4v-0.3c-1.6-9-5.2-17.9-4.4-27l-0.3-0.1c-8.3-0.9-16.4,3-24.8,3.7
					v0.2c-0.6,5.4-0.2,10.8,1.1,16c1.3,5.2,3.9,10.1,7.4,14.2"/>
				<path d="M110.8,276.4c6.3-0.3,12.3-2.1,17.7-5.2c0.9-0.5,1.8-1.1,2.6-1.7c0.7-0.5,1.3-0.8,1.4-1.7c0-0.9-0.2-1.8-0.5-2.7
					c-0.3-1.2-0.5-2.4-0.8-3.6c-0.6-2.3-1.1-4.5-1.7-6.8c-1.2-4.5-1.6-9.2-1.4-13.9c0-0.5-0.3-0.9-0.8-1c-3.9-0.7-8.1,0-12,0.9
					c-4.5,1-8.9,2.3-13.4,2.7c-0.6,0-1,0.5-1.1,1.1c-0.9,11.2,1.2,22.5,8.8,31.2c0.9,1,2.4-0.5,1.5-1.5c-7.2-8.2-9.1-19.1-8.2-29.7
					l-1,1c4.3-0.5,8.5-1.4,12.7-2.5c3.9-0.9,8.2-1.9,12.2-1.2l-0.8-1c-0.3,4.6,0.2,9.3,1.3,13.8c0.5,2.3,1.1,4.6,1.7,6.8
					c0.3,1.1,0.6,2.3,0.8,3.4c0.3,1,0.5,2.1,0.6,3.2l0.5-0.9c-5.8,4.4-12.8,6.9-20.1,7.3C109.5,274.3,109.5,276.5,110.8,276.4
					L110.8,276.4z"/>
				<path d="M106.1,251.2c-0.7,6.4,1.5,12.8,5.9,17.5c0.9,1,2.4-0.5,1.5-1.5c-4-4.3-5.9-10.2-5.3-16
					C108.4,249.8,106.2,249.8,106.1,251.2L106.1,251.2z"/>
				<path d="M113.8,249.8c-0.4,5.6,0,12.1,4.7,16c1,0.9,2.5-0.6,1.5-1.5c-4.2-3.6-4.4-9.4-4-14.5C116.1,248.4,114,248.4,113.8,249.8
					L113.8,249.8z"/>
				<path d="M121,248.7c-0.4,5.2,0.3,10.3,1.8,15.3c0.4,1.3,2.5,0.8,2-0.6c-1.5-4.7-2.1-9.7-1.8-14.7
					C123.2,247.3,121.1,247.3,121,248.7L121,248.7z"/>
				<path d="M110.4,225.4c-1.5,0.1-3,0-4.4-0.1c-1.3,0-2.7,0.4-3.8,1.1c-1.1,0.9-1.9,2.2-2.4,3.6c-0.6,1.4-0.8,2.9-0.5,4.4
					c0.2,0.6,0.7,0.9,1.3,0.7l0,0c0.6-0.2,0.9-0.7,0.7-1.3c-0.1-1.1,0-2.3,0.5-3.4c0.3-1.1,1-2,1.9-2.6c0.9-0.4,1.9-0.6,2.9-0.5
					c1.4,0.1,2.8,0.1,4.3,0c0.6-0.2,0.9-0.7,0.7-1.3C111.5,225.6,111,225.3,110.4,225.4z"/>
				<path d="M100.7,233.2c-0.9-0.1-1.8,0.3-2.2,1.1c-0.5,0.7-1,1.4-1.4,2.1c-0.9,1.5-1.4,3.1-1.4,4.9c0.1,1.6,1,3,2.5,3.6
					c1.2,0.5,2.5,0.7,3.8,0.6c0.6-0.1,1-0.5,1-1.1c0-0.6-0.5-1-1.1-1.1c-0.9,0.1-1.8-0.1-2.6-0.4c-0.8-0.2-1.4-0.8-1.5-1.6
					c-0.1-1.2,0.2-2.3,0.8-3.3c0.3-0.6,0.5-1.1,0.9-1.6c0.2-0.2,0.3-0.5,0.5-0.7c0.1-0.1,0.2-0.2,0.3-0.3l0.1-0.1
					c0.2-0.2,0.1-0.2-0.3,0C101.4,235.6,102,233.5,100.7,233.2L100.7,233.2z"/>
				<path d="M112,225.5c-0.1-0.3,0.5-0.6,0.6-0.7c0.6-0.2,1.3-0.3,1.9-0.4c1.3-0.2,2.7-0.1,4,0.3c1.1,0.5,1.8,1.4,2.1,2.5
					c0.2,0.9,0.6,2.2-0.2,2.9c-1,0.9,0.5,2.4,1.5,1.5c1.4-1.2,1.2-3.3,0.7-4.9c-0.5-1.9-1.8-3.3-3.6-4c-2-0.6-4.1-0.6-6.1-0.2
					c-0.9,0.1-1.8,0.5-2.4,1.2c-0.7,0.8-0.8,1.9-0.4,2.8c0.3,0.5,0.9,0.7,1.4,0.4c0.5-0.3,0.7-0.9,0.4-1.4
					C112,225.6,112,225.6,112,225.5L112,225.5L112,225.5z"/>
				<path d="M120.9,232.2c0.8,0.1,1.6,0.1,2.4,0.1c0.6-0.1,1.2-0.1,1.9,0c0.5,0.1,0.9,0.3,1.2,0.7c0.3,0.6,0.6,1.2,0.8,1.8
					c0.2,0.6,0.4,1.3,0.4,2c0,0.2,0,0.3,0,0.5v0.1c0,0.2-0.1,0.4-0.2,0.5c-0.1,0.4-0.3,0.8-0.5,1.2c-0.1,0.2-0.2,0.4-0.3,0.5
					s-0.2,0.2,0,0.1l-0.2,0.2c-0.4,0.4-0.4,1.1,0,1.5c0.4,0.4,1.1,0.4,1.5,0c0.3-0.3,0.6-0.8,0.8-1.2c0.3-0.6,0.5-1.1,0.8-1.7
					c0.4-1.4,0.3-2.9-0.2-4.3c-0.5-1.6-1.2-3.2-2.9-3.8c-0.7-0.2-1.5-0.3-2.3-0.2c-0.8,0.1-1.7,0.1-2.5,0.1
					c-0.6-0.1-1.1,0.2-1.3,0.7C120.1,231.5,120.4,232,120.9,232.2L120.9,232.2z"/>
				<circle cx="147.4" cy="201.1" r="2.7"/>
				<path d="M171.5,195.4l2.6-2c0.2-0.1,0.3-0.4,0.2-0.7c-0.1-0.2-0.4-0.3-0.7-0.2c0,0,0,0,0,0l-2.5,2c-0.2,0.1-0.3,0.4-0.2,0.7
					C171,195.5,171.2,195.6,171.5,195.4C171.5,195.4,171.5,195.4,171.5,195.4L171.5,195.4L171.5,195.4z"/>
				<circle cx="174.4" cy="200.9" r="2.7"/>
				<path d="M157,207c0.6-0.4,1.3-0.7,2-0.9c1-0.3,2-0.5,3.1-0.5c1.5-0.1,3.1-0.1,4.6,0.1c-1.4,3.3-3.3,6.4-4.2,9.9l0,0
					c-1.1-0.7-2-1.6-2.7-2.6c-0.7-0.9-1.3-1.8-1.7-2.8c-0.5-0.9-0.9-1.9-1-3"/>
				<path d="M157.1,207.2c0.7-0.5,1.5-0.8,2.3-0.9c0.7-0.2,1.4-0.3,2.1-0.4c1.7-0.2,3.4-0.2,5.1,0l-0.2-0.3
					c-1.4,3.3-3.3,6.4-4.2,9.9h0.4c0-0.2-0.3-0.3-0.4-0.4c-0.4-0.3-0.8-0.6-1.1-0.9c-0.6-0.6-1.1-1.3-1.6-2.1
					c-0.4-0.6-0.8-1.2-1.2-1.9c-0.6-1-1-2-1.1-3.2c0-0.3-0.4-0.3-0.4,0c0.7,3.5,2.7,6.5,5.6,8.6l-0.1-0.2l0,0c0,0.1,0.1,0.2,0.2,0.2
					c0.1,0,0.2-0.1,0.2-0.2c0.9-3.5,2.9-6.6,4.2-9.9c0.1-0.1-0.1-0.3-0.2-0.3c-1.8-0.2-3.6-0.2-5.4,0c-0.7,0.1-1.4,0.2-2.1,0.4
					c-0.8,0.2-1.5,0.5-2.2,1c-0.2,0.2,0.1,0.5,0.3,0.3L157.1,207.2z"/>
				<line class="st14" x1="141.7" y1="210.7" x2="142.6" y2="209.3"/>
				<line class="st14" x1="143.8" y1="210.7" x2="144.8" y2="209.3"/>
				<line class="st14" x1="145.9" y1="210.7" x2="146.8" y2="209.3"/>
				<line class="st14" x1="180.8" y1="209.8" x2="179.9" y2="208.4"/>
				<line class="st14" x1="178.7" y1="209.7" x2="177.8" y2="208.3"/>
				<line class="st14" x1="176.6" y1="209.7" x2="175.7" y2="208.3"/>
				<path d="M147.8,193.6l2.8,1.8c0.2,0.1,0.5,0.1,0.7-0.2c0.1-0.2,0.1-0.5-0.2-0.7l-2.8-1.8c-0.2-0.1-0.5-0.1-0.7,0.2
					C147.4,193.1,147.5,193.4,147.8,193.6z"/>
			</g>
		</g>
		<g class="st2">
			<path d="M0.1,46.6c19.5,0,19.5,16.5,39,16.5s19.5-16.5,39-16.5s19.5,16.5,39,16.5s19.5-16.5,39-16.5s19.5,16.5,39,16.5
				s19.5-16.5,39-16.5s19.5,16.5,39,16.5s19.5-16.5,39-16.5"/>
			<path d="M39,64.2c-10.1,0-15.2-4.3-20.2-8.5s-9.5-8-18.8-8v-2.1c10.1,0,15.2,4.3,20.2,8.5s9.5,8,18.8,8s14-3.9,18.8-8
				s10-8.5,20.2-8.5s15.3,4.4,20.2,8.5s9.4,8,18.8,8s14-3.9,18.8-8s10-8.5,20.2-8.5s15.2,4.4,20.2,8.5s9.5,8,18.8,8s14-3.9,18.8-8
				s10-8.5,20.2-8.5s15.2,4.4,20.2,8.5c4.9,4.1,9.5,8,18.8,8s14-3.9,18.8-8s10-8.5,20.2-8.5v2.1c-9.4,0-14,3.9-18.8,8
				s-10,8.5-20.2,8.5s-15.2-4.3-20.2-8.5s-9.5-8-18.8-8s-14,3.9-18.8,8s-10,8.5-20.2,8.5s-15.2-4.3-20.2-8.5s-9.5-8-18.8-8
				s-14,3.9-18.8,8s-10,8.5-20.2,8.5s-15.2-4.3-20.2-8.5s-9.5-8-18.8-8s-14,3.9-18.8,8S49.2,64.2,39,64.2z"/>
		</g>
		<path class="st0" d="M0.1,44.5c19.5,0,19.5,16.5,39,16.5s19.5-16.5,39-16.5s19.5,16.5,39,16.5s19.5-16.5,39-16.5
			s19.5,16.5,39,16.5s19.5-16.5,39-16.5s19.5,16.5,39,16.5s19.5-16.5,39-16.5"/>
		<path class="st15" d="M39,62.1c-10.1,0-15.2-4.3-20.2-8.5s-9.5-8-18.8-8v-2.1c10.1,0,15.2,4.3,20.2,8.5s9.5,8,18.8,8
			s14-3.9,18.8-8s10-8.5,20.2-8.5s15.3,4.4,20.2,8.5s9.4,8,18.8,8s14-3.9,18.8-8s10-8.5,20.2-8.5s15.2,4.4,20.2,8.5s9.5,8,18.8,8
			s14-3.9,18.8-8s10-8.5,20.2-8.5s15.2,4.4,20.2,8.5c4.9,4.1,9.5,8,18.8,8s14-3.9,18.8-8s10-8.5,20.2-8.5v2.1c-9.4,0-14,3.9-18.8,8
			s-10,8.5-20.2,8.5s-15.2-4.3-20.2-8.5s-9.5-8-18.8-8s-14,3.9-18.8,8S205.2,62,195,62s-15.2-4.3-20.2-8.5s-9.5-8-18.8-8
			s-14,3.9-18.8,8S127.2,62,117,62s-15.2-4.3-20.2-8.5s-9.5-8-18.8-8s-14,3.9-18.8,8S49.2,62.1,39,62.1z"/>
	</g>
</g>
</svg>
